<svg width="24" height="24" viewBox="0 0 24 24" fill="none" xmlns="http://www.w3.org/2000/svg">
<path d="M14.483 5.36788C15.5927 6.06365 16.3708 7.24104 16.5125 8.60772C16.965 8.81917 17.4673 8.94078 17.9999 8.94078C19.944 8.94078 21.5197 7.36504 21.5197 5.42119C21.5197 3.47705 19.944 1.90131 17.9999 1.90131C16.0743 1.90191 14.5123 3.4495 14.483 5.36788ZM12.177 12.5748C14.1212 12.5748 15.6969 10.9987 15.6969 9.05489C15.6969 7.11105 14.1209 5.53531 12.177 5.53531C10.2332 5.53531 8.65653 7.11135 8.65653 9.05519C8.65653 10.999 10.2332 12.5748 12.177 12.5748ZM13.6701 12.8147H10.6833C8.19828 12.8147 6.17656 14.8367 6.17656 17.3218V20.9743L6.18585 21.0315L6.43744 21.1103C8.80899 21.8513 10.8693 22.0984 12.5652 22.0984C15.8775 22.0984 17.7974 21.154 17.9157 21.0938L18.1508 20.9749H18.176V17.3218C18.1769 14.8367 16.1551 12.8147 13.6701 12.8147ZM19.4935 9.18098H16.5298C16.4978 10.3668 15.9916 11.4345 15.191 12.2025C17.3999 12.8593 19.0161 14.9077 19.0161 17.3271V18.4527C21.9423 18.3455 23.6286 17.5161 23.7397 17.4604L23.9748 17.3412H24V13.6875C24 11.2027 21.9783 9.18098 19.4935 9.18098ZM6.00075 8.94137C6.68933 8.94137 7.32999 8.7404 7.87271 8.39806C8.04523 7.27279 8.64845 6.28948 9.51015 5.61977C9.51374 5.55388 9.52003 5.48858 9.52003 5.42209C9.52003 3.47795 7.94399 1.90221 6.00075 1.90221C4.05631 1.90221 2.48087 3.47795 2.48087 5.42209C2.48087 7.36534 4.05631 8.94137 6.00075 8.94137ZM9.16181 12.2025C8.36511 11.4384 7.86073 10.3763 7.82389 9.19776C7.71397 9.18967 7.60524 9.18098 7.49322 9.18098H4.50678C2.02171 9.18098 0 11.2027 0 13.6875V17.3406L0.00928491 17.3969L0.260876 17.4763C2.16338 18.0702 3.86133 18.344 5.33613 18.4303V17.3271C5.33673 14.9077 6.9523 12.8599 9.16181 12.2025Z" fill="#24633D"/>
</svg>
