<svg width="24" height="24" viewBox="0 0 24 24" fill="none" xmlns="http://www.w3.org/2000/svg">
<path d="M14.0416 24C11.8962 24 9.8528 23.3285 8.13239 22.0579L7.56708 21.6404L13.3385 13.8169V4.08313H14.0416C19.5327 4.08313 24 8.55046 24 14.0416C24 19.5327 19.5327 24 14.0416 24ZM9.54998 21.3213C10.8966 22.1558 12.4357 22.5938 14.0416 22.5938C18.7573 22.5938 22.5938 18.7573 22.5938 14.0416C22.5938 9.56249 19.133 5.87661 14.7448 5.51802V14.2795L9.54998 21.3213Z" fill="#303030"/>
<path d="M4.61517 21.0304L4.0493 20.6127C2.82108 19.7061 1.80263 18.5115 1.104 17.1581C0.38175 15.7587 0 14.1813 0 12.5964C0 10.2094 0.857344 7.90089 2.41406 6.09607L2.87325 5.56366L10.911 12.4961L4.61517 21.0304ZM3.04167 7.56593C1.98277 9.02107 1.40625 10.7823 1.40625 12.5964C1.40625 15.0646 2.48995 17.4247 4.33594 19.0401L9.00586 12.7098L3.04167 7.56593Z" fill="#303030"/>
<path d="M11.2222 9.83362L3.77704 3.41236L4.23613 2.87995C5.81432 1.04972 8.10435 0 10.5191 0H11.2222V9.83362ZM5.78737 3.28917L9.81599 6.76378V1.44216C8.30643 1.5967 6.89076 2.24573 5.78737 3.28917Z" fill="#303030"/>
</svg>
