<svg width="24" height="24" viewBox="0 0 24 24" fill="none" xmlns="http://www.w3.org/2000/svg">
<path d="M1.33333 8.73333H9.33333C9.52782 8.73333 9.71435 8.65607 9.85188 8.51855C9.9894 8.38102 10.0667 8.19449 10.0667 8V1.33333C10.0667 1.13884 9.9894 0.952315 9.85188 0.814788C9.71435 0.677262 9.52782 0.6 9.33333 0.6H1.33333C1.13884 0.6 0.952315 0.677261 0.814787 0.814788L1.33333 8.73333ZM1.33333 8.73333C1.13884 8.73333 0.952314 8.65607 0.814785 8.51854M1.33333 8.73333L0.814785 8.51854M0.814785 8.51854C0.677261 8.38102 0.6 8.19449 0.6 8M0.814785 8.51854L0.6 8M0.6 8V1.33333M0.6 8V1.33333M0.6 1.33333C0.6 1.13884 0.677261 0.952315 0.814785 0.814789L0.6 1.33333ZM22.6667 12.7333H14.6667C14.4722 12.7333 14.2856 12.6561 14.1481 12.5185C14.0106 12.381 13.9333 12.1945 13.9333 12V1.33333C13.9333 1.13884 14.0106 0.952315 14.1481 0.814788C14.2856 0.677261 14.4722 0.6 14.6667 0.6H22.6667C22.8612 0.6 23.0477 0.677262 23.1852 0.814788C23.3227 0.952315 23.4 1.13884 23.4 1.33333V12C23.4 12.1945 23.3227 12.381 23.1852 12.5185C23.0477 12.6561 22.8612 12.7333 22.6667 12.7333ZM23.4 22.6667C23.4 22.8612 23.3227 23.0477 23.1852 23.1852C23.0477 23.3227 22.8612 23.4 22.6667 23.4H14.6667C14.4722 23.4 14.2856 23.3227 14.1481 23.1852C14.0106 23.0477 13.9333 22.8612 13.9333 22.6667V17.3333C13.9333 17.1388 14.0106 16.9523 14.1481 16.8148C14.2857 16.6773 14.4722 16.6 14.6667 16.6H22.6667C22.8612 16.6 23.0477 16.6773 23.1852 16.8148C23.3227 16.9523 23.4 17.1388 23.4 17.3333V22.6667ZM10.0667 22.6667C10.0667 22.8612 9.9894 23.0477 9.85188 23.1852C9.71435 23.3227 9.52783 23.4 9.33333 23.4H1.33333C1.13884 23.4 0.952312 23.3227 0.814784 23.1852C0.677262 23.0477 0.6 22.8612 0.6 22.6667V13.3333C0.6 13.1388 0.677261 12.9523 0.814787 12.8148C0.952314 12.6773 1.13884 12.6 1.33333 12.6H9.33333C9.52782 12.6 9.71435 12.6773 9.85188 12.8148C9.9894 12.9523 10.0667 13.1388 10.0667 13.3333V22.6667Z" stroke="#303030" stroke-width="1.2"/>
</svg>
