<svg width="24" height="24" viewBox="0 0 24 24" fill="none" xmlns="http://www.w3.org/2000/svg">
<path d="M20.8275 16.7119L19.7344 15.9831V9.65625C19.7344 5.62852 16.6395 2.31061 12.7031 1.95417V0.703125C12.7031 0.314812 12.3883 0 12 0C11.6117 0 11.2969 0.314812 11.2969 0.703125V1.95417C7.36045 2.31061 4.26562 5.62852 4.26562 9.65625V15.9831L3.1725 16.7119C2.97684 16.8423 2.85938 17.0618 2.85938 17.2969V20.1094C2.85938 20.4977 3.17419 20.8125 3.5625 20.8125H20.4375C20.8258 20.8125 21.1406 20.4977 21.1406 20.1094V17.2969C21.1406 17.0618 21.0231 16.8422 20.8275 16.7119Z" fill="#C5822C"/>
<path d="M8.75311 22.2188C9.44278 23.2895 10.6401 24 12.0001 24C13.3599 24 14.5573 23.2895 15.2469 22.2188H8.75311Z" fill="#C5822C"/>
</svg>
