<svg width="24" height="24" viewBox="0 0 24 24" fill="none" xmlns="http://www.w3.org/2000/svg">
<path d="M14.0408 4.08313H13.3377V13.8168L7.56628 21.6404L8.1316 22.0579C9.852 23.3285 11.8954 24 14.0408 24C19.532 24 23.9993 19.5327 23.9993 14.0416C23.9993 8.55051 19.5319 4.08313 14.0408 4.08313Z" fill="#C5822C"/>
<path d="M2.87244 5.5636C2.28332 6.24666 1.71632 6.93235 1.27265 7.72313C0.653052 8.8275 0.247443 10.0491 0.08324 11.3048C-0.269494 14.0023 0.518943 16.7772 2.23747 18.8854C2.92344 19.7269 3.74676 20.39 4.61432 21.0305L10.9102 12.4961L2.87244 5.5636Z" fill="#C5822C"/>
<path d="M11.2216 0C9.77446 0 8.39755 0.142031 7.0633 0.753609C5.72863 1.36537 4.72176 2.31605 3.77643 3.41236L11.2216 9.83362V0Z" fill="#C5822C"/>
</svg>
