<svg width="24" height="24" viewBox="0 0 24 24" fill="none" xmlns="http://www.w3.org/2000/svg">
<g clip-path="url(#clip0)">
<path d="M11.9986 7.5L11.9965 12.7471C11.9965 12.9463 12.0755 13.1368 12.2162 13.2774L15.9698 17.0303L17.0304 15.9697L13.4964 12.4365L13.4986 7.5H11.9986Z" fill="#303030"/>
<path d="M13.5 1.5C8.22083 1.5 3.85164 5.42066 3.11987 10.5H0L3.75 14.25L7.49999 10.5H4.63548C5.353 6.25031 9.04917 3.00002 13.5 3.00002C18.4629 3.00002 22.5 7.03712 22.5 12C22.5 16.9629 18.4629 21 13.5 21C10.7102 21 8.12332 19.7374 6.40283 17.5357L5.22071 18.4585C7.22752 21.0264 10.2451 22.5 13.5 22.5C19.2898 22.5 24 17.7891 24 12C24 6.21099 19.2898 1.50004 13.5 1.5Z" fill="#303030"/>
</g>
<defs>
<clipPath id="clip0">
<rect width="24" height="24" fill="white"/>
</clipPath>
</defs>
</svg>
