<svg width="159" height="264" viewBox="0 0 159 264" fill="none" xmlns="http://www.w3.org/2000/svg">
<path d="M10.2734 215.156C10.2734 214.526 10.4193 214.047 10.7109 213.719C11.0078 213.391 11.4375 213.227 12 213.227C12.5469 213.227 12.9714 213.388 13.2734 213.711C13.5755 214.034 13.7266 214.516 13.7266 215.156C13.7266 215.776 13.5755 216.255 13.2734 216.594C12.9766 216.927 12.5521 217.094 12 217.094C11.4427 217.094 11.0156 216.924 10.7188 216.586C10.4219 216.242 10.2734 215.766 10.2734 215.156ZM32.0156 217.961C32.0156 218.966 31.651 219.75 30.9219 220.312C30.1927 220.875 29.2031 221.156 27.9531 221.156C26.599 221.156 25.5573 220.982 24.8281 220.633V219.352C25.2969 219.549 25.8073 219.706 26.3594 219.82C26.9115 219.935 27.4583 219.992 28 219.992C28.8854 219.992 29.5521 219.826 30 219.492C30.4479 219.154 30.6719 218.685 30.6719 218.086C30.6719 217.69 30.5911 217.367 30.4297 217.117C30.2734 216.862 30.0078 216.628 29.6328 216.414C29.263 216.201 28.6979 215.958 27.9375 215.688C26.875 215.307 26.1146 214.857 25.6562 214.336C25.2031 213.815 24.9766 213.135 24.9766 212.297C24.9766 211.417 25.3073 210.716 25.9688 210.195C26.6302 209.674 27.5052 209.414 28.5938 209.414C29.7292 209.414 30.7734 209.622 31.7266 210.039L31.3125 211.195C30.3698 210.799 29.4531 210.602 28.5625 210.602C27.8594 210.602 27.3099 210.753 26.9141 211.055C26.5182 211.357 26.3203 211.776 26.3203 212.312C26.3203 212.708 26.3932 213.034 26.5391 213.289C26.6849 213.539 26.9297 213.771 27.2734 213.984C27.6224 214.193 28.1536 214.424 28.8672 214.68C30.0651 215.107 30.888 215.565 31.3359 216.055C31.7891 216.544 32.0156 217.18 32.0156 217.961ZM35.4531 221H34.1562V212.438H35.4531V221ZM34.0469 210.117C34.0469 209.82 34.1198 209.604 34.2656 209.469C34.4115 209.328 34.5938 209.258 34.8125 209.258C35.0208 209.258 35.2005 209.328 35.3516 209.469C35.5026 209.609 35.5781 209.826 35.5781 210.117C35.5781 210.409 35.5026 210.628 35.3516 210.773C35.2005 210.914 35.0208 210.984 34.8125 210.984C34.5938 210.984 34.4115 210.914 34.2656 210.773C34.1198 210.628 34.0469 210.409 34.0469 210.117ZM43.6797 221H37.4688V220.117L42.1406 213.445H37.7578V212.438H43.5625V213.445L38.9531 219.992H43.6797V221ZM49.3047 221.156C48.0391 221.156 47.0391 220.771 46.3047 220C45.5755 219.229 45.2109 218.159 45.2109 216.789C45.2109 215.409 45.5495 214.312 46.2266 213.5C46.9089 212.688 47.8229 212.281 48.9688 212.281C50.0417 212.281 50.8906 212.635 51.5156 213.344C52.1406 214.047 52.4531 214.977 52.4531 216.133V216.953H46.5547C46.5807 217.958 46.8333 218.721 47.3125 219.242C47.7969 219.763 48.4766 220.023 49.3516 220.023C50.2734 220.023 51.1849 219.831 52.0859 219.445V220.602C51.6276 220.799 51.1927 220.94 50.7812 221.023C50.375 221.112 49.8828 221.156 49.3047 221.156ZM48.9531 213.367C48.2656 213.367 47.7161 213.591 47.3047 214.039C46.8984 214.487 46.6589 215.107 46.5859 215.898H51.0625C51.0625 215.081 50.8802 214.456 50.5156 214.023C50.151 213.586 49.6302 213.367 48.9531 213.367ZM54.4844 220.172C54.4844 219.823 54.5625 219.56 54.7188 219.383C54.8802 219.201 55.1094 219.109 55.4062 219.109C55.7083 219.109 55.9427 219.201 56.1094 219.383C56.2812 219.56 56.3672 219.823 56.3672 220.172C56.3672 220.51 56.2812 220.771 56.1094 220.953C55.9375 221.135 55.7031 221.227 55.4062 221.227C55.1406 221.227 54.9193 221.146 54.7422 220.984C54.5703 220.818 54.4844 220.547 54.4844 220.172ZM54.4844 213.273C54.4844 212.57 54.7917 212.219 55.4062 212.219C56.0469 212.219 56.3672 212.57 56.3672 213.273C56.3672 213.612 56.2812 213.872 56.1094 214.055C55.9375 214.237 55.7031 214.328 55.4062 214.328C55.1406 214.328 54.9193 214.247 54.7422 214.086C54.5703 213.919 54.4844 213.648 54.4844 213.273ZM74.1641 221H66.6562V219.883L69.6641 216.859C70.5807 215.932 71.1849 215.271 71.4766 214.875C71.7682 214.479 71.987 214.094 72.1328 213.719C72.2786 213.344 72.3516 212.94 72.3516 212.508C72.3516 211.898 72.1667 211.417 71.7969 211.062C71.4271 210.703 70.9141 210.523 70.2578 210.523C69.7839 210.523 69.3333 210.602 68.9062 210.758C68.4844 210.914 68.013 211.198 67.4922 211.609L66.8047 210.727C67.8568 209.852 69.0026 209.414 70.2422 209.414C71.3151 209.414 72.1562 209.69 72.7656 210.242C73.375 210.789 73.6797 211.526 73.6797 212.453C73.6797 213.177 73.4766 213.893 73.0703 214.602C72.6641 215.31 71.9036 216.206 70.7891 217.289L68.2891 219.734V219.797H74.1641V221ZM76.2188 220.172C76.2188 219.823 76.2969 219.56 76.4531 219.383C76.6146 219.201 76.8438 219.109 77.1406 219.109C77.4427 219.109 77.6771 219.201 77.8438 219.383C78.0156 219.56 78.1016 219.823 78.1016 220.172C78.1016 220.51 78.0156 220.771 77.8438 220.953C77.6719 221.135 77.4375 221.227 77.1406 221.227C76.875 221.227 76.6536 221.146 76.4766 220.984C76.3047 220.818 76.2188 220.547 76.2188 220.172ZM83.6484 214.023C84.8516 214.023 85.7969 214.323 86.4844 214.922C87.1771 215.516 87.5234 216.331 87.5234 217.367C87.5234 218.549 87.1458 219.477 86.3906 220.148C85.6406 220.82 84.6042 221.156 83.2812 221.156C81.9948 221.156 81.013 220.951 80.3359 220.539V219.289C80.7005 219.523 81.1536 219.708 81.6953 219.844C82.237 219.974 82.7708 220.039 83.2969 220.039C84.2135 220.039 84.9245 219.823 85.4297 219.391C85.9401 218.958 86.1953 218.333 86.1953 217.516C86.1953 215.922 85.2188 215.125 83.2656 215.125C82.7708 215.125 82.1094 215.201 81.2812 215.352L80.6094 214.922L81.0391 209.578H86.7188V210.773H82.1484L81.8594 214.203C82.4583 214.083 83.0547 214.023 83.6484 214.023ZM95.0469 215.016H98.9297V220.57C98.3255 220.763 97.7109 220.909 97.0859 221.008C96.4609 221.107 95.737 221.156 94.9141 221.156C93.1849 221.156 91.8385 220.643 90.875 219.617C89.9115 218.586 89.4297 217.143 89.4297 215.289C89.4297 214.102 89.6667 213.062 90.1406 212.172C90.6198 211.276 91.3073 210.594 92.2031 210.125C93.099 209.651 94.1484 209.414 95.3516 209.414C96.5703 209.414 97.7057 209.638 98.7578 210.086L98.2422 211.258C97.2109 210.82 96.2188 210.602 95.2656 210.602C93.875 210.602 92.7891 211.016 92.0078 211.844C91.2266 212.672 90.8359 213.82 90.8359 215.289C90.8359 216.831 91.2109 218 91.9609 218.797C92.7161 219.594 93.8229 219.992 95.2812 219.992C96.0729 219.992 96.8464 219.901 97.6016 219.719V216.203H95.0469V215.016ZM101.68 209.578H104.906C106.422 209.578 107.518 209.805 108.195 210.258C108.872 210.711 109.211 211.427 109.211 212.406C109.211 213.083 109.021 213.643 108.641 214.086C108.266 214.523 107.716 214.807 106.992 214.938V215.016C108.727 215.312 109.594 216.224 109.594 217.75C109.594 218.771 109.247 219.568 108.555 220.141C107.867 220.714 106.904 221 105.664 221H101.68V209.578ZM103.008 214.469H105.195C106.133 214.469 106.807 214.323 107.219 214.031C107.63 213.734 107.836 213.237 107.836 212.539C107.836 211.898 107.607 211.438 107.148 211.156C106.69 210.87 105.961 210.727 104.961 210.727H103.008V214.469ZM103.008 215.594V219.867H105.391C106.312 219.867 107.005 219.69 107.469 219.336C107.938 218.977 108.172 218.417 108.172 217.656C108.172 216.948 107.932 216.427 107.453 216.094C106.979 215.76 106.255 215.594 105.281 215.594H103.008Z" fill="#303030"/>
<path d="M10.2734 253.156C10.2734 252.526 10.4193 252.047 10.7109 251.719C11.0078 251.391 11.4375 251.227 12 251.227C12.5469 251.227 12.9714 251.388 13.2734 251.711C13.5755 252.034 13.7266 252.516 13.7266 253.156C13.7266 253.776 13.5755 254.255 13.2734 254.594C12.9766 254.927 12.5521 255.094 12 255.094C11.4427 255.094 11.0156 254.924 10.7188 254.586C10.4219 254.242 10.2734 253.766 10.2734 253.156ZM34.6875 253.18C34.6875 255.065 34.1745 256.508 33.1484 257.508C32.1276 258.503 30.6562 259 28.7344 259H25.5703V247.578H29.0703C30.8464 247.578 32.2266 248.07 33.2109 249.055C34.1953 250.039 34.6875 251.414 34.6875 253.18ZM33.2812 253.227C33.2812 251.737 32.9062 250.615 32.1562 249.859C31.4115 249.104 30.3021 248.727 28.8281 248.727H26.8984V257.852H28.5156C30.099 257.852 31.2891 257.464 32.0859 256.688C32.8828 255.906 33.2812 254.753 33.2812 253.227ZM42.3125 259L42.0547 257.781H41.9922C41.5651 258.318 41.138 258.682 40.7109 258.875C40.2891 259.062 39.7604 259.156 39.125 259.156C38.276 259.156 37.6094 258.938 37.125 258.5C36.6458 258.062 36.4062 257.44 36.4062 256.633C36.4062 254.904 37.7891 253.997 40.5547 253.914L42.0078 253.867V253.336C42.0078 252.664 41.862 252.169 41.5703 251.852C41.2839 251.529 40.8229 251.367 40.1875 251.367C39.474 251.367 38.6667 251.586 37.7656 252.023L37.3672 251.031C37.7891 250.802 38.25 250.622 38.75 250.492C39.2552 250.362 39.7604 250.297 40.2656 250.297C41.2865 250.297 42.0417 250.523 42.5312 250.977C43.026 251.43 43.2734 252.156 43.2734 253.156V259H42.3125ZM39.3828 258.086C40.1901 258.086 40.8229 257.865 41.2812 257.422C41.7448 256.979 41.9766 256.359 41.9766 255.562V254.789L40.6797 254.844C39.6484 254.88 38.9036 255.042 38.4453 255.328C37.9922 255.609 37.7656 256.049 37.7656 256.648C37.7656 257.117 37.9062 257.474 38.1875 257.719C38.474 257.964 38.8724 258.086 39.3828 258.086ZM48.7188 258.086C48.9479 258.086 49.1693 258.07 49.3828 258.039C49.5964 258.003 49.7656 257.966 49.8906 257.93V258.922C49.75 258.99 49.5417 259.044 49.2656 259.086C48.9948 259.133 48.75 259.156 48.5312 259.156C46.875 259.156 46.0469 258.284 46.0469 256.539V251.445H44.8203V250.82L46.0469 250.281L46.5938 248.453H47.3438V250.438H49.8281V251.445H47.3438V256.484C47.3438 257 47.4661 257.396 47.7109 257.672C47.9557 257.948 48.2917 258.086 48.7188 258.086ZM56.875 259L56.6172 257.781H56.5547C56.1276 258.318 55.7005 258.682 55.2734 258.875C54.8516 259.062 54.3229 259.156 53.6875 259.156C52.8385 259.156 52.1719 258.938 51.6875 258.5C51.2083 258.062 50.9688 257.44 50.9688 256.633C50.9688 254.904 52.3516 253.997 55.1172 253.914L56.5703 253.867V253.336C56.5703 252.664 56.4245 252.169 56.1328 251.852C55.8464 251.529 55.3854 251.367 54.75 251.367C54.0365 251.367 53.2292 251.586 52.3281 252.023L51.9297 251.031C52.3516 250.802 52.8125 250.622 53.3125 250.492C53.8177 250.362 54.3229 250.297 54.8281 250.297C55.849 250.297 56.6042 250.523 57.0938 250.977C57.5885 251.43 57.8359 252.156 57.8359 253.156V259H56.875ZM53.9453 258.086C54.7526 258.086 55.3854 257.865 55.8438 257.422C56.3073 256.979 56.5391 256.359 56.5391 255.562V254.789L55.2422 254.844C54.2109 254.88 53.4661 255.042 53.0078 255.328C52.5547 255.609 52.3281 256.049 52.3281 256.648C52.3281 257.117 52.4688 257.474 52.75 257.719C53.0365 257.964 53.4349 258.086 53.9453 258.086ZM71.3125 255.961C71.3125 256.966 70.9479 257.75 70.2188 258.312C69.4896 258.875 68.5 259.156 67.25 259.156C65.8958 259.156 64.8542 258.982 64.125 258.633V257.352C64.5938 257.549 65.1042 257.706 65.6562 257.82C66.2083 257.935 66.7552 257.992 67.2969 257.992C68.1823 257.992 68.849 257.826 69.2969 257.492C69.7448 257.154 69.9688 256.685 69.9688 256.086C69.9688 255.69 69.888 255.367 69.7266 255.117C69.5703 254.862 69.3047 254.628 68.9297 254.414C68.5599 254.201 67.9948 253.958 67.2344 253.688C66.1719 253.307 65.4115 252.857 64.9531 252.336C64.5 251.815 64.2734 251.135 64.2734 250.297C64.2734 249.417 64.6042 248.716 65.2656 248.195C65.9271 247.674 66.8021 247.414 67.8906 247.414C69.026 247.414 70.0703 247.622 71.0234 248.039L70.6094 249.195C69.6667 248.799 68.75 248.602 67.8594 248.602C67.1562 248.602 66.6068 248.753 66.2109 249.055C65.8151 249.357 65.6172 249.776 65.6172 250.312C65.6172 250.708 65.6901 251.034 65.8359 251.289C65.9818 251.539 66.2266 251.771 66.5703 251.984C66.9193 252.193 67.4505 252.424 68.1641 252.68C69.362 253.107 70.1849 253.565 70.6328 254.055C71.0859 254.544 71.3125 255.18 71.3125 255.961ZM80.8438 254.711C80.8438 256.107 80.4922 257.198 79.7891 257.984C79.0859 258.766 78.1146 259.156 76.875 259.156C76.1094 259.156 75.4297 258.977 74.8359 258.617C74.2422 258.258 73.7839 257.742 73.4609 257.07C73.138 256.398 72.9766 255.612 72.9766 254.711C72.9766 253.315 73.3255 252.229 74.0234 251.453C74.7214 250.672 75.6901 250.281 76.9297 250.281C78.1276 250.281 79.0781 250.68 79.7812 251.477C80.4896 252.273 80.8438 253.352 80.8438 254.711ZM74.3203 254.711C74.3203 255.805 74.5391 256.638 74.9766 257.211C75.4141 257.784 76.0573 258.07 76.9062 258.07C77.7552 258.07 78.3984 257.786 78.8359 257.219C79.2786 256.646 79.5 255.81 79.5 254.711C79.5 253.622 79.2786 252.797 78.8359 252.234C78.3984 251.667 77.75 251.383 76.8906 251.383C76.0417 251.383 75.401 251.661 74.9688 252.219C74.5365 252.776 74.3203 253.607 74.3203 254.711ZM84.3438 250.438V255.992C84.3438 256.69 84.5026 257.211 84.8203 257.555C85.138 257.898 85.6354 258.07 86.3125 258.07C87.2083 258.07 87.862 257.826 88.2734 257.336C88.6901 256.846 88.8984 256.047 88.8984 254.938V250.438H90.1953V259H89.125L88.9375 257.852H88.8672C88.6016 258.273 88.2318 258.596 87.7578 258.82C87.2891 259.044 86.7526 259.156 86.1484 259.156C85.1068 259.156 84.3255 258.909 83.8047 258.414C83.2891 257.919 83.0312 257.128 83.0312 256.039V250.438H84.3438ZM96.8594 250.281C97.2396 250.281 97.5807 250.312 97.8828 250.375L97.7031 251.578C97.349 251.5 97.0365 251.461 96.7656 251.461C96.0729 251.461 95.4792 251.742 94.9844 252.305C94.4948 252.867 94.25 253.568 94.25 254.406V259H92.9531V250.438H94.0234L94.1719 252.023H94.2344C94.5521 251.466 94.9349 251.036 95.3828 250.734C95.8307 250.432 96.3229 250.281 96.8594 250.281ZM102.906 259.156C101.667 259.156 100.706 258.776 100.023 258.016C99.3464 257.25 99.0078 256.169 99.0078 254.773C99.0078 253.341 99.3516 252.234 100.039 251.453C100.732 250.672 101.716 250.281 102.992 250.281C103.404 250.281 103.815 250.326 104.227 250.414C104.638 250.503 104.961 250.607 105.195 250.727L104.797 251.828C104.51 251.714 104.198 251.62 103.859 251.547C103.521 251.469 103.221 251.43 102.961 251.43C101.221 251.43 100.352 252.539 100.352 254.758C100.352 255.81 100.562 256.617 100.984 257.18C101.411 257.742 102.042 258.023 102.875 258.023C103.589 258.023 104.32 257.87 105.07 257.562V258.711C104.497 259.008 103.776 259.156 102.906 259.156ZM110.727 259.156C109.461 259.156 108.461 258.771 107.727 258C106.997 257.229 106.633 256.159 106.633 254.789C106.633 253.409 106.971 252.312 107.648 251.5C108.331 250.688 109.245 250.281 110.391 250.281C111.464 250.281 112.312 250.635 112.938 251.344C113.562 252.047 113.875 252.977 113.875 254.133V254.953H107.977C108.003 255.958 108.255 256.721 108.734 257.242C109.219 257.763 109.898 258.023 110.773 258.023C111.695 258.023 112.607 257.831 113.508 257.445V258.602C113.049 258.799 112.615 258.94 112.203 259.023C111.797 259.112 111.305 259.156 110.727 259.156ZM110.375 251.367C109.688 251.367 109.138 251.591 108.727 252.039C108.32 252.487 108.081 253.107 108.008 253.898H112.484C112.484 253.081 112.302 252.456 111.938 252.023C111.573 251.586 111.052 251.367 110.375 251.367ZM115.906 258.172C115.906 257.823 115.984 257.56 116.141 257.383C116.302 257.201 116.531 257.109 116.828 257.109C117.13 257.109 117.365 257.201 117.531 257.383C117.703 257.56 117.789 257.823 117.789 258.172C117.789 258.51 117.703 258.771 117.531 258.953C117.359 259.135 117.125 259.227 116.828 259.227C116.562 259.227 116.341 259.146 116.164 258.984C115.992 258.818 115.906 258.547 115.906 258.172ZM115.906 251.273C115.906 250.57 116.214 250.219 116.828 250.219C117.469 250.219 117.789 250.57 117.789 251.273C117.789 251.612 117.703 251.872 117.531 252.055C117.359 252.237 117.125 252.328 116.828 252.328C116.562 252.328 116.341 252.247 116.164 252.086C115.992 251.919 115.906 251.648 115.906 251.273ZM133.828 253.18C133.828 255.065 133.315 256.508 132.289 257.508C131.268 258.503 129.797 259 127.875 259H124.711V247.578H128.211C129.987 247.578 131.367 248.07 132.352 249.055C133.336 250.039 133.828 251.414 133.828 253.18ZM132.422 253.227C132.422 251.737 132.047 250.615 131.297 249.859C130.552 249.104 129.443 248.727 127.969 248.727H126.039V257.852H127.656C129.24 257.852 130.43 257.464 131.227 256.688C132.023 255.906 132.422 254.753 132.422 253.227ZM142.828 255.961C142.828 256.966 142.464 257.75 141.734 258.312C141.005 258.875 140.016 259.156 138.766 259.156C137.411 259.156 136.37 258.982 135.641 258.633V257.352C136.109 257.549 136.62 257.706 137.172 257.82C137.724 257.935 138.271 257.992 138.812 257.992C139.698 257.992 140.365 257.826 140.812 257.492C141.26 257.154 141.484 256.685 141.484 256.086C141.484 255.69 141.404 255.367 141.242 255.117C141.086 254.862 140.82 254.628 140.445 254.414C140.076 254.201 139.51 253.958 138.75 253.688C137.688 253.307 136.927 252.857 136.469 252.336C136.016 251.815 135.789 251.135 135.789 250.297C135.789 249.417 136.12 248.716 136.781 248.195C137.443 247.674 138.318 247.414 139.406 247.414C140.542 247.414 141.586 247.622 142.539 248.039L142.125 249.195C141.182 248.799 140.266 248.602 139.375 248.602C138.672 248.602 138.122 248.753 137.727 249.055C137.331 249.357 137.133 249.776 137.133 250.312C137.133 250.708 137.206 251.034 137.352 251.289C137.497 251.539 137.742 251.771 138.086 251.984C138.435 252.193 138.966 252.424 139.68 252.68C140.878 253.107 141.701 253.565 142.148 254.055C142.602 254.544 142.828 255.18 142.828 255.961ZM150.055 248.602C148.799 248.602 147.807 249.021 147.078 249.859C146.354 250.693 145.992 251.836 145.992 253.289C145.992 254.784 146.341 255.94 147.039 256.758C147.742 257.57 148.742 257.977 150.039 257.977C150.836 257.977 151.745 257.833 152.766 257.547V258.711C151.974 259.008 150.997 259.156 149.836 259.156C148.154 259.156 146.854 258.646 145.938 257.625C145.026 256.604 144.57 255.154 144.57 253.273C144.57 252.096 144.789 251.065 145.227 250.18C145.669 249.294 146.305 248.612 147.133 248.133C147.966 247.654 148.945 247.414 150.07 247.414C151.268 247.414 152.315 247.633 153.211 248.07L152.648 249.211C151.784 248.805 150.919 248.602 150.055 248.602ZM155.258 259V247.578H156.586V259H155.258Z" fill="#303030"/>
<circle cx="65" cy="65" r="65" fill="#24633D"/>
<path d="M47.3529 59.1176C49.7856 59.1176 51.7647 57.1384 51.7647 54.7059C51.7647 54.0223 51.6083 53.3745 51.3296 52.7962L56.2727 47.78C57.0415 48.4303 58.0343 48.8235 59.1176 48.8235C60.3007 48.8235 61.3756 48.3546 62.1686 47.5938L66.6649 51.9399C66.5388 52.3497 66.4706 52.7847 66.4706 53.2353C66.4706 55.6679 68.4496 57.6471 70.8824 57.6471C73.2803 57.6471 75.2361 55.7237 75.2916 53.3389L79.5416 50.4831C80.3394 51.2747 81.437 51.7647 82.6471 51.7647C85.0798 51.7647 87.0588 49.7855 87.0588 47.3529C87.0588 44.9204 85.0798 42.9412 82.6471 42.9412C80.2143 42.9412 78.2353 44.9204 78.2353 47.3529C78.2353 47.5045 78.243 47.6543 78.2579 47.802L74.3064 50.4573C73.4969 49.4614 72.2629 48.8235 70.8824 48.8235C69.9792 48.8235 69.139 49.0968 68.4389 49.5642L63.5112 44.8011C63.5225 44.6726 63.5294 44.543 63.5294 44.4118C63.5294 41.9791 61.5504 40 59.1176 40C56.685 40 54.7059 41.9792 54.7059 44.4118C54.7059 44.6532 54.7262 44.8901 54.7637 45.1212L49.2452 50.7213C48.6714 50.4476 48.0298 50.2941 47.3529 50.2941C44.9203 50.2941 42.9412 52.2733 42.9412 54.7059C42.9412 57.1384 44.9204 59.1176 47.3529 59.1176Z" fill="#F5F5F5"/>
<path d="M85.5882 87.0588V59.1176H79.7059V87.0588H73.8235V63.5294H67.9412V87.0588H62.0588V54.7059H56.1765V87.0588H50.2941V66.4706H44.4117V87.0588H40V90H90V87.0588H85.5882Z" fill="#F5F5F5"/>
<path d="M2.38416 160.3H8.81016C10.3782 160.3 11.7712 160.608 12.9892 161.224C14.2072 161.826 15.1522 162.687 15.8242 163.807C16.4962 164.913 16.8322 166.194 16.8322 167.65C16.8322 169.106 16.4962 170.394 15.8242 171.514C15.1522 172.62 14.2072 173.481 12.9892 174.097C11.7712 174.699 10.3782 175 8.81016 175H2.38416V160.3ZM8.68416 172.69C9.76216 172.69 10.7072 172.487 11.5192 172.081C12.3452 171.661 12.9752 171.073 13.4092 170.317C13.8572 169.547 14.0812 168.658 14.0812 167.65C14.0812 166.642 13.8572 165.76 13.4092 165.004C12.9752 164.234 12.3452 163.646 11.5192 163.24C10.7072 162.82 9.76216 162.61 8.68416 162.61H5.11416V172.69H8.68416ZM23.7658 163.66C25.4178 163.66 26.6778 164.059 27.5458 164.857C28.4278 165.641 28.8688 166.831 28.8688 168.427V175H26.3908V173.635C26.0688 174.125 25.6068 174.503 25.0048 174.769C24.4168 175.021 23.7028 175.147 22.8628 175.147C22.0228 175.147 21.2878 175.007 20.6578 174.727C20.0278 174.433 19.5378 174.034 19.1878 173.53C18.8518 173.012 18.6838 172.431 18.6838 171.787C18.6838 170.779 19.0548 169.974 19.7968 169.372C20.5528 168.756 21.7358 168.448 23.3458 168.448H26.2438V168.28C26.2438 167.496 26.0058 166.894 25.5298 166.474C25.0678 166.054 24.3748 165.844 23.4508 165.844C22.8208 165.844 22.1978 165.942 21.5818 166.138C20.9798 166.334 20.4688 166.607 20.0488 166.957L19.0198 165.046C19.6078 164.598 20.3148 164.255 21.1408 164.017C21.9668 163.779 22.8418 163.66 23.7658 163.66ZM23.4088 173.236C24.0668 173.236 24.6478 173.089 25.1518 172.795C25.6698 172.487 26.0338 172.053 26.2438 171.493V170.191H23.5348C22.0228 170.191 21.2668 170.688 21.2668 171.682C21.2668 172.158 21.4558 172.536 21.8338 172.816C22.2118 173.096 22.7368 173.236 23.4088 173.236ZM38.9786 174.391C38.6706 174.643 38.2926 174.832 37.8446 174.958C37.4106 175.084 36.9486 175.147 36.4586 175.147C35.2266 175.147 34.2746 174.825 33.6026 174.181C32.9306 173.537 32.5946 172.599 32.5946 171.367V165.97H30.7466V163.87H32.5946V161.308H35.2196V163.87H38.2226V165.97H35.2196V171.304C35.2196 171.85 35.3526 172.27 35.6186 172.564C35.8846 172.844 36.2696 172.984 36.7736 172.984C37.3616 172.984 37.8516 172.83 38.2436 172.522L38.9786 174.391ZM45.422 163.66C47.074 163.66 48.334 164.059 49.202 164.857C50.084 165.641 50.525 166.831 50.525 168.427V175H48.047V173.635C47.725 174.125 47.263 174.503 46.661 174.769C46.073 175.021 45.359 175.147 44.519 175.147C43.679 175.147 42.944 175.007 42.314 174.727C41.684 174.433 41.194 174.034 40.844 173.53C40.508 173.012 40.34 172.431 40.34 171.787C40.34 170.779 40.711 169.974 41.453 169.372C42.209 168.756 43.392 168.448 45.002 168.448H47.9V168.28C47.9 167.496 47.662 166.894 47.186 166.474C46.724 166.054 46.031 165.844 45.107 165.844C44.477 165.844 43.854 165.942 43.238 166.138C42.636 166.334 42.125 166.607 41.705 166.957L40.676 165.046C41.264 164.598 41.971 164.255 42.797 164.017C43.623 163.779 44.498 163.66 45.422 163.66ZM45.065 173.236C45.723 173.236 46.304 173.089 46.808 172.795C47.326 172.487 47.69 172.053 47.9 171.493V170.191H45.191C43.679 170.191 42.923 170.688 42.923 171.682C42.923 172.158 43.112 172.536 43.49 172.816C43.868 173.096 44.393 173.236 45.065 173.236ZM69.4836 171.598H62.1336L60.6846 175H57.8706L64.4856 160.3H67.1736L73.8096 175H70.9536L69.4836 171.598ZM68.5806 169.456L65.8086 163.03L63.0576 169.456H68.5806ZM81.7901 163.66C83.2041 163.66 84.3381 164.073 85.1921 164.899C86.0461 165.725 86.4731 166.95 86.4731 168.574V175H83.8481V168.91C83.8481 167.93 83.6171 167.195 83.1551 166.705C82.6931 166.201 82.0351 165.949 81.1811 165.949C80.2151 165.949 79.4521 166.243 78.8921 166.831C78.3321 167.405 78.0521 168.238 78.0521 169.33V175H75.4271V163.786H77.9261V165.235C78.3601 164.717 78.9061 164.325 79.5641 164.059C80.2221 163.793 80.9641 163.66 81.7901 163.66ZM94.0871 163.66C95.7391 163.66 96.9991 164.059 97.8671 164.857C98.7491 165.641 99.1901 166.831 99.1901 168.427V175H96.7121V173.635C96.3901 174.125 95.9281 174.503 95.3261 174.769C94.7381 175.021 94.0241 175.147 93.1841 175.147C92.3441 175.147 91.6091 175.007 90.9791 174.727C90.3491 174.433 89.8591 174.034 89.5091 173.53C89.1731 173.012 89.0051 172.431 89.0051 171.787C89.0051 170.779 89.3761 169.974 90.1181 169.372C90.8741 168.756 92.0571 168.448 93.6671 168.448H96.5651V168.28C96.5651 167.496 96.3271 166.894 95.8511 166.474C95.3891 166.054 94.6961 165.844 93.7721 165.844C93.1421 165.844 92.5191 165.942 91.9031 166.138C91.3011 166.334 90.7901 166.607 90.3701 166.957L89.3411 165.046C89.9291 164.598 90.6361 164.255 91.4621 164.017C92.2881 163.779 93.1631 163.66 94.0871 163.66ZM93.7301 173.236C94.3881 173.236 94.9691 173.089 95.4731 172.795C95.9911 172.487 96.3551 172.053 96.5651 171.493V170.191H93.8561C92.3441 170.191 91.5881 170.688 91.5881 171.682C91.5881 172.158 91.7771 172.536 92.1551 172.816C92.5331 173.096 93.0581 173.236 93.7301 173.236ZM102.559 159.418H105.184V175H102.559V159.418ZM119.129 163.786L113.879 175.903C113.389 177.121 112.794 177.975 112.094 178.465C111.394 178.969 110.547 179.221 109.553 179.221C108.993 179.221 108.44 179.13 107.894 178.948C107.348 178.766 106.9 178.514 106.55 178.192L107.6 176.26C107.852 176.498 108.146 176.687 108.482 176.827C108.832 176.967 109.182 177.037 109.532 177.037C109.994 177.037 110.372 176.918 110.666 176.68C110.974 176.442 111.254 176.043 111.506 175.483L111.695 175.042L106.802 163.786H109.532L113.06 172.081L116.609 163.786H119.129ZM124.091 175.147C123.181 175.147 122.292 175.028 121.424 174.79C120.556 174.552 119.863 174.251 119.345 173.887L120.353 171.892C120.857 172.228 121.459 172.501 122.159 172.711C122.873 172.907 123.573 173.005 124.259 173.005C125.827 173.005 126.611 172.592 126.611 171.766C126.611 171.374 126.408 171.101 126.002 170.947C125.61 170.793 124.973 170.646 124.091 170.506C123.167 170.366 122.411 170.205 121.823 170.023C121.249 169.841 120.745 169.526 120.311 169.078C119.891 168.616 119.681 167.979 119.681 167.167C119.681 166.103 120.122 165.256 121.004 164.626C121.9 163.982 123.104 163.66 124.616 163.66C125.386 163.66 126.156 163.751 126.926 163.933C127.696 164.101 128.326 164.332 128.816 164.626L127.808 166.621C126.856 166.061 125.785 165.781 124.595 165.781C123.825 165.781 123.237 165.9 122.831 166.138C122.439 166.362 122.243 166.663 122.243 167.041C122.243 167.461 122.453 167.762 122.873 167.944C123.307 168.112 123.972 168.273 124.868 168.427C125.764 168.567 126.499 168.728 127.073 168.91C127.647 169.092 128.137 169.4 128.543 169.834C128.963 170.268 129.173 170.884 129.173 171.682C129.173 172.732 128.718 173.572 127.808 174.202C126.898 174.832 125.659 175.147 124.091 175.147ZM131.434 163.786H134.059V175H131.434V163.786ZM132.757 161.938C132.281 161.938 131.882 161.791 131.56 161.497C131.238 161.189 131.077 160.811 131.077 160.363C131.077 159.915 131.238 159.544 131.56 159.25C131.882 158.942 132.281 158.788 132.757 158.788C133.233 158.788 133.632 158.935 133.954 159.229C134.276 159.509 134.437 159.866 134.437 160.3C134.437 160.762 134.276 161.154 133.954 161.476C133.646 161.784 133.247 161.938 132.757 161.938ZM140.969 175.147C140.059 175.147 139.17 175.028 138.302 174.79C137.434 174.552 136.741 174.251 136.223 173.887L137.231 171.892C137.735 172.228 138.337 172.501 139.037 172.711C139.751 172.907 140.451 173.005 141.137 173.005C142.705 173.005 143.489 172.592 143.489 171.766C143.489 171.374 143.286 171.101 142.88 170.947C142.488 170.793 141.851 170.646 140.969 170.506C140.045 170.366 139.289 170.205 138.701 170.023C138.127 169.841 137.623 169.526 137.189 169.078C136.769 168.616 136.559 167.979 136.559 167.167C136.559 166.103 137 165.256 137.882 164.626C138.778 163.982 139.982 163.66 141.494 163.66C142.264 163.66 143.034 163.751 143.804 163.933C144.574 164.101 145.204 164.332 145.694 164.626L144.686 166.621C143.734 166.061 142.663 165.781 141.473 165.781C140.703 165.781 140.115 165.9 139.709 166.138C139.317 166.362 139.121 166.663 139.121 167.041C139.121 167.461 139.331 167.762 139.751 167.944C140.185 168.112 140.85 168.273 141.746 168.427C142.642 168.567 143.377 168.728 143.951 168.91C144.525 169.092 145.015 169.4 145.421 169.834C145.841 170.268 146.051 170.884 146.051 171.682C146.051 172.732 145.596 173.572 144.686 174.202C143.776 174.832 142.537 175.147 140.969 175.147Z" fill="#303030"/>
</svg>
