<svg width="227" height="308" viewBox="0 0 227 308" fill="none" xmlns="http://www.w3.org/2000/svg">
<path d="M2.14441 160.3H8.57041C10.1384 160.3 11.5314 160.608 12.7494 161.224C13.9674 161.826 14.9124 162.687 15.5844 163.807C16.2564 164.913 16.5924 166.194 16.5924 167.65C16.5924 169.106 16.2564 170.394 15.5844 171.514C14.9124 172.62 13.9674 173.481 12.7494 174.097C11.5314 174.699 10.1384 175 8.57041 175H2.14441V160.3ZM8.44441 172.69C9.52241 172.69 10.4674 172.487 11.2794 172.081C12.1054 171.661 12.7354 171.073 13.1694 170.317C13.6174 169.547 13.8414 168.658 13.8414 167.65C13.8414 166.642 13.6174 165.76 13.1694 165.004C12.7354 164.234 12.1054 163.646 11.2794 163.24C10.4674 162.82 9.52241 162.61 8.44441 162.61H4.87441V172.69H8.44441ZM29.784 169.456C29.784 169.638 29.77 169.897 29.742 170.233H20.943C21.097 171.059 21.496 171.717 22.14 172.207C22.798 172.683 23.61 172.921 24.576 172.921C25.808 172.921 26.823 172.515 27.621 171.703L29.028 173.32C28.524 173.922 27.887 174.377 27.117 174.685C26.347 174.993 25.479 175.147 24.513 175.147C23.281 175.147 22.196 174.902 21.258 174.412C20.32 173.922 19.592 173.243 19.074 172.375C18.57 171.493 18.318 170.499 18.318 169.393C18.318 168.301 18.563 167.321 19.053 166.453C19.557 165.571 20.25 164.885 21.132 164.395C22.014 163.905 23.008 163.66 24.114 163.66C25.206 163.66 26.179 163.905 27.033 164.395C27.901 164.871 28.573 165.55 29.049 166.432C29.539 167.3 29.784 168.308 29.784 169.456ZM24.114 165.76C23.274 165.76 22.56 166.012 21.972 166.516C21.398 167.006 21.048 167.664 20.922 168.49H27.285C27.173 167.678 26.83 167.02 26.256 166.516C25.682 166.012 24.968 165.76 24.114 165.76ZM36.8625 161.392C35.7565 161.392 35.2035 161.994 35.2035 163.198V163.87H38.2905V165.97H35.2875V175H32.6625V165.97H30.8145V163.87H32.6625V163.156C32.6625 161.952 33.0125 161.007 33.7125 160.321C34.4125 159.621 35.3995 159.271 36.6735 159.271C37.6815 159.271 38.4725 159.474 39.0465 159.88L38.3115 161.854C37.8635 161.546 37.3805 161.392 36.8625 161.392ZM44.1364 163.66C45.7884 163.66 47.0484 164.059 47.9164 164.857C48.7984 165.641 49.2394 166.831 49.2394 168.427V175H46.7614V173.635C46.4394 174.125 45.9774 174.503 45.3754 174.769C44.7874 175.021 44.0734 175.147 43.2334 175.147C42.3934 175.147 41.6584 175.007 41.0284 174.727C40.3984 174.433 39.9084 174.034 39.5584 173.53C39.2224 173.012 39.0544 172.431 39.0544 171.787C39.0544 170.779 39.4254 169.974 40.1674 169.372C40.9234 168.756 42.1064 168.448 43.7164 168.448H46.6144V168.28C46.6144 167.496 46.3764 166.894 45.9004 166.474C45.4384 166.054 44.7454 165.844 43.8214 165.844C43.1914 165.844 42.5684 165.942 41.9524 166.138C41.3504 166.334 40.8394 166.607 40.4194 166.957L39.3904 165.046C39.9784 164.598 40.6854 164.255 41.5114 164.017C42.3374 163.779 43.2124 163.66 44.1364 163.66ZM43.7794 173.236C44.4374 173.236 45.0184 173.089 45.5224 172.795C46.0404 172.487 46.4044 172.053 46.6144 171.493V170.191H43.9054C42.3934 170.191 41.6374 170.688 41.6374 171.682C41.6374 172.158 41.8264 172.536 42.2044 172.816C42.5824 173.096 43.1074 173.236 43.7794 173.236ZM63.4652 163.786V175H60.9662V173.572C60.5462 174.076 60.0212 174.468 59.3912 174.748C58.7612 175.014 58.0822 175.147 57.3542 175.147C55.8562 175.147 54.6732 174.734 53.8052 173.908C52.9512 173.068 52.5242 171.829 52.5242 170.191V163.786H55.1492V169.834C55.1492 170.842 55.3732 171.598 55.8212 172.102C56.2832 172.592 56.9342 172.837 57.7742 172.837C58.7122 172.837 59.4542 172.55 60.0002 171.976C60.5602 171.388 60.8402 170.548 60.8402 169.456V163.786H63.4652ZM66.9022 159.418H69.5272V175H66.9022V159.418ZM80.2672 174.391C79.9592 174.643 79.5812 174.832 79.1332 174.958C78.6992 175.084 78.2372 175.147 77.7472 175.147C76.5152 175.147 75.5632 174.825 74.8912 174.181C74.2192 173.537 73.8832 172.599 73.8832 171.367V165.97H72.0352V163.87H73.8832V161.308H76.5082V163.87H79.5112V165.97H76.5082V171.304C76.5082 171.85 76.6412 172.27 76.9072 172.564C77.1732 172.844 77.5582 172.984 78.0622 172.984C78.6502 172.984 79.1402 172.83 79.5322 172.522L80.2672 174.391ZM94.5303 160.3C95.8043 160.3 96.9103 160.51 97.8483 160.93C98.8003 161.35 99.5283 161.952 100.032 162.736C100.536 163.52 100.788 164.451 100.788 165.529C100.788 166.593 100.536 167.524 100.032 168.322C99.5283 169.106 98.8003 169.708 97.8483 170.128C96.9103 170.548 95.8043 170.758 94.5303 170.758H91.2123V175H88.4823V160.3H94.5303ZM94.4043 168.448C95.5943 168.448 96.4973 168.196 97.1133 167.692C97.7293 167.188 98.0373 166.467 98.0373 165.529C98.0373 164.591 97.7293 163.87 97.1133 163.366C96.4973 162.862 95.5943 162.61 94.4043 162.61H91.2123V168.448H94.4043ZM105.659 165.424C106.415 164.248 107.745 163.66 109.649 163.66V166.159C109.425 166.117 109.222 166.096 109.04 166.096C108.018 166.096 107.22 166.397 106.646 166.999C106.072 167.587 105.785 168.441 105.785 169.561V175H103.16V163.786H105.659V165.424ZM122.315 169.456C122.315 169.638 122.301 169.897 122.273 170.233H113.474C113.628 171.059 114.027 171.717 114.671 172.207C115.329 172.683 116.141 172.921 117.107 172.921C118.339 172.921 119.354 172.515 120.152 171.703L121.559 173.32C121.055 173.922 120.418 174.377 119.648 174.685C118.878 174.993 118.01 175.147 117.044 175.147C115.812 175.147 114.727 174.902 113.789 174.412C112.851 173.922 112.123 173.243 111.605 172.375C111.101 171.493 110.849 170.499 110.849 169.393C110.849 168.301 111.094 167.321 111.584 166.453C112.088 165.571 112.781 164.885 113.663 164.395C114.545 163.905 115.539 163.66 116.645 163.66C117.737 163.66 118.71 163.905 119.564 164.395C120.432 164.871 121.104 165.55 121.58 166.432C122.07 167.3 122.315 168.308 122.315 169.456ZM116.645 165.76C115.805 165.76 115.091 166.012 114.503 166.516C113.929 167.006 113.579 167.664 113.453 168.49H119.816C119.704 167.678 119.361 167.02 118.787 166.516C118.213 166.012 117.499 165.76 116.645 165.76ZM135.82 159.418V175H133.3V173.551C132.866 174.083 132.327 174.482 131.683 174.748C131.053 175.014 130.353 175.147 129.583 175.147C128.505 175.147 127.532 174.909 126.664 174.433C125.81 173.957 125.138 173.285 124.648 172.417C124.158 171.535 123.913 170.527 123.913 169.393C123.913 168.259 124.158 167.258 124.648 166.39C125.138 165.522 125.81 164.85 126.664 164.374C127.532 163.898 128.505 163.66 129.583 163.66C130.325 163.66 131.004 163.786 131.62 164.038C132.236 164.29 132.761 164.668 133.195 165.172V159.418H135.82ZM129.898 172.9C130.528 172.9 131.095 172.76 131.599 172.48C132.103 172.186 132.502 171.773 132.796 171.241C133.09 170.709 133.237 170.093 133.237 169.393C133.237 168.693 133.09 168.077 132.796 167.545C132.502 167.013 132.103 166.607 131.599 166.327C131.095 166.033 130.528 165.886 129.898 165.886C129.268 165.886 128.701 166.033 128.197 166.327C127.693 166.607 127.294 167.013 127 167.545C126.706 168.077 126.559 168.693 126.559 169.393C126.559 170.093 126.706 170.709 127 171.241C127.294 171.773 127.693 172.186 128.197 172.48C128.701 172.76 129.268 172.9 129.898 172.9ZM139.254 163.786H141.879V175H139.254V163.786ZM140.577 161.938C140.101 161.938 139.702 161.791 139.38 161.497C139.058 161.189 138.897 160.811 138.897 160.363C138.897 159.915 139.058 159.544 139.38 159.25C139.702 158.942 140.101 158.788 140.577 158.788C141.053 158.788 141.452 158.935 141.774 159.229C142.096 159.509 142.257 159.866 142.257 160.3C142.257 160.762 142.096 161.154 141.774 161.476C141.466 161.784 141.067 161.938 140.577 161.938ZM150.469 175.147C149.307 175.147 148.264 174.902 147.34 174.412C146.416 173.922 145.695 173.243 145.177 172.375C144.659 171.493 144.4 170.499 144.4 169.393C144.4 168.287 144.659 167.3 145.177 166.432C145.695 165.564 146.409 164.885 147.319 164.395C148.243 163.905 149.293 163.66 150.469 163.66C151.575 163.66 152.541 163.884 153.367 164.332C154.207 164.78 154.837 165.424 155.257 166.264L153.241 167.44C152.919 166.922 152.513 166.537 152.023 166.285C151.547 166.019 151.022 165.886 150.448 165.886C149.468 165.886 148.656 166.208 148.012 166.852C147.368 167.482 147.046 168.329 147.046 169.393C147.046 170.457 147.361 171.311 147.991 171.955C148.635 172.585 149.454 172.9 150.448 172.9C151.022 172.9 151.547 172.774 152.023 172.522C152.513 172.256 152.919 171.864 153.241 171.346L155.257 172.522C154.823 173.362 154.186 174.013 153.346 174.475C152.52 174.923 151.561 175.147 150.469 175.147ZM164.411 174.391C164.103 174.643 163.725 174.832 163.277 174.958C162.843 175.084 162.381 175.147 161.891 175.147C160.659 175.147 159.707 174.825 159.035 174.181C158.363 173.537 158.027 172.599 158.027 171.367V165.97H156.179V163.87H158.027V161.308H160.652V163.87H163.655V165.97H160.652V171.304C160.652 171.85 160.785 172.27 161.051 172.564C161.317 172.844 161.702 172.984 162.206 172.984C162.794 172.984 163.284 172.83 163.676 172.522L164.411 174.391ZM166.57 163.786H169.195V175H166.57V163.786ZM167.893 161.938C167.417 161.938 167.018 161.791 166.696 161.497C166.374 161.189 166.213 160.811 166.213 160.363C166.213 159.915 166.374 159.544 166.696 159.25C167.018 158.942 167.417 158.788 167.893 158.788C168.369 158.788 168.768 158.935 169.09 159.229C169.412 159.509 169.573 159.866 169.573 160.3C169.573 160.762 169.412 161.154 169.09 161.476C168.782 161.784 168.383 161.938 167.893 161.938ZM177.68 175.147C176.546 175.147 175.524 174.902 174.614 174.412C173.704 173.922 172.99 173.243 172.472 172.375C171.968 171.493 171.716 170.499 171.716 169.393C171.716 168.287 171.968 167.3 172.472 166.432C172.99 165.564 173.704 164.885 174.614 164.395C175.524 163.905 176.546 163.66 177.68 163.66C178.828 163.66 179.857 163.905 180.767 164.395C181.677 164.885 182.384 165.564 182.888 166.432C183.406 167.3 183.665 168.287 183.665 169.393C183.665 170.499 183.406 171.493 182.888 172.375C182.384 173.243 181.677 173.922 180.767 174.412C179.857 174.902 178.828 175.147 177.68 175.147ZM177.68 172.9C178.646 172.9 179.444 172.578 180.074 171.934C180.704 171.29 181.019 170.443 181.019 169.393C181.019 168.343 180.704 167.496 180.074 166.852C179.444 166.208 178.646 165.886 177.68 165.886C176.714 165.886 175.916 166.208 175.286 166.852C174.67 167.496 174.362 168.343 174.362 169.393C174.362 170.443 174.67 171.29 175.286 171.934C175.916 172.578 176.714 172.9 177.68 172.9ZM192.539 163.66C193.953 163.66 195.087 164.073 195.941 164.899C196.795 165.725 197.222 166.95 197.222 168.574V175H194.597V168.91C194.597 167.93 194.366 167.195 193.904 166.705C193.442 166.201 192.784 165.949 191.93 165.949C190.964 165.949 190.201 166.243 189.641 166.831C189.081 167.405 188.801 168.238 188.801 169.33V175H186.176V163.786H188.675V165.235C189.109 164.717 189.655 164.325 190.313 164.059C190.971 163.793 191.713 163.66 192.539 163.66Z" fill="#303030"/>
<path d="M10.2734 215.156C10.2734 214.526 10.4193 214.047 10.7109 213.719C11.0078 213.391 11.4375 213.227 12 213.227C12.5469 213.227 12.9714 213.388 13.2734 213.711C13.5755 214.034 13.7266 214.516 13.7266 215.156C13.7266 215.776 13.5755 216.255 13.2734 216.594C12.9766 216.927 12.5521 217.094 12 217.094C11.4427 217.094 11.0156 216.924 10.7188 216.586C10.4219 216.242 10.2734 215.766 10.2734 215.156ZM30.5938 215.016H34.4766V220.57C33.8724 220.763 33.2578 220.909 32.6328 221.008C32.0078 221.107 31.2839 221.156 30.4609 221.156C28.7318 221.156 27.3854 220.643 26.4219 219.617C25.4583 218.586 24.9766 217.143 24.9766 215.289C24.9766 214.102 25.2135 213.062 25.6875 212.172C26.1667 211.276 26.8542 210.594 27.75 210.125C28.6458 209.651 29.6953 209.414 30.8984 209.414C32.1172 209.414 33.2526 209.638 34.3047 210.086L33.7891 211.258C32.7578 210.82 31.7656 210.602 30.8125 210.602C29.4219 210.602 28.3359 211.016 27.5547 211.844C26.7734 212.672 26.3828 213.82 26.3828 215.289C26.3828 216.831 26.7578 218 27.5078 218.797C28.263 219.594 29.3698 219.992 30.8281 219.992C31.6198 219.992 32.3932 219.901 33.1484 219.719V216.203H30.5938V215.016ZM40.6484 221.156C39.3828 221.156 38.3828 220.771 37.6484 220C36.9193 219.229 36.5547 218.159 36.5547 216.789C36.5547 215.409 36.8932 214.312 37.5703 213.5C38.2526 212.688 39.1667 212.281 40.3125 212.281C41.3854 212.281 42.2344 212.635 42.8594 213.344C43.4844 214.047 43.7969 214.977 43.7969 216.133V216.953H37.8984C37.9245 217.958 38.1771 218.721 38.6562 219.242C39.1406 219.763 39.8203 220.023 40.6953 220.023C41.6172 220.023 42.5286 219.831 43.4297 219.445V220.602C42.9714 220.799 42.5365 220.94 42.125 221.023C41.7188 221.112 41.2266 221.156 40.6484 221.156ZM40.2969 213.367C39.6094 213.367 39.0599 213.591 38.6484 214.039C38.2422 214.487 38.0026 215.107 37.9297 215.898H42.4062C42.4062 215.081 42.224 214.456 41.8594 214.023C41.4948 213.586 40.974 213.367 40.2969 213.367ZM48.7812 220.086C49.0104 220.086 49.2318 220.07 49.4453 220.039C49.6589 220.003 49.8281 219.966 49.9531 219.93V220.922C49.8125 220.99 49.6042 221.044 49.3281 221.086C49.0573 221.133 48.8125 221.156 48.5938 221.156C46.9375 221.156 46.1094 220.284 46.1094 218.539V213.445H44.8828V212.82L46.1094 212.281L46.6562 210.453H47.4062V212.438H49.8906V213.445H47.4062V218.484C47.4062 219 47.5286 219.396 47.7734 219.672C48.0182 219.948 48.3542 220.086 48.7812 220.086ZM59.25 221.156C58.0104 221.156 57.0495 220.776 56.3672 220.016C55.6901 219.25 55.3516 218.169 55.3516 216.773C55.3516 215.341 55.6953 214.234 56.3828 213.453C57.0755 212.672 58.0599 212.281 59.3359 212.281C59.7474 212.281 60.1589 212.326 60.5703 212.414C60.9818 212.503 61.3047 212.607 61.5391 212.727L61.1406 213.828C60.8542 213.714 60.5417 213.62 60.2031 213.547C59.8646 213.469 59.5651 213.43 59.3047 213.43C57.5651 213.43 56.6953 214.539 56.6953 216.758C56.6953 217.81 56.9062 218.617 57.3281 219.18C57.7552 219.742 58.3854 220.023 59.2188 220.023C59.9323 220.023 60.6641 219.87 61.4141 219.562V220.711C60.8411 221.008 60.1198 221.156 59.25 221.156ZM64.6719 212.438V217.992C64.6719 218.69 64.8307 219.211 65.1484 219.555C65.4661 219.898 65.9635 220.07 66.6406 220.07C67.5365 220.07 68.1901 219.826 68.6016 219.336C69.0182 218.846 69.2266 218.047 69.2266 216.938V212.438H70.5234V221H69.4531L69.2656 219.852H69.1953C68.9297 220.273 68.5599 220.596 68.0859 220.82C67.6172 221.044 67.0807 221.156 66.4766 221.156C65.4349 221.156 64.6536 220.909 64.1328 220.414C63.6172 219.919 63.3594 219.128 63.3594 218.039V212.438H64.6719ZM78.8047 218.664C78.8047 219.461 78.5078 220.076 77.9141 220.508C77.3203 220.94 76.487 221.156 75.4141 221.156C74.2786 221.156 73.3932 220.977 72.7578 220.617V219.414C73.1693 219.622 73.6094 219.786 74.0781 219.906C74.5521 220.026 75.0078 220.086 75.4453 220.086C76.1224 220.086 76.6432 219.979 77.0078 219.766C77.3724 219.547 77.5547 219.216 77.5547 218.773C77.5547 218.44 77.4089 218.156 77.1172 217.922C76.8307 217.682 76.2682 217.401 75.4297 217.078C74.6328 216.781 74.0651 216.523 73.7266 216.305C73.3932 216.081 73.1432 215.828 72.9766 215.547C72.8151 215.266 72.7344 214.93 72.7344 214.539C72.7344 213.841 73.0182 213.292 73.5859 212.891C74.1536 212.484 74.9323 212.281 75.9219 212.281C76.8438 212.281 77.7448 212.469 78.625 212.844L78.1641 213.898C77.3047 213.544 76.526 213.367 75.8281 213.367C75.2135 213.367 74.75 213.464 74.4375 213.656C74.125 213.849 73.9688 214.115 73.9688 214.453C73.9688 214.682 74.026 214.878 74.1406 215.039C74.2604 215.201 74.4505 215.354 74.7109 215.5C74.9714 215.646 75.4714 215.857 76.2109 216.133C77.2266 216.503 77.9115 216.875 78.2656 217.25C78.625 217.625 78.8047 218.096 78.8047 218.664ZM83.6875 220.086C83.9167 220.086 84.138 220.07 84.3516 220.039C84.5651 220.003 84.7344 219.966 84.8594 219.93V220.922C84.7188 220.99 84.5104 221.044 84.2344 221.086C83.9635 221.133 83.7188 221.156 83.5 221.156C81.8438 221.156 81.0156 220.284 81.0156 218.539V213.445H79.7891V212.82L81.0156 212.281L81.5625 210.453H82.3125V212.438H84.7969V213.445H82.3125V218.484C82.3125 219 82.4349 219.396 82.6797 219.672C82.9245 219.948 83.2604 220.086 83.6875 220.086ZM93.9688 216.711C93.9688 218.107 93.6172 219.198 92.9141 219.984C92.2109 220.766 91.2396 221.156 90 221.156C89.2344 221.156 88.5547 220.977 87.9609 220.617C87.3672 220.258 86.9089 219.742 86.5859 219.07C86.263 218.398 86.1016 217.612 86.1016 216.711C86.1016 215.315 86.4505 214.229 87.1484 213.453C87.8464 212.672 88.8151 212.281 90.0547 212.281C91.2526 212.281 92.2031 212.68 92.9062 213.477C93.6146 214.273 93.9688 215.352 93.9688 216.711ZM87.4453 216.711C87.4453 217.805 87.6641 218.638 88.1016 219.211C88.5391 219.784 89.1823 220.07 90.0312 220.07C90.8802 220.07 91.5234 219.786 91.9609 219.219C92.4036 218.646 92.625 217.81 92.625 216.711C92.625 215.622 92.4036 214.797 91.9609 214.234C91.5234 213.667 90.875 213.383 90.0156 213.383C89.1667 213.383 88.526 213.661 88.0938 214.219C87.6615 214.776 87.4453 215.607 87.4453 216.711ZM107.164 221V215.43C107.164 214.747 107.018 214.237 106.727 213.898C106.435 213.555 105.982 213.383 105.367 213.383C104.56 213.383 103.964 213.615 103.578 214.078C103.193 214.542 103 215.255 103 216.219V221H101.703V215.43C101.703 214.747 101.557 214.237 101.266 213.898C100.974 213.555 100.518 213.383 99.8984 213.383C99.0859 213.383 98.4896 213.628 98.1094 214.117C97.7344 214.602 97.5469 215.398 97.5469 216.508V221H96.25V212.438H97.3047L97.5156 213.609H97.5781C97.8229 213.193 98.1667 212.867 98.6094 212.633C99.0573 212.398 99.5573 212.281 100.109 212.281C101.448 212.281 102.323 212.766 102.734 213.734H102.797C103.052 213.286 103.422 212.932 103.906 212.672C104.391 212.411 104.943 212.281 105.562 212.281C106.531 212.281 107.255 212.531 107.734 213.031C108.219 213.526 108.461 214.32 108.461 215.414V221H107.164ZM114.758 221.156C113.492 221.156 112.492 220.771 111.758 220C111.029 219.229 110.664 218.159 110.664 216.789C110.664 215.409 111.003 214.312 111.68 213.5C112.362 212.688 113.276 212.281 114.422 212.281C115.495 212.281 116.344 212.635 116.969 213.344C117.594 214.047 117.906 214.977 117.906 216.133V216.953H112.008C112.034 217.958 112.286 218.721 112.766 219.242C113.25 219.763 113.93 220.023 114.805 220.023C115.727 220.023 116.638 219.831 117.539 219.445V220.602C117.081 220.799 116.646 220.94 116.234 221.023C115.828 221.112 115.336 221.156 114.758 221.156ZM114.406 213.367C113.719 213.367 113.169 213.591 112.758 214.039C112.352 214.487 112.112 215.107 112.039 215.898H116.516C116.516 215.081 116.333 214.456 115.969 214.023C115.604 213.586 115.083 213.367 114.406 213.367ZM124.031 212.281C124.411 212.281 124.753 212.312 125.055 212.375L124.875 213.578C124.521 213.5 124.208 213.461 123.938 213.461C123.245 213.461 122.651 213.742 122.156 214.305C121.667 214.867 121.422 215.568 121.422 216.406V221H120.125V212.438H121.195L121.344 214.023H121.406C121.724 213.466 122.107 213.036 122.555 212.734C123.003 212.432 123.495 212.281 124.031 212.281ZM136.641 219.852H136.57C135.971 220.721 135.076 221.156 133.883 221.156C132.763 221.156 131.891 220.773 131.266 220.008C130.646 219.242 130.336 218.154 130.336 216.742C130.336 215.331 130.648 214.234 131.273 213.453C131.898 212.672 132.768 212.281 133.883 212.281C135.044 212.281 135.935 212.703 136.555 213.547H136.656L136.602 212.93L136.57 212.328V208.844H137.867V221H136.812L136.641 219.852ZM134.047 220.07C134.932 220.07 135.573 219.831 135.969 219.352C136.37 218.867 136.57 218.089 136.57 217.016V216.742C136.57 215.529 136.367 214.664 135.961 214.148C135.56 213.628 134.917 213.367 134.031 213.367C133.271 213.367 132.688 213.664 132.281 214.258C131.88 214.846 131.68 215.68 131.68 216.758C131.68 217.852 131.88 218.677 132.281 219.234C132.682 219.792 133.271 220.07 134.047 220.07ZM144.242 221.156C142.977 221.156 141.977 220.771 141.242 220C140.513 219.229 140.148 218.159 140.148 216.789C140.148 215.409 140.487 214.312 141.164 213.5C141.846 212.688 142.76 212.281 143.906 212.281C144.979 212.281 145.828 212.635 146.453 213.344C147.078 214.047 147.391 214.977 147.391 216.133V216.953H141.492C141.518 217.958 141.771 218.721 142.25 219.242C142.734 219.763 143.414 220.023 144.289 220.023C145.211 220.023 146.122 219.831 147.023 219.445V220.602C146.565 220.799 146.13 220.94 145.719 221.023C145.312 221.112 144.82 221.156 144.242 221.156ZM143.891 213.367C143.203 213.367 142.654 213.591 142.242 214.039C141.836 214.487 141.596 215.107 141.523 215.898H146C146 215.081 145.818 214.456 145.453 214.023C145.089 213.586 144.568 213.367 143.891 213.367ZM152.375 220.086C152.604 220.086 152.826 220.07 153.039 220.039C153.253 220.003 153.422 219.966 153.547 219.93V220.922C153.406 220.99 153.198 221.044 152.922 221.086C152.651 221.133 152.406 221.156 152.188 221.156C150.531 221.156 149.703 220.284 149.703 218.539V213.445H148.477V212.82L149.703 212.281L150.25 210.453H151V212.438H153.484V213.445H151V218.484C151 219 151.122 219.396 151.367 219.672C151.612 219.948 151.948 220.086 152.375 220.086ZM160.531 221L160.273 219.781H160.211C159.784 220.318 159.357 220.682 158.93 220.875C158.508 221.062 157.979 221.156 157.344 221.156C156.495 221.156 155.828 220.938 155.344 220.5C154.865 220.062 154.625 219.44 154.625 218.633C154.625 216.904 156.008 215.997 158.773 215.914L160.227 215.867V215.336C160.227 214.664 160.081 214.169 159.789 213.852C159.503 213.529 159.042 213.367 158.406 213.367C157.693 213.367 156.885 213.586 155.984 214.023L155.586 213.031C156.008 212.802 156.469 212.622 156.969 212.492C157.474 212.362 157.979 212.297 158.484 212.297C159.505 212.297 160.26 212.523 160.75 212.977C161.245 213.43 161.492 214.156 161.492 215.156V221H160.531ZM157.602 220.086C158.409 220.086 159.042 219.865 159.5 219.422C159.964 218.979 160.195 218.359 160.195 217.562V216.789L158.898 216.844C157.867 216.88 157.122 217.042 156.664 217.328C156.211 217.609 155.984 218.049 155.984 218.648C155.984 219.117 156.125 219.474 156.406 219.719C156.693 219.964 157.091 220.086 157.602 220.086ZM165.469 221H164.172V212.438H165.469V221ZM164.062 210.117C164.062 209.82 164.135 209.604 164.281 209.469C164.427 209.328 164.609 209.258 164.828 209.258C165.036 209.258 165.216 209.328 165.367 209.469C165.518 209.609 165.594 209.826 165.594 210.117C165.594 210.409 165.518 210.628 165.367 210.773C165.216 210.914 165.036 210.984 164.828 210.984C164.609 210.984 164.427 210.914 164.281 210.773C164.135 210.628 164.062 210.409 164.062 210.117ZM169.516 221H168.219V208.844H169.516V221ZM177.789 218.664C177.789 219.461 177.492 220.076 176.898 220.508C176.305 220.94 175.471 221.156 174.398 221.156C173.263 221.156 172.378 220.977 171.742 220.617V219.414C172.154 219.622 172.594 219.786 173.062 219.906C173.536 220.026 173.992 220.086 174.43 220.086C175.107 220.086 175.628 219.979 175.992 219.766C176.357 219.547 176.539 219.216 176.539 218.773C176.539 218.44 176.393 218.156 176.102 217.922C175.815 217.682 175.253 217.401 174.414 217.078C173.617 216.781 173.049 216.523 172.711 216.305C172.378 216.081 172.128 215.828 171.961 215.547C171.799 215.266 171.719 214.93 171.719 214.539C171.719 213.841 172.003 213.292 172.57 212.891C173.138 212.484 173.917 212.281 174.906 212.281C175.828 212.281 176.729 212.469 177.609 212.844L177.148 213.898C176.289 213.544 175.51 213.367 174.812 213.367C174.198 213.367 173.734 213.464 173.422 213.656C173.109 213.849 172.953 214.115 172.953 214.453C172.953 214.682 173.01 214.878 173.125 215.039C173.245 215.201 173.435 215.354 173.695 215.5C173.956 215.646 174.456 215.857 175.195 216.133C176.211 216.503 176.896 216.875 177.25 217.25C177.609 217.625 177.789 218.096 177.789 218.664ZM185.281 212.438V217.992C185.281 218.69 185.44 219.211 185.758 219.555C186.076 219.898 186.573 220.07 187.25 220.07C188.146 220.07 188.799 219.826 189.211 219.336C189.628 218.846 189.836 218.047 189.836 216.938V212.438H191.133V221H190.062L189.875 219.852H189.805C189.539 220.273 189.169 220.596 188.695 220.82C188.227 221.044 187.69 221.156 187.086 221.156C186.044 221.156 185.263 220.909 184.742 220.414C184.227 219.919 183.969 219.128 183.969 218.039V212.438H185.281ZM199.414 218.664C199.414 219.461 199.117 220.076 198.523 220.508C197.93 220.94 197.096 221.156 196.023 221.156C194.888 221.156 194.003 220.977 193.367 220.617V219.414C193.779 219.622 194.219 219.786 194.688 219.906C195.161 220.026 195.617 220.086 196.055 220.086C196.732 220.086 197.253 219.979 197.617 219.766C197.982 219.547 198.164 219.216 198.164 218.773C198.164 218.44 198.018 218.156 197.727 217.922C197.44 217.682 196.878 217.401 196.039 217.078C195.242 216.781 194.674 216.523 194.336 216.305C194.003 216.081 193.753 215.828 193.586 215.547C193.424 215.266 193.344 214.93 193.344 214.539C193.344 213.841 193.628 213.292 194.195 212.891C194.763 212.484 195.542 212.281 196.531 212.281C197.453 212.281 198.354 212.469 199.234 212.844L198.773 213.898C197.914 213.544 197.135 213.367 196.438 213.367C195.823 213.367 195.359 213.464 195.047 213.656C194.734 213.849 194.578 214.115 194.578 214.453C194.578 214.682 194.635 214.878 194.75 215.039C194.87 215.201 195.06 215.354 195.32 215.5C195.581 215.646 196.081 215.857 196.82 216.133C197.836 216.503 198.521 216.875 198.875 217.25C199.234 217.625 199.414 218.096 199.414 218.664ZM202.828 221H201.531V212.438H202.828V221ZM201.422 210.117C201.422 209.82 201.495 209.604 201.641 209.469C201.786 209.328 201.969 209.258 202.188 209.258C202.396 209.258 202.576 209.328 202.727 209.469C202.878 209.609 202.953 209.826 202.953 210.117C202.953 210.409 202.878 210.628 202.727 210.773C202.576 210.914 202.396 210.984 202.188 210.984C201.969 210.984 201.786 210.914 201.641 210.773C201.495 210.628 201.422 210.409 201.422 210.117ZM211.438 221V215.461C211.438 214.763 211.279 214.242 210.961 213.898C210.643 213.555 210.146 213.383 209.469 213.383C208.573 213.383 207.917 213.625 207.5 214.109C207.083 214.594 206.875 215.393 206.875 216.508V221H205.578V212.438H206.633L206.844 213.609H206.906C207.172 213.188 207.544 212.862 208.023 212.633C208.503 212.398 209.036 212.281 209.625 212.281C210.656 212.281 211.432 212.531 211.953 213.031C212.474 213.526 212.734 214.32 212.734 215.414V221H211.438ZM222.414 212.438V213.258L220.828 213.445C220.974 213.628 221.104 213.867 221.219 214.164C221.333 214.456 221.391 214.786 221.391 215.156C221.391 215.995 221.104 216.664 220.531 217.164C219.958 217.664 219.172 217.914 218.172 217.914C217.917 217.914 217.677 217.893 217.453 217.852C216.901 218.143 216.625 218.51 216.625 218.953C216.625 219.188 216.721 219.362 216.914 219.477C217.107 219.586 217.438 219.641 217.906 219.641H219.422C220.349 219.641 221.06 219.836 221.555 220.227C222.055 220.617 222.305 221.185 222.305 221.93C222.305 222.878 221.924 223.599 221.164 224.094C220.404 224.594 219.294 224.844 217.836 224.844C216.716 224.844 215.852 224.635 215.242 224.219C214.638 223.802 214.336 223.214 214.336 222.453C214.336 221.932 214.503 221.482 214.836 221.102C215.169 220.721 215.638 220.464 216.242 220.328C216.023 220.229 215.839 220.076 215.688 219.867C215.542 219.659 215.469 219.417 215.469 219.141C215.469 218.828 215.552 218.555 215.719 218.32C215.885 218.086 216.148 217.859 216.508 217.641C216.065 217.458 215.703 217.148 215.422 216.711C215.146 216.273 215.008 215.773 215.008 215.211C215.008 214.273 215.289 213.552 215.852 213.047C216.414 212.536 217.211 212.281 218.242 212.281C218.69 212.281 219.094 212.333 219.453 212.438H222.414ZM215.586 222.438C215.586 222.901 215.781 223.253 216.172 223.492C216.562 223.732 217.122 223.852 217.852 223.852C218.94 223.852 219.745 223.688 220.266 223.359C220.792 223.036 221.055 222.596 221.055 222.039C221.055 221.576 220.911 221.253 220.625 221.07C220.339 220.893 219.799 220.805 219.008 220.805H217.453C216.865 220.805 216.406 220.945 216.078 221.227C215.75 221.508 215.586 221.911 215.586 222.438ZM216.289 215.18C216.289 215.779 216.458 216.232 216.797 216.539C217.135 216.846 217.607 217 218.211 217C219.477 217 220.109 216.385 220.109 215.156C220.109 213.87 219.469 213.227 218.188 213.227C217.578 213.227 217.109 213.391 216.781 213.719C216.453 214.047 216.289 214.534 216.289 215.18ZM31.2031 241.852H31.1328C30.5339 242.721 29.638 243.156 28.4453 243.156C27.3255 243.156 26.4531 242.773 25.8281 242.008C25.2083 241.242 24.8984 240.154 24.8984 238.742C24.8984 237.331 25.2109 236.234 25.8359 235.453C26.4609 234.672 27.3307 234.281 28.4453 234.281C29.6068 234.281 30.4974 234.703 31.1172 235.547H31.2188L31.1641 234.93L31.1328 234.328V230.844H32.4297V243H31.375L31.2031 241.852ZM28.6094 242.07C29.4948 242.07 30.1354 241.831 30.5312 241.352C30.9323 240.867 31.1328 240.089 31.1328 239.016V238.742C31.1328 237.529 30.9297 236.664 30.5234 236.148C30.1224 235.628 29.4792 235.367 28.5938 235.367C27.8333 235.367 27.25 235.664 26.8438 236.258C26.4427 236.846 26.2422 237.68 26.2422 238.758C26.2422 239.852 26.4427 240.677 26.8438 241.234C27.2448 241.792 27.8333 242.07 28.6094 242.07ZM38.8047 243.156C37.5391 243.156 36.5391 242.771 35.8047 242C35.0755 241.229 34.7109 240.159 34.7109 238.789C34.7109 237.409 35.0495 236.312 35.7266 235.5C36.4089 234.688 37.3229 234.281 38.4688 234.281C39.5417 234.281 40.3906 234.635 41.0156 235.344C41.6406 236.047 41.9531 236.977 41.9531 238.133V238.953H36.0547C36.0807 239.958 36.3333 240.721 36.8125 241.242C37.2969 241.763 37.9766 242.023 38.8516 242.023C39.7734 242.023 40.6849 241.831 41.5859 241.445V242.602C41.1276 242.799 40.6927 242.94 40.2812 243.023C39.875 243.112 39.3828 243.156 38.8047 243.156ZM38.4531 235.367C37.7656 235.367 37.2161 235.591 36.8047 236.039C36.3984 236.487 36.1589 237.107 36.0859 237.898H40.5625C40.5625 237.081 40.3802 236.456 40.0156 236.023C39.651 235.586 39.1302 235.367 38.4531 235.367ZM55.0859 243V237.43C55.0859 236.747 54.9401 236.237 54.6484 235.898C54.3568 235.555 53.9036 235.383 53.2891 235.383C52.4818 235.383 51.8854 235.615 51.5 236.078C51.1146 236.542 50.9219 237.255 50.9219 238.219V243H49.625V237.43C49.625 236.747 49.4792 236.237 49.1875 235.898C48.8958 235.555 48.4401 235.383 47.8203 235.383C47.0078 235.383 46.4115 235.628 46.0312 236.117C45.6562 236.602 45.4688 237.398 45.4688 238.508V243H44.1719V234.438H45.2266L45.4375 235.609H45.5C45.7448 235.193 46.0885 234.867 46.5312 234.633C46.9792 234.398 47.4792 234.281 48.0312 234.281C49.3698 234.281 50.2448 234.766 50.6562 235.734H50.7188C50.974 235.286 51.3438 234.932 51.8281 234.672C52.3125 234.411 52.8646 234.281 53.4844 234.281C54.4531 234.281 55.1771 234.531 55.6562 235.031C56.1406 235.526 56.3828 236.32 56.3828 237.414V243H55.0859ZM66.4531 238.711C66.4531 240.107 66.1016 241.198 65.3984 241.984C64.6953 242.766 63.724 243.156 62.4844 243.156C61.7188 243.156 61.0391 242.977 60.4453 242.617C59.8516 242.258 59.3932 241.742 59.0703 241.07C58.7474 240.398 58.5859 239.612 58.5859 238.711C58.5859 237.315 58.9349 236.229 59.6328 235.453C60.3307 234.672 61.2995 234.281 62.5391 234.281C63.737 234.281 64.6875 234.68 65.3906 235.477C66.099 236.273 66.4531 237.352 66.4531 238.711ZM59.9297 238.711C59.9297 239.805 60.1484 240.638 60.5859 241.211C61.0234 241.784 61.6667 242.07 62.5156 242.07C63.3646 242.07 64.0078 241.786 64.4453 241.219C64.888 240.646 65.1094 239.81 65.1094 238.711C65.1094 237.622 64.888 236.797 64.4453 236.234C64.0078 235.667 63.3594 235.383 62.5 235.383C61.651 235.383 61.0104 235.661 60.5781 236.219C60.1458 236.776 59.9297 237.607 59.9297 238.711ZM75.7422 234.438V235.258L74.1562 235.445C74.3021 235.628 74.4323 235.867 74.5469 236.164C74.6615 236.456 74.7188 236.786 74.7188 237.156C74.7188 237.995 74.4323 238.664 73.8594 239.164C73.2865 239.664 72.5 239.914 71.5 239.914C71.2448 239.914 71.0052 239.893 70.7812 239.852C70.2292 240.143 69.9531 240.51 69.9531 240.953C69.9531 241.188 70.0495 241.362 70.2422 241.477C70.4349 241.586 70.7656 241.641 71.2344 241.641H72.75C73.6771 241.641 74.388 241.836 74.8828 242.227C75.3828 242.617 75.6328 243.185 75.6328 243.93C75.6328 244.878 75.2526 245.599 74.4922 246.094C73.7318 246.594 72.6224 246.844 71.1641 246.844C70.0443 246.844 69.1797 246.635 68.5703 246.219C67.9661 245.802 67.6641 245.214 67.6641 244.453C67.6641 243.932 67.8307 243.482 68.1641 243.102C68.4974 242.721 68.9661 242.464 69.5703 242.328C69.3516 242.229 69.1667 242.076 69.0156 241.867C68.8698 241.659 68.7969 241.417 68.7969 241.141C68.7969 240.828 68.8802 240.555 69.0469 240.32C69.2135 240.086 69.4766 239.859 69.8359 239.641C69.3932 239.458 69.0312 239.148 68.75 238.711C68.474 238.273 68.3359 237.773 68.3359 237.211C68.3359 236.273 68.6172 235.552 69.1797 235.047C69.7422 234.536 70.5391 234.281 71.5703 234.281C72.0182 234.281 72.4219 234.333 72.7812 234.438H75.7422ZM68.9141 244.438C68.9141 244.901 69.1094 245.253 69.5 245.492C69.8906 245.732 70.4505 245.852 71.1797 245.852C72.2682 245.852 73.0729 245.688 73.5938 245.359C74.1198 245.036 74.3828 244.596 74.3828 244.039C74.3828 243.576 74.2396 243.253 73.9531 243.07C73.6667 242.893 73.1276 242.805 72.3359 242.805H70.7812C70.1927 242.805 69.7344 242.945 69.4062 243.227C69.0781 243.508 68.9141 243.911 68.9141 244.438ZM69.6172 237.18C69.6172 237.779 69.7865 238.232 70.125 238.539C70.4635 238.846 70.9349 239 71.5391 239C72.8047 239 73.4375 238.385 73.4375 237.156C73.4375 235.87 72.7969 235.227 71.5156 235.227C70.9062 235.227 70.4375 235.391 70.1094 235.719C69.7812 236.047 69.6172 236.534 69.6172 237.18ZM81.4062 234.281C81.7865 234.281 82.1276 234.312 82.4297 234.375L82.25 235.578C81.8958 235.5 81.5833 235.461 81.3125 235.461C80.6198 235.461 80.026 235.742 79.5312 236.305C79.0417 236.867 78.7969 237.568 78.7969 238.406V243H77.5V234.438H78.5703L78.7188 236.023H78.7812C79.099 235.466 79.4818 235.036 79.9297 234.734C80.3776 234.432 80.8698 234.281 81.4062 234.281ZM89.2969 243L89.0391 241.781H88.9766C88.5495 242.318 88.1224 242.682 87.6953 242.875C87.2734 243.062 86.7448 243.156 86.1094 243.156C85.2604 243.156 84.5938 242.938 84.1094 242.5C83.6302 242.062 83.3906 241.44 83.3906 240.633C83.3906 238.904 84.7734 237.997 87.5391 237.914L88.9922 237.867V237.336C88.9922 236.664 88.8464 236.169 88.5547 235.852C88.2682 235.529 87.8073 235.367 87.1719 235.367C86.4583 235.367 85.651 235.586 84.75 236.023L84.3516 235.031C84.7734 234.802 85.2344 234.622 85.7344 234.492C86.2396 234.362 86.7448 234.297 87.25 234.297C88.2708 234.297 89.026 234.523 89.5156 234.977C90.0104 235.43 90.2578 236.156 90.2578 237.156V243H89.2969ZM86.3672 242.086C87.1745 242.086 87.8073 241.865 88.2656 241.422C88.7292 240.979 88.9609 240.359 88.9609 239.562V238.789L87.6641 238.844C86.6328 238.88 85.888 239.042 85.4297 239.328C84.9766 239.609 84.75 240.049 84.75 240.648C84.75 241.117 84.8906 241.474 85.1719 241.719C85.4583 241.964 85.8568 242.086 86.3672 242.086ZM96.9219 243.156C96.3646 243.156 95.8542 243.055 95.3906 242.852C94.9323 242.643 94.5469 242.326 94.2344 241.898H94.1406C94.2031 242.398 94.2344 242.872 94.2344 243.32V246.844H92.9375V234.438H93.9922L94.1719 235.609H94.2344C94.5677 235.141 94.9557 234.802 95.3984 234.594C95.8411 234.385 96.349 234.281 96.9219 234.281C98.0573 234.281 98.9323 234.669 99.5469 235.445C100.167 236.221 100.477 237.31 100.477 238.711C100.477 240.117 100.161 241.211 99.5312 241.992C98.9062 242.768 98.0365 243.156 96.9219 243.156ZM96.7344 235.383C95.8594 235.383 95.2266 235.625 94.8359 236.109C94.4453 236.594 94.2448 237.365 94.2344 238.422V238.711C94.2344 239.914 94.4349 240.776 94.8359 241.297C95.237 241.812 95.8802 242.07 96.7656 242.07C97.5052 242.07 98.0833 241.771 98.5 241.172C98.9219 240.573 99.1328 239.747 99.1328 238.695C99.1328 237.628 98.9219 236.81 98.5 236.242C98.0833 235.669 97.4948 235.383 96.7344 235.383ZM108.609 243V237.461C108.609 236.763 108.451 236.242 108.133 235.898C107.815 235.555 107.318 235.383 106.641 235.383C105.74 235.383 105.081 235.628 104.664 236.117C104.253 236.607 104.047 237.409 104.047 238.523V243H102.75V230.844H104.047V234.523C104.047 234.966 104.026 235.333 103.984 235.625H104.062C104.318 235.214 104.68 234.891 105.148 234.656C105.622 234.417 106.161 234.297 106.766 234.297C107.812 234.297 108.596 234.547 109.117 235.047C109.643 235.542 109.906 236.331 109.906 237.414V243H108.609ZM113.875 243H112.578V234.438H113.875V243ZM112.469 232.117C112.469 231.82 112.542 231.604 112.688 231.469C112.833 231.328 113.016 231.258 113.234 231.258C113.443 231.258 113.622 231.328 113.773 231.469C113.924 231.609 114 231.826 114 232.117C114 232.409 113.924 232.628 113.773 232.773C113.622 232.914 113.443 232.984 113.234 232.984C113.016 232.984 112.833 232.914 112.688 232.773C112.542 232.628 112.469 232.409 112.469 232.117ZM120.047 243.156C118.807 243.156 117.846 242.776 117.164 242.016C116.487 241.25 116.148 240.169 116.148 238.773C116.148 237.341 116.492 236.234 117.18 235.453C117.872 234.672 118.857 234.281 120.133 234.281C120.544 234.281 120.956 234.326 121.367 234.414C121.779 234.503 122.102 234.607 122.336 234.727L121.938 235.828C121.651 235.714 121.339 235.62 121 235.547C120.661 235.469 120.362 235.43 120.102 235.43C118.362 235.43 117.492 236.539 117.492 238.758C117.492 239.81 117.703 240.617 118.125 241.18C118.552 241.742 119.182 242.023 120.016 242.023C120.729 242.023 121.461 241.87 122.211 241.562V242.711C121.638 243.008 120.917 243.156 120.047 243.156ZM134.234 241.852H134.164C133.565 242.721 132.669 243.156 131.477 243.156C130.357 243.156 129.484 242.773 128.859 242.008C128.24 241.242 127.93 240.154 127.93 238.742C127.93 237.331 128.242 236.234 128.867 235.453C129.492 234.672 130.362 234.281 131.477 234.281C132.638 234.281 133.529 234.703 134.148 235.547H134.25L134.195 234.93L134.164 234.328V230.844H135.461V243H134.406L134.234 241.852ZM131.641 242.07C132.526 242.07 133.167 241.831 133.562 241.352C133.964 240.867 134.164 240.089 134.164 239.016V238.742C134.164 237.529 133.961 236.664 133.555 236.148C133.154 235.628 132.51 235.367 131.625 235.367C130.865 235.367 130.281 235.664 129.875 236.258C129.474 236.846 129.273 237.68 129.273 238.758C129.273 239.852 129.474 240.677 129.875 241.234C130.276 241.792 130.865 242.07 131.641 242.07ZM143.484 243L143.227 241.781H143.164C142.737 242.318 142.31 242.682 141.883 242.875C141.461 243.062 140.932 243.156 140.297 243.156C139.448 243.156 138.781 242.938 138.297 242.5C137.818 242.062 137.578 241.44 137.578 240.633C137.578 238.904 138.961 237.997 141.727 237.914L143.18 237.867V237.336C143.18 236.664 143.034 236.169 142.742 235.852C142.456 235.529 141.995 235.367 141.359 235.367C140.646 235.367 139.839 235.586 138.938 236.023L138.539 235.031C138.961 234.802 139.422 234.622 139.922 234.492C140.427 234.362 140.932 234.297 141.438 234.297C142.458 234.297 143.214 234.523 143.703 234.977C144.198 235.43 144.445 236.156 144.445 237.156V243H143.484ZM140.555 242.086C141.362 242.086 141.995 241.865 142.453 241.422C142.917 240.979 143.148 240.359 143.148 239.562V238.789L141.852 238.844C140.82 238.88 140.076 239.042 139.617 239.328C139.164 239.609 138.938 240.049 138.938 240.648C138.938 241.117 139.078 241.474 139.359 241.719C139.646 241.964 140.044 242.086 140.555 242.086ZM149.891 242.086C150.12 242.086 150.341 242.07 150.555 242.039C150.768 242.003 150.938 241.966 151.062 241.93V242.922C150.922 242.99 150.714 243.044 150.438 243.086C150.167 243.133 149.922 243.156 149.703 243.156C148.047 243.156 147.219 242.284 147.219 240.539V235.445H145.992V234.82L147.219 234.281L147.766 232.453H148.516V234.438H151V235.445H148.516V240.484C148.516 241 148.638 241.396 148.883 241.672C149.128 241.948 149.464 242.086 149.891 242.086ZM158.047 243L157.789 241.781H157.727C157.299 242.318 156.872 242.682 156.445 242.875C156.023 243.062 155.495 243.156 154.859 243.156C154.01 243.156 153.344 242.938 152.859 242.5C152.38 242.062 152.141 241.44 152.141 240.633C152.141 238.904 153.523 237.997 156.289 237.914L157.742 237.867V237.336C157.742 236.664 157.596 236.169 157.305 235.852C157.018 235.529 156.557 235.367 155.922 235.367C155.208 235.367 154.401 235.586 153.5 236.023L153.102 235.031C153.523 234.802 153.984 234.622 154.484 234.492C154.99 234.362 155.495 234.297 156 234.297C157.021 234.297 157.776 234.523 158.266 234.977C158.76 235.43 159.008 236.156 159.008 237.156V243H158.047ZM155.117 242.086C155.924 242.086 156.557 241.865 157.016 241.422C157.479 240.979 157.711 240.359 157.711 239.562V238.789L156.414 238.844C155.383 238.88 154.638 239.042 154.18 239.328C153.727 239.609 153.5 240.049 153.5 240.648C153.5 241.117 153.641 241.474 153.922 241.719C154.208 241.964 154.607 242.086 155.117 242.086ZM161.5 242.172C161.5 241.823 161.578 241.56 161.734 241.383C161.896 241.201 162.125 241.109 162.422 241.109C162.724 241.109 162.958 241.201 163.125 241.383C163.297 241.56 163.383 241.823 163.383 242.172C163.383 242.51 163.297 242.771 163.125 242.953C162.953 243.135 162.719 243.227 162.422 243.227C162.156 243.227 161.935 243.146 161.758 242.984C161.586 242.818 161.5 242.547 161.5 242.172Z" fill="#303030"/>
<path d="M10.2734 275.156C10.2734 274.526 10.4193 274.047 10.7109 273.719C11.0078 273.391 11.4375 273.227 12 273.227C12.5469 273.227 12.9714 273.388 13.2734 273.711C13.5755 274.034 13.7266 274.516 13.7266 275.156C13.7266 275.776 13.5755 276.255 13.2734 276.594C12.9766 276.927 12.5521 277.094 12 277.094C11.4427 277.094 11.0156 276.924 10.7188 276.586C10.4219 276.242 10.2734 275.766 10.2734 275.156ZM32.8125 272.906C32.8125 274.062 32.4167 274.953 31.625 275.578C30.8385 276.198 29.7109 276.508 28.2422 276.508H26.8984V281H25.5703V269.578H28.5312C31.3854 269.578 32.8125 270.688 32.8125 272.906ZM26.8984 275.367H28.0938C29.2708 275.367 30.1224 275.177 30.6484 274.797C31.1745 274.417 31.4375 273.807 31.4375 272.969C31.4375 272.214 31.1901 271.651 30.6953 271.281C30.2005 270.911 29.4297 270.727 28.3828 270.727H26.8984V275.367ZM38.9219 272.281C39.3021 272.281 39.6432 272.312 39.9453 272.375L39.7656 273.578C39.4115 273.5 39.099 273.461 38.8281 273.461C38.1354 273.461 37.5417 273.742 37.0469 274.305C36.5573 274.867 36.3125 275.568 36.3125 276.406V281H35.0156V272.438H36.0859L36.2344 274.023H36.2969C36.6146 273.466 36.9974 273.036 37.4453 272.734C37.8932 272.432 38.3854 272.281 38.9219 272.281ZM45.1641 281.156C43.8984 281.156 42.8984 280.771 42.1641 280C41.4349 279.229 41.0703 278.159 41.0703 276.789C41.0703 275.409 41.4089 274.312 42.0859 273.5C42.7682 272.688 43.6823 272.281 44.8281 272.281C45.901 272.281 46.75 272.635 47.375 273.344C48 274.047 48.3125 274.977 48.3125 276.133V276.953H42.4141C42.4401 277.958 42.6927 278.721 43.1719 279.242C43.6562 279.763 44.3359 280.023 45.2109 280.023C46.1328 280.023 47.0443 279.831 47.9453 279.445V280.602C47.487 280.799 47.0521 280.94 46.6406 281.023C46.2344 281.112 45.7422 281.156 45.1641 281.156ZM44.8125 273.367C44.125 273.367 43.5755 273.591 43.1641 274.039C42.7578 274.487 42.5182 275.107 42.4453 275.898H46.9219C46.9219 275.081 46.7396 274.456 46.375 274.023C46.0104 273.586 45.4896 273.367 44.8125 273.367ZM56.3594 279.852H56.2891C55.6901 280.721 54.7943 281.156 53.6016 281.156C52.4818 281.156 51.6094 280.773 50.9844 280.008C50.3646 279.242 50.0547 278.154 50.0547 276.742C50.0547 275.331 50.3672 274.234 50.9922 273.453C51.6172 272.672 52.487 272.281 53.6016 272.281C54.763 272.281 55.6536 272.703 56.2734 273.547H56.375L56.3203 272.93L56.2891 272.328V268.844H57.5859V281H56.5312L56.3594 279.852ZM53.7656 280.07C54.651 280.07 55.2917 279.831 55.6875 279.352C56.0885 278.867 56.2891 278.089 56.2891 277.016V276.742C56.2891 275.529 56.0859 274.664 55.6797 274.148C55.2786 273.628 54.6354 273.367 53.75 273.367C52.9896 273.367 52.4062 273.664 52 274.258C51.599 274.846 51.3984 275.68 51.3984 276.758C51.3984 277.852 51.599 278.677 52 279.234C52.401 279.792 52.9896 280.07 53.7656 280.07ZM61.6406 281H60.3438V272.438H61.6406V281ZM60.2344 270.117C60.2344 269.82 60.3073 269.604 60.4531 269.469C60.599 269.328 60.7812 269.258 61 269.258C61.2083 269.258 61.388 269.328 61.5391 269.469C61.6901 269.609 61.7656 269.826 61.7656 270.117C61.7656 270.409 61.6901 270.628 61.5391 270.773C61.388 270.914 61.2083 270.984 61 270.984C60.7812 270.984 60.599 270.914 60.4531 270.773C60.3073 270.628 60.2344 270.409 60.2344 270.117ZM67.8125 281.156C66.5729 281.156 65.612 280.776 64.9297 280.016C64.2526 279.25 63.9141 278.169 63.9141 276.773C63.9141 275.341 64.2578 274.234 64.9453 273.453C65.638 272.672 66.6224 272.281 67.8984 272.281C68.3099 272.281 68.7214 272.326 69.1328 272.414C69.5443 272.503 69.8672 272.607 70.1016 272.727L69.7031 273.828C69.4167 273.714 69.1042 273.62 68.7656 273.547C68.4271 273.469 68.1276 273.43 67.8672 273.43C66.1276 273.43 65.2578 274.539 65.2578 276.758C65.2578 277.81 65.4688 278.617 65.8906 279.18C66.3177 279.742 66.9479 280.023 67.7812 280.023C68.4948 280.023 69.2266 279.87 69.9766 279.562V280.711C69.4036 281.008 68.6823 281.156 67.8125 281.156ZM74.7812 280.086C75.0104 280.086 75.2318 280.07 75.4453 280.039C75.6589 280.003 75.8281 279.966 75.9531 279.93V280.922C75.8125 280.99 75.6042 281.044 75.3281 281.086C75.0573 281.133 74.8125 281.156 74.5938 281.156C72.9375 281.156 72.1094 280.284 72.1094 278.539V273.445H70.8828V272.82L72.1094 272.281L72.6562 270.453H73.4062V272.438H75.8906V273.445H73.4062V278.484C73.4062 279 73.5286 279.396 73.7734 279.672C74.0182 279.948 74.3542 280.086 74.7812 280.086ZM87.6562 279.852H87.5859C86.987 280.721 86.0911 281.156 84.8984 281.156C83.7786 281.156 82.9062 280.773 82.2812 280.008C81.6615 279.242 81.3516 278.154 81.3516 276.742C81.3516 275.331 81.6641 274.234 82.2891 273.453C82.9141 272.672 83.7839 272.281 84.8984 272.281C86.0599 272.281 86.9505 272.703 87.5703 273.547H87.6719L87.6172 272.93L87.5859 272.328V268.844H88.8828V281H87.8281L87.6562 279.852ZM85.0625 280.07C85.9479 280.07 86.5885 279.831 86.9844 279.352C87.3854 278.867 87.5859 278.089 87.5859 277.016V276.742C87.5859 275.529 87.3828 274.664 86.9766 274.148C86.5755 273.628 85.9323 273.367 85.0469 273.367C84.2865 273.367 83.7031 273.664 83.2969 274.258C82.8958 274.846 82.6953 275.68 82.6953 276.758C82.6953 277.852 82.8958 278.677 83.2969 279.234C83.6979 279.792 84.2865 280.07 85.0625 280.07ZM95.2578 281.156C93.9922 281.156 92.9922 280.771 92.2578 280C91.5286 279.229 91.1641 278.159 91.1641 276.789C91.1641 275.409 91.5026 274.312 92.1797 273.5C92.862 272.688 93.776 272.281 94.9219 272.281C95.9948 272.281 96.8438 272.635 97.4688 273.344C98.0938 274.047 98.4062 274.977 98.4062 276.133V276.953H92.5078C92.5339 277.958 92.7865 278.721 93.2656 279.242C93.75 279.763 94.4297 280.023 95.3047 280.023C96.2266 280.023 97.138 279.831 98.0391 279.445V280.602C97.5807 280.799 97.1458 280.94 96.7344 281.023C96.3281 281.112 95.8359 281.156 95.2578 281.156ZM94.9062 273.367C94.2188 273.367 93.6693 273.591 93.2578 274.039C92.8516 274.487 92.612 275.107 92.5391 275.898H97.0156C97.0156 275.081 96.8333 274.456 96.4688 274.023C96.1042 273.586 95.5833 273.367 94.9062 273.367ZM104.484 273.445H102.305V281H101.008V273.445H99.4766V272.859L101.008 272.391V271.914C101.008 269.81 101.927 268.758 103.766 268.758C104.219 268.758 104.75 268.849 105.359 269.031L105.023 270.07C104.523 269.909 104.096 269.828 103.742 269.828C103.253 269.828 102.891 269.992 102.656 270.32C102.422 270.643 102.305 271.164 102.305 271.883V272.438H104.484V273.445ZM111.312 281L111.055 279.781H110.992C110.565 280.318 110.138 280.682 109.711 280.875C109.289 281.062 108.76 281.156 108.125 281.156C107.276 281.156 106.609 280.938 106.125 280.5C105.646 280.062 105.406 279.44 105.406 278.633C105.406 276.904 106.789 275.997 109.555 275.914L111.008 275.867V275.336C111.008 274.664 110.862 274.169 110.57 273.852C110.284 273.529 109.823 273.367 109.188 273.367C108.474 273.367 107.667 273.586 106.766 274.023L106.367 273.031C106.789 272.802 107.25 272.622 107.75 272.492C108.255 272.362 108.76 272.297 109.266 272.297C110.286 272.297 111.042 272.523 111.531 272.977C112.026 273.43 112.273 274.156 112.273 275.156V281H111.312ZM108.383 280.086C109.19 280.086 109.823 279.865 110.281 279.422C110.745 278.979 110.977 278.359 110.977 277.562V276.789L109.68 276.844C108.648 276.88 107.904 277.042 107.445 277.328C106.992 277.609 106.766 278.049 106.766 278.648C106.766 279.117 106.906 279.474 107.188 279.719C107.474 279.964 107.872 280.086 108.383 280.086ZM116.172 272.438V277.992C116.172 278.69 116.331 279.211 116.648 279.555C116.966 279.898 117.464 280.07 118.141 280.07C119.036 280.07 119.69 279.826 120.102 279.336C120.518 278.846 120.727 278.047 120.727 276.938V272.438H122.023V281H120.953L120.766 279.852H120.695C120.43 280.273 120.06 280.596 119.586 280.82C119.117 281.044 118.581 281.156 117.977 281.156C116.935 281.156 116.154 280.909 115.633 280.414C115.117 279.919 114.859 279.128 114.859 278.039V272.438H116.172ZM126.078 281H124.781V268.844H126.078V281ZM131.594 280.086C131.823 280.086 132.044 280.07 132.258 280.039C132.471 280.003 132.641 279.966 132.766 279.93V280.922C132.625 280.99 132.417 281.044 132.141 281.086C131.87 281.133 131.625 281.156 131.406 281.156C129.75 281.156 128.922 280.284 128.922 278.539V273.445H127.695V272.82L128.922 272.281L129.469 270.453H130.219V272.438H132.703V273.445H130.219V278.484C130.219 279 130.341 279.396 130.586 279.672C130.831 279.948 131.167 280.086 131.594 280.086ZM140.008 278.664C140.008 279.461 139.711 280.076 139.117 280.508C138.523 280.94 137.69 281.156 136.617 281.156C135.482 281.156 134.596 280.977 133.961 280.617V279.414C134.372 279.622 134.812 279.786 135.281 279.906C135.755 280.026 136.211 280.086 136.648 280.086C137.326 280.086 137.846 279.979 138.211 279.766C138.576 279.547 138.758 279.216 138.758 278.773C138.758 278.44 138.612 278.156 138.32 277.922C138.034 277.682 137.471 277.401 136.633 277.078C135.836 276.781 135.268 276.523 134.93 276.305C134.596 276.081 134.346 275.828 134.18 275.547C134.018 275.266 133.938 274.93 133.938 274.539C133.938 273.841 134.221 273.292 134.789 272.891C135.357 272.484 136.135 272.281 137.125 272.281C138.047 272.281 138.948 272.469 139.828 272.844L139.367 273.898C138.508 273.544 137.729 273.367 137.031 273.367C136.417 273.367 135.953 273.464 135.641 273.656C135.328 273.849 135.172 274.115 135.172 274.453C135.172 274.682 135.229 274.878 135.344 275.039C135.464 275.201 135.654 275.354 135.914 275.5C136.174 275.646 136.674 275.857 137.414 276.133C138.43 276.503 139.115 276.875 139.469 277.25C139.828 277.625 140.008 278.096 140.008 278.664ZM147.5 272.438V277.992C147.5 278.69 147.659 279.211 147.977 279.555C148.294 279.898 148.792 280.07 149.469 280.07C150.365 280.07 151.018 279.826 151.43 279.336C151.846 278.846 152.055 278.047 152.055 276.938V272.438H153.352V281H152.281L152.094 279.852H152.023C151.758 280.273 151.388 280.596 150.914 280.82C150.445 281.044 149.909 281.156 149.305 281.156C148.263 281.156 147.482 280.909 146.961 280.414C146.445 279.919 146.188 279.128 146.188 278.039V272.438H147.5ZM161.633 278.664C161.633 279.461 161.336 280.076 160.742 280.508C160.148 280.94 159.315 281.156 158.242 281.156C157.107 281.156 156.221 280.977 155.586 280.617V279.414C155.997 279.622 156.438 279.786 156.906 279.906C157.38 280.026 157.836 280.086 158.273 280.086C158.951 280.086 159.471 279.979 159.836 279.766C160.201 279.547 160.383 279.216 160.383 278.773C160.383 278.44 160.237 278.156 159.945 277.922C159.659 277.682 159.096 277.401 158.258 277.078C157.461 276.781 156.893 276.523 156.555 276.305C156.221 276.081 155.971 275.828 155.805 275.547C155.643 275.266 155.562 274.93 155.562 274.539C155.562 273.841 155.846 273.292 156.414 272.891C156.982 272.484 157.76 272.281 158.75 272.281C159.672 272.281 160.573 272.469 161.453 272.844L160.992 273.898C160.133 273.544 159.354 273.367 158.656 273.367C158.042 273.367 157.578 273.464 157.266 273.656C156.953 273.849 156.797 274.115 156.797 274.453C156.797 274.682 156.854 274.878 156.969 275.039C157.089 275.201 157.279 275.354 157.539 275.5C157.799 275.646 158.299 275.857 159.039 276.133C160.055 276.503 160.74 276.875 161.094 277.25C161.453 277.625 161.633 278.096 161.633 278.664ZM165.047 281H163.75V272.438H165.047V281ZM163.641 270.117C163.641 269.82 163.714 269.604 163.859 269.469C164.005 269.328 164.188 269.258 164.406 269.258C164.615 269.258 164.794 269.328 164.945 269.469C165.096 269.609 165.172 269.826 165.172 270.117C165.172 270.409 165.096 270.628 164.945 270.773C164.794 270.914 164.615 270.984 164.406 270.984C164.188 270.984 164.005 270.914 163.859 270.773C163.714 270.628 163.641 270.409 163.641 270.117ZM173.656 281V275.461C173.656 274.763 173.497 274.242 173.18 273.898C172.862 273.555 172.365 273.383 171.688 273.383C170.792 273.383 170.135 273.625 169.719 274.109C169.302 274.594 169.094 275.393 169.094 276.508V281H167.797V272.438H168.852L169.062 273.609H169.125C169.391 273.188 169.763 272.862 170.242 272.633C170.721 272.398 171.255 272.281 171.844 272.281C172.875 272.281 173.651 272.531 174.172 273.031C174.693 273.526 174.953 274.32 174.953 275.414V281H173.656ZM184.633 272.438V273.258L183.047 273.445C183.193 273.628 183.323 273.867 183.438 274.164C183.552 274.456 183.609 274.786 183.609 275.156C183.609 275.995 183.323 276.664 182.75 277.164C182.177 277.664 181.391 277.914 180.391 277.914C180.135 277.914 179.896 277.893 179.672 277.852C179.12 278.143 178.844 278.51 178.844 278.953C178.844 279.188 178.94 279.362 179.133 279.477C179.326 279.586 179.656 279.641 180.125 279.641H181.641C182.568 279.641 183.279 279.836 183.773 280.227C184.273 280.617 184.523 281.185 184.523 281.93C184.523 282.878 184.143 283.599 183.383 284.094C182.622 284.594 181.513 284.844 180.055 284.844C178.935 284.844 178.07 284.635 177.461 284.219C176.857 283.802 176.555 283.214 176.555 282.453C176.555 281.932 176.721 281.482 177.055 281.102C177.388 280.721 177.857 280.464 178.461 280.328C178.242 280.229 178.057 280.076 177.906 279.867C177.76 279.659 177.688 279.417 177.688 279.141C177.688 278.828 177.771 278.555 177.938 278.32C178.104 278.086 178.367 277.859 178.727 277.641C178.284 277.458 177.922 277.148 177.641 276.711C177.365 276.273 177.227 275.773 177.227 275.211C177.227 274.273 177.508 273.552 178.07 273.047C178.633 272.536 179.43 272.281 180.461 272.281C180.909 272.281 181.312 272.333 181.672 272.438H184.633ZM177.805 282.438C177.805 282.901 178 283.253 178.391 283.492C178.781 283.732 179.341 283.852 180.07 283.852C181.159 283.852 181.964 283.688 182.484 283.359C183.01 283.036 183.273 282.596 183.273 282.039C183.273 281.576 183.13 281.253 182.844 281.07C182.557 280.893 182.018 280.805 181.227 280.805H179.672C179.083 280.805 178.625 280.945 178.297 281.227C177.969 281.508 177.805 281.911 177.805 282.438ZM178.508 275.18C178.508 275.779 178.677 276.232 179.016 276.539C179.354 276.846 179.826 277 180.43 277C181.695 277 182.328 276.385 182.328 275.156C182.328 273.87 181.688 273.227 180.406 273.227C179.797 273.227 179.328 273.391 179 273.719C178.672 274.047 178.508 274.534 178.508 275.18ZM194.531 281.156C193.974 281.156 193.464 281.055 193 280.852C192.542 280.643 192.156 280.326 191.844 279.898H191.75C191.812 280.398 191.844 280.872 191.844 281.32V284.844H190.547V272.438H191.602L191.781 273.609H191.844C192.177 273.141 192.565 272.802 193.008 272.594C193.451 272.385 193.958 272.281 194.531 272.281C195.667 272.281 196.542 272.669 197.156 273.445C197.776 274.221 198.086 275.31 198.086 276.711C198.086 278.117 197.771 279.211 197.141 279.992C196.516 280.768 195.646 281.156 194.531 281.156ZM194.344 273.383C193.469 273.383 192.836 273.625 192.445 274.109C192.055 274.594 191.854 275.365 191.844 276.422V276.711C191.844 277.914 192.044 278.776 192.445 279.297C192.846 279.812 193.49 280.07 194.375 280.07C195.115 280.07 195.693 279.771 196.109 279.172C196.531 278.573 196.742 277.747 196.742 276.695C196.742 275.628 196.531 274.81 196.109 274.242C195.693 273.669 195.104 273.383 194.344 273.383ZM205.625 281L205.367 279.781H205.305C204.878 280.318 204.451 280.682 204.023 280.875C203.602 281.062 203.073 281.156 202.438 281.156C201.589 281.156 200.922 280.938 200.438 280.5C199.958 280.062 199.719 279.44 199.719 278.633C199.719 276.904 201.102 275.997 203.867 275.914L205.32 275.867V275.336C205.32 274.664 205.174 274.169 204.883 273.852C204.596 273.529 204.135 273.367 203.5 273.367C202.786 273.367 201.979 273.586 201.078 274.023L200.68 273.031C201.102 272.802 201.562 272.622 202.062 272.492C202.568 272.362 203.073 272.297 203.578 272.297C204.599 272.297 205.354 272.523 205.844 272.977C206.339 273.43 206.586 274.156 206.586 275.156V281H205.625ZM202.695 280.086C203.503 280.086 204.135 279.865 204.594 279.422C205.057 278.979 205.289 278.359 205.289 277.562V276.789L203.992 276.844C202.961 276.88 202.216 277.042 201.758 277.328C201.305 277.609 201.078 278.049 201.078 278.648C201.078 279.117 201.219 279.474 201.5 279.719C201.786 279.964 202.185 280.086 202.695 280.086ZM214.789 278.664C214.789 279.461 214.492 280.076 213.898 280.508C213.305 280.94 212.471 281.156 211.398 281.156C210.263 281.156 209.378 280.977 208.742 280.617V279.414C209.154 279.622 209.594 279.786 210.062 279.906C210.536 280.026 210.992 280.086 211.43 280.086C212.107 280.086 212.628 279.979 212.992 279.766C213.357 279.547 213.539 279.216 213.539 278.773C213.539 278.44 213.393 278.156 213.102 277.922C212.815 277.682 212.253 277.401 211.414 277.078C210.617 276.781 210.049 276.523 209.711 276.305C209.378 276.081 209.128 275.828 208.961 275.547C208.799 275.266 208.719 274.93 208.719 274.539C208.719 273.841 209.003 273.292 209.57 272.891C210.138 272.484 210.917 272.281 211.906 272.281C212.828 272.281 213.729 272.469 214.609 272.844L214.148 273.898C213.289 273.544 212.51 273.367 211.812 273.367C211.198 273.367 210.734 273.464 210.422 273.656C210.109 273.849 209.953 274.115 209.953 274.453C209.953 274.682 210.01 274.878 210.125 275.039C210.245 275.201 210.435 275.354 210.695 275.5C210.956 275.646 211.456 275.857 212.195 276.133C213.211 276.503 213.896 276.875 214.25 277.25C214.609 277.625 214.789 278.096 214.789 278.664ZM219.672 280.086C219.901 280.086 220.122 280.07 220.336 280.039C220.549 280.003 220.719 279.966 220.844 279.93V280.922C220.703 280.99 220.495 281.044 220.219 281.086C219.948 281.133 219.703 281.156 219.484 281.156C217.828 281.156 217 280.284 217 278.539V273.445H215.773V272.82L217 272.281L217.547 270.453H218.297V272.438H220.781V273.445H218.297V278.484C218.297 279 218.419 279.396 218.664 279.672C218.909 279.948 219.245 280.086 219.672 280.086ZM29.3594 303.156C28.8021 303.156 28.2917 303.055 27.8281 302.852C27.3698 302.643 26.9844 302.326 26.6719 301.898H26.5781C26.6406 302.398 26.6719 302.872 26.6719 303.32V306.844H25.375V294.438H26.4297L26.6094 295.609H26.6719C27.0052 295.141 27.3932 294.802 27.8359 294.594C28.2786 294.385 28.7865 294.281 29.3594 294.281C30.4948 294.281 31.3698 294.669 31.9844 295.445C32.6042 296.221 32.9141 297.31 32.9141 298.711C32.9141 300.117 32.599 301.211 31.9688 301.992C31.3438 302.768 30.474 303.156 29.3594 303.156ZM29.1719 295.383C28.2969 295.383 27.6641 295.625 27.2734 296.109C26.8828 296.594 26.6823 297.365 26.6719 298.422V298.711C26.6719 299.914 26.8724 300.776 27.2734 301.297C27.6745 301.812 28.3177 302.07 29.2031 302.07C29.9427 302.07 30.5208 301.771 30.9375 301.172C31.3594 300.573 31.5703 299.747 31.5703 298.695C31.5703 297.628 31.3594 296.81 30.9375 296.242C30.5208 295.669 29.9323 295.383 29.1719 295.383ZM40.4531 303L40.1953 301.781H40.1328C39.7057 302.318 39.2786 302.682 38.8516 302.875C38.4297 303.062 37.901 303.156 37.2656 303.156C36.4167 303.156 35.75 302.938 35.2656 302.5C34.7865 302.062 34.5469 301.44 34.5469 300.633C34.5469 298.904 35.9297 297.997 38.6953 297.914L40.1484 297.867V297.336C40.1484 296.664 40.0026 296.169 39.7109 295.852C39.4245 295.529 38.9635 295.367 38.3281 295.367C37.6146 295.367 36.8073 295.586 35.9062 296.023L35.5078 295.031C35.9297 294.802 36.3906 294.622 36.8906 294.492C37.3958 294.362 37.901 294.297 38.4062 294.297C39.4271 294.297 40.1823 294.523 40.6719 294.977C41.1667 295.43 41.4141 296.156 41.4141 297.156V303H40.4531ZM37.5234 302.086C38.3307 302.086 38.9635 301.865 39.4219 301.422C39.8854 300.979 40.1172 300.359 40.1172 299.562V298.789L38.8203 298.844C37.7891 298.88 37.0443 299.042 36.5859 299.328C36.1328 299.609 35.9062 300.049 35.9062 300.648C35.9062 301.117 36.0469 301.474 36.3281 301.719C36.6146 301.964 37.013 302.086 37.5234 302.086ZM42.7344 294.438H44.125L46 299.32C46.4115 300.435 46.6667 301.24 46.7656 301.734H46.8281C46.8958 301.469 47.0365 301.016 47.25 300.375C47.4688 299.729 48.1771 297.75 49.375 294.438H50.7656L47.0859 304.188C46.7214 305.151 46.2943 305.833 45.8047 306.234C45.3203 306.641 44.724 306.844 44.0156 306.844C43.6198 306.844 43.2292 306.799 42.8438 306.711V305.672C43.1302 305.734 43.4505 305.766 43.8047 305.766C44.6953 305.766 45.3307 305.266 45.7109 304.266L46.1875 303.047L42.7344 294.438ZM63.0703 303V297.43C63.0703 296.747 62.9245 296.237 62.6328 295.898C62.3411 295.555 61.888 295.383 61.2734 295.383C60.4661 295.383 59.8698 295.615 59.4844 296.078C59.099 296.542 58.9062 297.255 58.9062 298.219V303H57.6094V297.43C57.6094 296.747 57.4635 296.237 57.1719 295.898C56.8802 295.555 56.4245 295.383 55.8047 295.383C54.9922 295.383 54.3958 295.628 54.0156 296.117C53.6406 296.602 53.4531 297.398 53.4531 298.508V303H52.1562V294.438H53.2109L53.4219 295.609H53.4844C53.7292 295.193 54.0729 294.867 54.5156 294.633C54.9635 294.398 55.4635 294.281 56.0156 294.281C57.3542 294.281 58.2292 294.766 58.6406 295.734H58.7031C58.9583 295.286 59.3281 294.932 59.8125 294.672C60.2969 294.411 60.849 294.281 61.4688 294.281C62.4375 294.281 63.1615 294.531 63.6406 295.031C64.125 295.526 64.3672 296.32 64.3672 297.414V303H63.0703ZM70.6641 303.156C69.3984 303.156 68.3984 302.771 67.6641 302C66.9349 301.229 66.5703 300.159 66.5703 298.789C66.5703 297.409 66.9089 296.312 67.5859 295.5C68.2682 294.688 69.1823 294.281 70.3281 294.281C71.401 294.281 72.25 294.635 72.875 295.344C73.5 296.047 73.8125 296.977 73.8125 298.133V298.953H67.9141C67.9401 299.958 68.1927 300.721 68.6719 301.242C69.1562 301.763 69.8359 302.023 70.7109 302.023C71.6328 302.023 72.5443 301.831 73.4453 301.445V302.602C72.987 302.799 72.5521 302.94 72.1406 303.023C71.7344 303.112 71.2422 303.156 70.6641 303.156ZM70.3125 295.367C69.625 295.367 69.0755 295.591 68.6641 296.039C68.2578 296.487 68.0182 297.107 67.9453 297.898H72.4219C72.4219 297.081 72.2396 296.456 71.875 296.023C71.5104 295.586 70.9896 295.367 70.3125 295.367ZM81.8906 303V297.461C81.8906 296.763 81.7318 296.242 81.4141 295.898C81.0964 295.555 80.599 295.383 79.9219 295.383C79.026 295.383 78.3698 295.625 77.9531 296.109C77.5365 296.594 77.3281 297.393 77.3281 298.508V303H76.0312V294.438H77.0859L77.2969 295.609H77.3594C77.625 295.188 77.9974 294.862 78.4766 294.633C78.9557 294.398 79.4896 294.281 80.0781 294.281C81.1094 294.281 81.8854 294.531 82.4062 295.031C82.9271 295.526 83.1875 296.32 83.1875 297.414V303H81.8906ZM88.625 302.086C88.8542 302.086 89.0755 302.07 89.2891 302.039C89.5026 302.003 89.6719 301.966 89.7969 301.93V302.922C89.6562 302.99 89.4479 303.044 89.1719 303.086C88.901 303.133 88.6562 303.156 88.4375 303.156C86.7812 303.156 85.9531 302.284 85.9531 300.539V295.445H84.7266V294.82L85.9531 294.281L86.5 292.453H87.25V294.438H89.7344V295.445H87.25V300.484C87.25 301 87.3724 301.396 87.6172 301.672C87.862 301.948 88.1979 302.086 88.625 302.086ZM101.531 303V297.461C101.531 296.763 101.372 296.242 101.055 295.898C100.737 295.555 100.24 295.383 99.5625 295.383C98.6615 295.383 98.0026 295.628 97.5859 296.117C97.1745 296.607 96.9688 297.409 96.9688 298.523V303H95.6719V290.844H96.9688V294.523C96.9688 294.966 96.9479 295.333 96.9062 295.625H96.9844C97.2396 295.214 97.6016 294.891 98.0703 294.656C98.5443 294.417 99.0833 294.297 99.6875 294.297C100.734 294.297 101.518 294.547 102.039 295.047C102.565 295.542 102.828 296.331 102.828 297.414V303H101.531ZM106.797 303H105.5V294.438H106.797V303ZM105.391 292.117C105.391 291.82 105.464 291.604 105.609 291.469C105.755 291.328 105.938 291.258 106.156 291.258C106.365 291.258 106.544 291.328 106.695 291.469C106.846 291.609 106.922 291.826 106.922 292.117C106.922 292.409 106.846 292.628 106.695 292.773C106.544 292.914 106.365 292.984 106.156 292.984C105.938 292.984 105.755 292.914 105.609 292.773C105.464 292.628 105.391 292.409 105.391 292.117ZM115.07 300.664C115.07 301.461 114.773 302.076 114.18 302.508C113.586 302.94 112.753 303.156 111.68 303.156C110.544 303.156 109.659 302.977 109.023 302.617V301.414C109.435 301.622 109.875 301.786 110.344 301.906C110.818 302.026 111.273 302.086 111.711 302.086C112.388 302.086 112.909 301.979 113.273 301.766C113.638 301.547 113.82 301.216 113.82 300.773C113.82 300.44 113.674 300.156 113.383 299.922C113.096 299.682 112.534 299.401 111.695 299.078C110.898 298.781 110.331 298.523 109.992 298.305C109.659 298.081 109.409 297.828 109.242 297.547C109.081 297.266 109 296.93 109 296.539C109 295.841 109.284 295.292 109.852 294.891C110.419 294.484 111.198 294.281 112.188 294.281C113.109 294.281 114.01 294.469 114.891 294.844L114.43 295.898C113.57 295.544 112.792 295.367 112.094 295.367C111.479 295.367 111.016 295.464 110.703 295.656C110.391 295.849 110.234 296.115 110.234 296.453C110.234 296.682 110.292 296.878 110.406 297.039C110.526 297.201 110.716 297.354 110.977 297.5C111.237 297.646 111.737 297.857 112.477 298.133C113.492 298.503 114.177 298.875 114.531 299.25C114.891 299.625 115.07 300.096 115.07 300.664ZM119.953 302.086C120.182 302.086 120.404 302.07 120.617 302.039C120.831 302.003 121 301.966 121.125 301.93V302.922C120.984 302.99 120.776 303.044 120.5 303.086C120.229 303.133 119.984 303.156 119.766 303.156C118.109 303.156 117.281 302.284 117.281 300.539V295.445H116.055V294.82L117.281 294.281L117.828 292.453H118.578V294.438H121.062V295.445H118.578V300.484C118.578 301 118.701 301.396 118.945 301.672C119.19 301.948 119.526 302.086 119.953 302.086ZM130.234 298.711C130.234 300.107 129.883 301.198 129.18 301.984C128.477 302.766 127.505 303.156 126.266 303.156C125.5 303.156 124.82 302.977 124.227 302.617C123.633 302.258 123.174 301.742 122.852 301.07C122.529 300.398 122.367 299.612 122.367 298.711C122.367 297.315 122.716 296.229 123.414 295.453C124.112 294.672 125.081 294.281 126.32 294.281C127.518 294.281 128.469 294.68 129.172 295.477C129.88 296.273 130.234 297.352 130.234 298.711ZM123.711 298.711C123.711 299.805 123.93 300.638 124.367 301.211C124.805 301.784 125.448 302.07 126.297 302.07C127.146 302.07 127.789 301.786 128.227 301.219C128.669 300.646 128.891 299.81 128.891 298.711C128.891 297.622 128.669 296.797 128.227 296.234C127.789 295.667 127.141 295.383 126.281 295.383C125.432 295.383 124.792 295.661 124.359 296.219C123.927 296.776 123.711 297.607 123.711 298.711ZM136.422 294.281C136.802 294.281 137.143 294.312 137.445 294.375L137.266 295.578C136.911 295.5 136.599 295.461 136.328 295.461C135.635 295.461 135.042 295.742 134.547 296.305C134.057 296.867 133.812 297.568 133.812 298.406V303H132.516V294.438H133.586L133.734 296.023H133.797C134.115 295.466 134.497 295.036 134.945 294.734C135.393 294.432 135.885 294.281 136.422 294.281ZM137.688 294.438H139.078L140.953 299.32C141.365 300.435 141.62 301.24 141.719 301.734H141.781C141.849 301.469 141.99 301.016 142.203 300.375C142.422 299.729 143.13 297.75 144.328 294.438H145.719L142.039 304.188C141.674 305.151 141.247 305.833 140.758 306.234C140.273 306.641 139.677 306.844 138.969 306.844C138.573 306.844 138.182 306.799 137.797 306.711V305.672C138.083 305.734 138.404 305.766 138.758 305.766C139.648 305.766 140.284 305.266 140.664 304.266L141.141 303.047L137.688 294.438Z" fill="#303030"/>
<circle cx="65" cy="65" r="65" fill="#24633D"/>
<path d="M88.6252 67.0089H71.2964C70.5391 67.0089 69.9218 67.6262 69.9218 68.3834C69.9218 68.769 70.0857 69.1165 70.3412 69.3671L82.5433 81.5692C82.7939 81.8392 83.156 82.0082 83.5516 82.0082C84.0289 82.0082 84.4484 81.767 84.6944 81.4005C87.6944 77.9182 89.6236 73.4956 89.971 68.6292C89.9903 68.5473 89.9998 68.4653 89.9998 68.3832C90 67.6262 89.3873 67.0089 88.6252 67.0089Z" fill="#F5F5F5"/>
<path d="M66.0634 42.098C65.3061 42.1027 64.6937 42.7154 64.6937 43.4725V62.7306C64.6937 63.4928 65.3061 64.1101 66.0634 64.1101H85.3264C86.0838 64.1101 86.7009 63.4928 86.7009 62.7306C86.0208 51.6477 77.1513 42.7782 66.0634 42.098Z" fill="#F5F5F5"/>
<path d="M76.6498 80.4456L62.4414 66.2372C62.2004 65.9912 62.0557 65.6487 62.0557 65.2774L62.0506 45.2088C62.0506 44.4517 61.4382 43.8391 60.6809 43.8391C49.1396 44.5433 40 54.1313 40 65.8465C40 78.0245 49.8728 87.902 62.0506 87.902C67.6067 87.902 72.6805 85.8475 76.5582 82.4567C76.8573 82.2058 77.0454 81.8298 77.0454 81.4102C77.0454 81.0387 76.8957 80.6962 76.6498 80.4456Z" fill="#F5F5F5"/>
</svg>
