<svg width="318" height="297" viewBox="0 0 318 297" fill="none" xmlns="http://www.w3.org/2000/svg">
<path d="M10.2734 215.156C10.2734 214.526 10.4193 214.047 10.7109 213.719C11.0078 213.391 11.4375 213.227 12 213.227C12.5469 213.227 12.9714 213.388 13.2734 213.711C13.5755 214.034 13.7266 214.516 13.7266 215.156C13.7266 215.776 13.5755 216.255 13.2734 216.594C12.9766 216.927 12.5521 217.094 12 217.094C11.4427 217.094 11.0156 216.924 10.7188 216.586C10.4219 216.242 10.2734 215.766 10.2734 215.156ZM34.1953 209.578V216.969C34.1953 218.271 33.8021 219.294 33.0156 220.039C32.2292 220.784 31.1484 221.156 29.7734 221.156C28.3984 221.156 27.3333 220.781 26.5781 220.031C25.8281 219.281 25.4531 218.25 25.4531 216.938V209.578H26.7812V217.031C26.7812 217.984 27.0417 218.716 27.5625 219.227C28.0833 219.737 28.849 219.992 29.8594 219.992C30.8229 219.992 31.5651 219.737 32.0859 219.227C32.6068 218.711 32.8672 217.974 32.8672 217.016V209.578H34.1953ZM42.5547 218.664C42.5547 219.461 42.2578 220.076 41.6641 220.508C41.0703 220.94 40.237 221.156 39.1641 221.156C38.0286 221.156 37.1432 220.977 36.5078 220.617V219.414C36.9193 219.622 37.3594 219.786 37.8281 219.906C38.3021 220.026 38.7578 220.086 39.1953 220.086C39.8724 220.086 40.3932 219.979 40.7578 219.766C41.1224 219.547 41.3047 219.216 41.3047 218.773C41.3047 218.44 41.1589 218.156 40.8672 217.922C40.5807 217.682 40.0182 217.401 39.1797 217.078C38.3828 216.781 37.8151 216.523 37.4766 216.305C37.1432 216.081 36.8932 215.828 36.7266 215.547C36.5651 215.266 36.4844 214.93 36.4844 214.539C36.4844 213.841 36.7682 213.292 37.3359 212.891C37.9036 212.484 38.6823 212.281 39.6719 212.281C40.5938 212.281 41.4948 212.469 42.375 212.844L41.9141 213.898C41.0547 213.544 40.276 213.367 39.5781 213.367C38.9635 213.367 38.5 213.464 38.1875 213.656C37.875 213.849 37.7188 214.115 37.7188 214.453C37.7188 214.682 37.776 214.878 37.8906 215.039C38.0104 215.201 38.2005 215.354 38.4609 215.5C38.7214 215.646 39.2214 215.857 39.9609 216.133C40.9766 216.503 41.6615 216.875 42.0156 217.25C42.375 217.625 42.5547 218.096 42.5547 218.664ZM48.2891 221.156C47.0234 221.156 46.0234 220.771 45.2891 220C44.5599 219.229 44.1953 218.159 44.1953 216.789C44.1953 215.409 44.5339 214.312 45.2109 213.5C45.8932 212.688 46.8073 212.281 47.9531 212.281C49.026 212.281 49.875 212.635 50.5 213.344C51.125 214.047 51.4375 214.977 51.4375 216.133V216.953H45.5391C45.5651 217.958 45.8177 218.721 46.2969 219.242C46.7812 219.763 47.4609 220.023 48.3359 220.023C49.2578 220.023 50.1693 219.831 51.0703 219.445V220.602C50.612 220.799 50.1771 220.94 49.7656 221.023C49.3594 221.112 48.8672 221.156 48.2891 221.156ZM47.9375 213.367C47.25 213.367 46.7005 213.591 46.2891 214.039C45.8828 214.487 45.6432 215.107 45.5703 215.898H50.0469C50.0469 215.081 49.8646 214.456 49.5 214.023C49.1354 213.586 48.6146 213.367 47.9375 213.367ZM59.4844 219.852H59.4141C58.8151 220.721 57.9193 221.156 56.7266 221.156C55.6068 221.156 54.7344 220.773 54.1094 220.008C53.4896 219.242 53.1797 218.154 53.1797 216.742C53.1797 215.331 53.4922 214.234 54.1172 213.453C54.7422 212.672 55.612 212.281 56.7266 212.281C57.888 212.281 58.7786 212.703 59.3984 213.547H59.5L59.4453 212.93L59.4141 212.328V208.844H60.7109V221H59.6562L59.4844 219.852ZM56.8906 220.07C57.776 220.07 58.4167 219.831 58.8125 219.352C59.2135 218.867 59.4141 218.089 59.4141 217.016V216.742C59.4141 215.529 59.2109 214.664 58.8047 214.148C58.4036 213.628 57.7604 213.367 56.875 213.367C56.1146 213.367 55.5312 213.664 55.125 214.258C54.724 214.846 54.5234 215.68 54.5234 216.758C54.5234 217.852 54.724 218.677 55.125 219.234C55.526 219.792 56.1146 220.07 56.8906 220.07ZM71.3359 221H70.0078V210.758H66.3906V209.578H74.9531V210.758H71.3359V221ZM81.75 221L81.4922 219.781H81.4297C81.0026 220.318 80.5755 220.682 80.1484 220.875C79.7266 221.062 79.1979 221.156 78.5625 221.156C77.7135 221.156 77.0469 220.938 76.5625 220.5C76.0833 220.062 75.8438 219.44 75.8438 218.633C75.8438 216.904 77.2266 215.997 79.9922 215.914L81.4453 215.867V215.336C81.4453 214.664 81.2995 214.169 81.0078 213.852C80.7214 213.529 80.2604 213.367 79.625 213.367C78.9115 213.367 78.1042 213.586 77.2031 214.023L76.8047 213.031C77.2266 212.802 77.6875 212.622 78.1875 212.492C78.6927 212.362 79.1979 212.297 79.7031 212.297C80.724 212.297 81.4792 212.523 81.9688 212.977C82.4635 213.43 82.7109 214.156 82.7109 215.156V221H81.75ZM78.8203 220.086C79.6276 220.086 80.2604 219.865 80.7188 219.422C81.1823 218.979 81.4141 218.359 81.4141 217.562V216.789L80.1172 216.844C79.0859 216.88 78.3411 217.042 77.8828 217.328C77.4297 217.609 77.2031 218.049 77.2031 218.648C77.2031 219.117 77.3438 219.474 77.625 219.719C77.9115 219.964 78.3099 220.086 78.8203 220.086ZM89.375 212.297C90.5 212.297 91.3724 212.682 91.9922 213.453C92.6172 214.219 92.9297 215.305 92.9297 216.711C92.9297 218.117 92.6146 219.211 91.9844 219.992C91.3594 220.768 90.4896 221.156 89.375 221.156C88.8177 221.156 88.3073 221.055 87.8438 220.852C87.3854 220.643 87 220.326 86.6875 219.898H86.5938L86.3203 221H85.3906V208.844H86.6875V211.797C86.6875 212.458 86.6667 213.052 86.625 213.578H86.6875C87.2917 212.724 88.1875 212.297 89.375 212.297ZM89.1875 213.383C88.3021 213.383 87.6641 213.638 87.2734 214.148C86.8828 214.654 86.6875 215.508 86.6875 216.711C86.6875 217.914 86.888 218.776 87.2891 219.297C87.6901 219.812 88.3333 220.07 89.2188 220.07C90.0156 220.07 90.6094 219.781 91 219.203C91.3906 218.62 91.5859 217.784 91.5859 216.695C91.5859 215.581 91.3906 214.75 91 214.203C90.6094 213.656 90.0052 213.383 89.1875 213.383ZM96.5 221H95.2031V208.844H96.5V221ZM102.867 221.156C101.602 221.156 100.602 220.771 99.8672 220C99.138 219.229 98.7734 218.159 98.7734 216.789C98.7734 215.409 99.112 214.312 99.7891 213.5C100.471 212.688 101.385 212.281 102.531 212.281C103.604 212.281 104.453 212.635 105.078 213.344C105.703 214.047 106.016 214.977 106.016 216.133V216.953H100.117C100.143 217.958 100.396 218.721 100.875 219.242C101.359 219.763 102.039 220.023 102.914 220.023C103.836 220.023 104.747 219.831 105.648 219.445V220.602C105.19 220.799 104.755 220.94 104.344 221.023C103.938 221.112 103.445 221.156 102.867 221.156ZM102.516 213.367C101.828 213.367 101.279 213.591 100.867 214.039C100.461 214.487 100.221 215.107 100.148 215.898H104.625C104.625 215.081 104.443 214.456 104.078 214.023C103.714 213.586 103.193 213.367 102.516 213.367ZM113.5 221L113.242 219.781H113.18C112.753 220.318 112.326 220.682 111.898 220.875C111.477 221.062 110.948 221.156 110.312 221.156C109.464 221.156 108.797 220.938 108.312 220.5C107.833 220.062 107.594 219.44 107.594 218.633C107.594 216.904 108.977 215.997 111.742 215.914L113.195 215.867V215.336C113.195 214.664 113.049 214.169 112.758 213.852C112.471 213.529 112.01 213.367 111.375 213.367C110.661 213.367 109.854 213.586 108.953 214.023L108.555 213.031C108.977 212.802 109.438 212.622 109.938 212.492C110.443 212.362 110.948 212.297 111.453 212.297C112.474 212.297 113.229 212.523 113.719 212.977C114.214 213.43 114.461 214.156 114.461 215.156V221H113.5ZM110.57 220.086C111.378 220.086 112.01 219.865 112.469 219.422C112.932 218.979 113.164 218.359 113.164 217.562V216.789L111.867 216.844C110.836 216.88 110.091 217.042 109.633 217.328C109.18 217.609 108.953 218.049 108.953 218.648C108.953 219.117 109.094 219.474 109.375 219.719C109.661 219.964 110.06 220.086 110.57 220.086ZM118.359 212.438V217.992C118.359 218.69 118.518 219.211 118.836 219.555C119.154 219.898 119.651 220.07 120.328 220.07C121.224 220.07 121.878 219.826 122.289 219.336C122.706 218.846 122.914 218.047 122.914 216.938V212.438H124.211V221H123.141L122.953 219.852H122.883C122.617 220.273 122.247 220.596 121.773 220.82C121.305 221.044 120.768 221.156 120.164 221.156C119.122 221.156 118.341 220.909 117.82 220.414C117.305 219.919 117.047 219.128 117.047 218.039V212.438H118.359ZM133.891 220.086C134.12 220.086 134.341 220.07 134.555 220.039C134.768 220.003 134.938 219.966 135.062 219.93V220.922C134.922 220.99 134.714 221.044 134.438 221.086C134.167 221.133 133.922 221.156 133.703 221.156C132.047 221.156 131.219 220.284 131.219 218.539V213.445H129.992V212.82L131.219 212.281L131.766 210.453H132.516V212.438H135V213.445H132.516V218.484C132.516 219 132.638 219.396 132.883 219.672C133.128 219.948 133.464 220.086 133.891 220.086ZM144.172 216.711C144.172 218.107 143.82 219.198 143.117 219.984C142.414 220.766 141.443 221.156 140.203 221.156C139.438 221.156 138.758 220.977 138.164 220.617C137.57 220.258 137.112 219.742 136.789 219.07C136.466 218.398 136.305 217.612 136.305 216.711C136.305 215.315 136.654 214.229 137.352 213.453C138.049 212.672 139.018 212.281 140.258 212.281C141.456 212.281 142.406 212.68 143.109 213.477C143.818 214.273 144.172 215.352 144.172 216.711ZM137.648 216.711C137.648 217.805 137.867 218.638 138.305 219.211C138.742 219.784 139.385 220.07 140.234 220.07C141.083 220.07 141.727 219.786 142.164 219.219C142.607 218.646 142.828 217.81 142.828 216.711C142.828 215.622 142.607 214.797 142.164 214.234C141.727 213.667 141.078 213.383 140.219 213.383C139.37 213.383 138.729 213.661 138.297 214.219C137.865 214.776 137.648 215.607 137.648 216.711ZM152.484 221L149.234 212.438H150.625L152.469 217.516C152.885 218.703 153.13 219.474 153.203 219.828H153.266C153.323 219.552 153.503 218.982 153.805 218.117C154.112 217.247 154.797 215.354 155.859 212.438H157.25L154 221H152.484ZM159.922 221H158.625V212.438H159.922V221ZM158.516 210.117C158.516 209.82 158.589 209.604 158.734 209.469C158.88 209.328 159.062 209.258 159.281 209.258C159.49 209.258 159.669 209.328 159.82 209.469C159.971 209.609 160.047 209.826 160.047 210.117C160.047 210.409 159.971 210.628 159.82 210.773C159.669 210.914 159.49 210.984 159.281 210.984C159.062 210.984 158.88 210.914 158.734 210.773C158.589 210.628 158.516 210.409 158.516 210.117ZM168.195 218.664C168.195 219.461 167.898 220.076 167.305 220.508C166.711 220.94 165.878 221.156 164.805 221.156C163.669 221.156 162.784 220.977 162.148 220.617V219.414C162.56 219.622 163 219.786 163.469 219.906C163.943 220.026 164.398 220.086 164.836 220.086C165.513 220.086 166.034 219.979 166.398 219.766C166.763 219.547 166.945 219.216 166.945 218.773C166.945 218.44 166.799 218.156 166.508 217.922C166.221 217.682 165.659 217.401 164.82 217.078C164.023 216.781 163.456 216.523 163.117 216.305C162.784 216.081 162.534 215.828 162.367 215.547C162.206 215.266 162.125 214.93 162.125 214.539C162.125 213.841 162.409 213.292 162.977 212.891C163.544 212.484 164.323 212.281 165.312 212.281C166.234 212.281 167.135 212.469 168.016 212.844L167.555 213.898C166.695 213.544 165.917 213.367 165.219 213.367C164.604 213.367 164.141 213.464 163.828 213.656C163.516 213.849 163.359 214.115 163.359 214.453C163.359 214.682 163.417 214.878 163.531 215.039C163.651 215.201 163.841 215.354 164.102 215.5C164.362 215.646 164.862 215.857 165.602 216.133C166.617 216.503 167.302 216.875 167.656 217.25C168.016 217.625 168.195 218.096 168.195 218.664ZM171.531 212.438V217.992C171.531 218.69 171.69 219.211 172.008 219.555C172.326 219.898 172.823 220.07 173.5 220.07C174.396 220.07 175.049 219.826 175.461 219.336C175.878 218.846 176.086 218.047 176.086 216.938V212.438H177.383V221H176.312L176.125 219.852H176.055C175.789 220.273 175.419 220.596 174.945 220.82C174.477 221.044 173.94 221.156 173.336 221.156C172.294 221.156 171.513 220.909 170.992 220.414C170.477 219.919 170.219 219.128 170.219 218.039V212.438H171.531ZM185.406 221L185.148 219.781H185.086C184.659 220.318 184.232 220.682 183.805 220.875C183.383 221.062 182.854 221.156 182.219 221.156C181.37 221.156 180.703 220.938 180.219 220.5C179.74 220.062 179.5 219.44 179.5 218.633C179.5 216.904 180.883 215.997 183.648 215.914L185.102 215.867V215.336C185.102 214.664 184.956 214.169 184.664 213.852C184.378 213.529 183.917 213.367 183.281 213.367C182.568 213.367 181.76 213.586 180.859 214.023L180.461 213.031C180.883 212.802 181.344 212.622 181.844 212.492C182.349 212.362 182.854 212.297 183.359 212.297C184.38 212.297 185.135 212.523 185.625 212.977C186.12 213.43 186.367 214.156 186.367 215.156V221H185.406ZM182.477 220.086C183.284 220.086 183.917 219.865 184.375 219.422C184.839 218.979 185.07 218.359 185.07 217.562V216.789L183.773 216.844C182.742 216.88 181.997 217.042 181.539 217.328C181.086 217.609 180.859 218.049 180.859 218.648C180.859 219.117 181 219.474 181.281 219.719C181.568 219.964 181.966 220.086 182.477 220.086ZM190.344 221H189.047V208.844H190.344V221ZM194.391 221H193.094V212.438H194.391V221ZM192.984 210.117C192.984 209.82 193.057 209.604 193.203 209.469C193.349 209.328 193.531 209.258 193.75 209.258C193.958 209.258 194.138 209.328 194.289 209.469C194.44 209.609 194.516 209.826 194.516 210.117C194.516 210.409 194.44 210.628 194.289 210.773C194.138 210.914 193.958 210.984 193.75 210.984C193.531 210.984 193.349 210.914 193.203 210.773C193.057 210.628 192.984 210.409 192.984 210.117ZM202.617 221H196.406V220.117L201.078 213.445H196.695V212.438H202.5V213.445L197.891 219.992H202.617V221ZM208.242 221.156C206.977 221.156 205.977 220.771 205.242 220C204.513 219.229 204.148 218.159 204.148 216.789C204.148 215.409 204.487 214.312 205.164 213.5C205.846 212.688 206.76 212.281 207.906 212.281C208.979 212.281 209.828 212.635 210.453 213.344C211.078 214.047 211.391 214.977 211.391 216.133V216.953H205.492C205.518 217.958 205.771 218.721 206.25 219.242C206.734 219.763 207.414 220.023 208.289 220.023C209.211 220.023 210.122 219.831 211.023 219.445V220.602C210.565 220.799 210.13 220.94 209.719 221.023C209.312 221.112 208.82 221.156 208.242 221.156ZM207.891 213.367C207.203 213.367 206.654 213.591 206.242 214.039C205.836 214.487 205.596 215.107 205.523 215.898H210C210 215.081 209.818 214.456 209.453 214.023C209.089 213.586 208.568 213.367 207.891 213.367ZM221.75 221.156C221.193 221.156 220.682 221.055 220.219 220.852C219.76 220.643 219.375 220.326 219.062 219.898H218.969C219.031 220.398 219.062 220.872 219.062 221.32V224.844H217.766V212.438H218.82L219 213.609H219.062C219.396 213.141 219.784 212.802 220.227 212.594C220.669 212.385 221.177 212.281 221.75 212.281C222.885 212.281 223.76 212.669 224.375 213.445C224.995 214.221 225.305 215.31 225.305 216.711C225.305 218.117 224.99 219.211 224.359 219.992C223.734 220.768 222.865 221.156 221.75 221.156ZM221.562 213.383C220.688 213.383 220.055 213.625 219.664 214.109C219.273 214.594 219.073 215.365 219.062 216.422V216.711C219.062 217.914 219.263 218.776 219.664 219.297C220.065 219.812 220.708 220.07 221.594 220.07C222.333 220.07 222.911 219.771 223.328 219.172C223.75 218.573 223.961 217.747 223.961 216.695C223.961 215.628 223.75 214.81 223.328 214.242C222.911 213.669 222.323 213.383 221.562 213.383ZM232.844 221L232.586 219.781H232.523C232.096 220.318 231.669 220.682 231.242 220.875C230.82 221.062 230.292 221.156 229.656 221.156C228.807 221.156 228.141 220.938 227.656 220.5C227.177 220.062 226.938 219.44 226.938 218.633C226.938 216.904 228.32 215.997 231.086 215.914L232.539 215.867V215.336C232.539 214.664 232.393 214.169 232.102 213.852C231.815 213.529 231.354 213.367 230.719 213.367C230.005 213.367 229.198 213.586 228.297 214.023L227.898 213.031C228.32 212.802 228.781 212.622 229.281 212.492C229.786 212.362 230.292 212.297 230.797 212.297C231.818 212.297 232.573 212.523 233.062 212.977C233.557 213.43 233.805 214.156 233.805 215.156V221H232.844ZM229.914 220.086C230.721 220.086 231.354 219.865 231.812 219.422C232.276 218.979 232.508 218.359 232.508 217.562V216.789L231.211 216.844C230.18 216.88 229.435 217.042 228.977 217.328C228.523 217.609 228.297 218.049 228.297 218.648C228.297 219.117 228.438 219.474 228.719 219.719C229.005 219.964 229.404 220.086 229.914 220.086ZM235.125 212.438H236.516L238.391 217.32C238.802 218.435 239.057 219.24 239.156 219.734H239.219C239.286 219.469 239.427 219.016 239.641 218.375C239.859 217.729 240.568 215.75 241.766 212.438H243.156L239.477 222.188C239.112 223.151 238.685 223.833 238.195 224.234C237.711 224.641 237.115 224.844 236.406 224.844C236.01 224.844 235.62 224.799 235.234 224.711V223.672C235.521 223.734 235.841 223.766 236.195 223.766C237.086 223.766 237.721 223.266 238.102 222.266L238.578 221.047L235.125 212.438ZM255.461 221V215.43C255.461 214.747 255.315 214.237 255.023 213.898C254.732 213.555 254.279 213.383 253.664 213.383C252.857 213.383 252.26 213.615 251.875 214.078C251.49 214.542 251.297 215.255 251.297 216.219V221H250V215.43C250 214.747 249.854 214.237 249.562 213.898C249.271 213.555 248.815 213.383 248.195 213.383C247.383 213.383 246.786 213.628 246.406 214.117C246.031 214.602 245.844 215.398 245.844 216.508V221H244.547V212.438H245.602L245.812 213.609H245.875C246.12 213.193 246.464 212.867 246.906 212.633C247.354 212.398 247.854 212.281 248.406 212.281C249.745 212.281 250.62 212.766 251.031 213.734H251.094C251.349 213.286 251.719 212.932 252.203 212.672C252.688 212.411 253.24 212.281 253.859 212.281C254.828 212.281 255.552 212.531 256.031 213.031C256.516 213.526 256.758 214.32 256.758 215.414V221H255.461ZM263.055 221.156C261.789 221.156 260.789 220.771 260.055 220C259.326 219.229 258.961 218.159 258.961 216.789C258.961 215.409 259.299 214.312 259.977 213.5C260.659 212.688 261.573 212.281 262.719 212.281C263.792 212.281 264.641 212.635 265.266 213.344C265.891 214.047 266.203 214.977 266.203 216.133V216.953H260.305C260.331 217.958 260.583 218.721 261.062 219.242C261.547 219.763 262.227 220.023 263.102 220.023C264.023 220.023 264.935 219.831 265.836 219.445V220.602C265.378 220.799 264.943 220.94 264.531 221.023C264.125 221.112 263.633 221.156 263.055 221.156ZM262.703 213.367C262.016 213.367 261.466 213.591 261.055 214.039C260.648 214.487 260.409 215.107 260.336 215.898H264.812C264.812 215.081 264.63 214.456 264.266 214.023C263.901 213.586 263.38 213.367 262.703 213.367ZM274.281 221V215.461C274.281 214.763 274.122 214.242 273.805 213.898C273.487 213.555 272.99 213.383 272.312 213.383C271.417 213.383 270.76 213.625 270.344 214.109C269.927 214.594 269.719 215.393 269.719 216.508V221H268.422V212.438H269.477L269.688 213.609H269.75C270.016 213.188 270.388 212.862 270.867 212.633C271.346 212.398 271.88 212.281 272.469 212.281C273.5 212.281 274.276 212.531 274.797 213.031C275.318 213.526 275.578 214.32 275.578 215.414V221H274.281ZM281.016 220.086C281.245 220.086 281.466 220.07 281.68 220.039C281.893 220.003 282.062 219.966 282.188 219.93V220.922C282.047 220.99 281.839 221.044 281.562 221.086C281.292 221.133 281.047 221.156 280.828 221.156C279.172 221.156 278.344 220.284 278.344 218.539V213.445H277.117V212.82L278.344 212.281L278.891 210.453H279.641V212.438H282.125V213.445H279.641V218.484C279.641 219 279.763 219.396 280.008 219.672C280.253 219.948 280.589 220.086 281.016 220.086ZM31.2344 243V237.461C31.2344 236.763 31.0755 236.242 30.7578 235.898C30.4401 235.555 29.9427 235.383 29.2656 235.383C28.3646 235.383 27.7057 235.628 27.2891 236.117C26.8776 236.607 26.6719 237.409 26.6719 238.523V243H25.375V230.844H26.6719V234.523C26.6719 234.966 26.651 235.333 26.6094 235.625H26.6875C26.9427 235.214 27.3047 234.891 27.7734 234.656C28.2474 234.417 28.7865 234.297 29.3906 234.297C30.4375 234.297 31.2214 234.547 31.7422 235.047C32.2682 235.542 32.5312 236.331 32.5312 237.414V243H31.2344ZM36.5 243H35.2031V234.438H36.5V243ZM35.0938 232.117C35.0938 231.82 35.1667 231.604 35.3125 231.469C35.4583 231.328 35.6406 231.258 35.8594 231.258C36.0677 231.258 36.2474 231.328 36.3984 231.469C36.5495 231.609 36.625 231.826 36.625 232.117C36.625 232.409 36.5495 232.628 36.3984 232.773C36.2474 232.914 36.0677 232.984 35.8594 232.984C35.6406 232.984 35.4583 232.914 35.3125 232.773C35.1667 232.628 35.0938 232.409 35.0938 232.117ZM44.7734 240.664C44.7734 241.461 44.4766 242.076 43.8828 242.508C43.2891 242.94 42.4557 243.156 41.3828 243.156C40.2474 243.156 39.362 242.977 38.7266 242.617V241.414C39.138 241.622 39.5781 241.786 40.0469 241.906C40.5208 242.026 40.9766 242.086 41.4141 242.086C42.0911 242.086 42.612 241.979 42.9766 241.766C43.3411 241.547 43.5234 241.216 43.5234 240.773C43.5234 240.44 43.3776 240.156 43.0859 239.922C42.7995 239.682 42.237 239.401 41.3984 239.078C40.6016 238.781 40.0339 238.523 39.6953 238.305C39.362 238.081 39.112 237.828 38.9453 237.547C38.7839 237.266 38.7031 236.93 38.7031 236.539C38.7031 235.841 38.987 235.292 39.5547 234.891C40.1224 234.484 40.901 234.281 41.8906 234.281C42.8125 234.281 43.7135 234.469 44.5938 234.844L44.1328 235.898C43.2734 235.544 42.4948 235.367 41.7969 235.367C41.1823 235.367 40.7188 235.464 40.4062 235.656C40.0938 235.849 39.9375 236.115 39.9375 236.453C39.9375 236.682 39.9948 236.878 40.1094 237.039C40.2292 237.201 40.4193 237.354 40.6797 237.5C40.9401 237.646 41.4401 237.857 42.1797 238.133C43.1953 238.503 43.8802 238.875 44.2344 239.25C44.5938 239.625 44.7734 240.096 44.7734 240.664ZM49.6562 242.086C49.8854 242.086 50.1068 242.07 50.3203 242.039C50.5339 242.003 50.7031 241.966 50.8281 241.93V242.922C50.6875 242.99 50.4792 243.044 50.2031 243.086C49.9323 243.133 49.6875 243.156 49.4688 243.156C47.8125 243.156 46.9844 242.284 46.9844 240.539V235.445H45.7578V234.82L46.9844 234.281L47.5312 232.453H48.2812V234.438H50.7656V235.445H48.2812V240.484C48.2812 241 48.4036 241.396 48.6484 241.672C48.8932 241.948 49.2292 242.086 49.6562 242.086ZM59.9375 238.711C59.9375 240.107 59.5859 241.198 58.8828 241.984C58.1797 242.766 57.2083 243.156 55.9688 243.156C55.2031 243.156 54.5234 242.977 53.9297 242.617C53.3359 242.258 52.8776 241.742 52.5547 241.07C52.2318 240.398 52.0703 239.612 52.0703 238.711C52.0703 237.315 52.4193 236.229 53.1172 235.453C53.8151 234.672 54.7839 234.281 56.0234 234.281C57.2214 234.281 58.1719 234.68 58.875 235.477C59.5833 236.273 59.9375 237.352 59.9375 238.711ZM53.4141 238.711C53.4141 239.805 53.6328 240.638 54.0703 241.211C54.5078 241.784 55.151 242.07 56 242.07C56.849 242.07 57.4922 241.786 57.9297 241.219C58.3724 240.646 58.5938 239.81 58.5938 238.711C58.5938 237.622 58.3724 236.797 57.9297 236.234C57.4922 235.667 56.8438 235.383 55.9844 235.383C55.1354 235.383 54.4948 235.661 54.0625 236.219C53.6302 236.776 53.4141 237.607 53.4141 238.711ZM66.125 234.281C66.5052 234.281 66.8464 234.312 67.1484 234.375L66.9688 235.578C66.6146 235.5 66.3021 235.461 66.0312 235.461C65.3385 235.461 64.7448 235.742 64.25 236.305C63.7604 236.867 63.5156 237.568 63.5156 238.406V243H62.2188V234.438H63.2891L63.4375 236.023H63.5C63.8177 235.466 64.2005 235.036 64.6484 234.734C65.0964 234.432 65.5885 234.281 66.125 234.281ZM67.3906 234.438H68.7812L70.6562 239.32C71.0677 240.435 71.3229 241.24 71.4219 241.734H71.4844C71.5521 241.469 71.6927 241.016 71.9062 240.375C72.125 239.729 72.8333 237.75 74.0312 234.438H75.4219L71.7422 244.188C71.3776 245.151 70.9505 245.833 70.4609 246.234C69.9766 246.641 69.3802 246.844 68.6719 246.844C68.276 246.844 67.8854 246.799 67.5 246.711V245.672C67.7865 245.734 68.1068 245.766 68.4609 245.766C69.3516 245.766 69.987 245.266 70.3672 244.266L70.8438 243.047L67.3906 234.438Z" fill="#303030"/>
<path d="M10.2734 286.156C10.2734 285.526 10.4193 285.047 10.7109 284.719C11.0078 284.391 11.4375 284.227 12 284.227C12.5469 284.227 12.9714 284.388 13.2734 284.711C13.5755 285.034 13.7266 285.516 13.7266 286.156C13.7266 286.776 13.5755 287.255 13.2734 287.594C12.9766 287.927 12.5521 288.094 12 288.094C11.4427 288.094 11.0156 287.924 10.7188 287.586C10.4219 287.242 10.2734 286.766 10.2734 286.156ZM34.1953 280.578V287.969C34.1953 289.271 33.8021 290.294 33.0156 291.039C32.2292 291.784 31.1484 292.156 29.7734 292.156C28.3984 292.156 27.3333 291.781 26.5781 291.031C25.8281 290.281 25.4531 289.25 25.4531 287.938V280.578H26.7812V288.031C26.7812 288.984 27.0417 289.716 27.5625 290.227C28.0833 290.737 28.849 290.992 29.8594 290.992C30.8229 290.992 31.5651 290.737 32.0859 290.227C32.6068 289.711 32.8672 288.974 32.8672 288.016V280.578H34.1953ZM42.5547 289.664C42.5547 290.461 42.2578 291.076 41.6641 291.508C41.0703 291.94 40.237 292.156 39.1641 292.156C38.0286 292.156 37.1432 291.977 36.5078 291.617V290.414C36.9193 290.622 37.3594 290.786 37.8281 290.906C38.3021 291.026 38.7578 291.086 39.1953 291.086C39.8724 291.086 40.3932 290.979 40.7578 290.766C41.1224 290.547 41.3047 290.216 41.3047 289.773C41.3047 289.44 41.1589 289.156 40.8672 288.922C40.5807 288.682 40.0182 288.401 39.1797 288.078C38.3828 287.781 37.8151 287.523 37.4766 287.305C37.1432 287.081 36.8932 286.828 36.7266 286.547C36.5651 286.266 36.4844 285.93 36.4844 285.539C36.4844 284.841 36.7682 284.292 37.3359 283.891C37.9036 283.484 38.6823 283.281 39.6719 283.281C40.5938 283.281 41.4948 283.469 42.375 283.844L41.9141 284.898C41.0547 284.544 40.276 284.367 39.5781 284.367C38.9635 284.367 38.5 284.464 38.1875 284.656C37.875 284.849 37.7188 285.115 37.7188 285.453C37.7188 285.682 37.776 285.878 37.8906 286.039C38.0104 286.201 38.2005 286.354 38.4609 286.5C38.7214 286.646 39.2214 286.857 39.9609 287.133C40.9766 287.503 41.6615 287.875 42.0156 288.25C42.375 288.625 42.5547 289.096 42.5547 289.664ZM48.2891 292.156C47.0234 292.156 46.0234 291.771 45.2891 291C44.5599 290.229 44.1953 289.159 44.1953 287.789C44.1953 286.409 44.5339 285.312 45.2109 284.5C45.8932 283.688 46.8073 283.281 47.9531 283.281C49.026 283.281 49.875 283.635 50.5 284.344C51.125 285.047 51.4375 285.977 51.4375 287.133V287.953H45.5391C45.5651 288.958 45.8177 289.721 46.2969 290.242C46.7812 290.763 47.4609 291.023 48.3359 291.023C49.2578 291.023 50.1693 290.831 51.0703 290.445V291.602C50.612 291.799 50.1771 291.94 49.7656 292.023C49.3594 292.112 48.8672 292.156 48.2891 292.156ZM47.9375 284.367C47.25 284.367 46.7005 284.591 46.2891 285.039C45.8828 285.487 45.6432 286.107 45.5703 286.898H50.0469C50.0469 286.081 49.8646 285.456 49.5 285.023C49.1354 284.586 48.6146 284.367 47.9375 284.367ZM64.8203 283.438V284.258L63.2344 284.445C63.3802 284.628 63.5104 284.867 63.625 285.164C63.7396 285.456 63.7969 285.786 63.7969 286.156C63.7969 286.995 63.5104 287.664 62.9375 288.164C62.3646 288.664 61.5781 288.914 60.5781 288.914C60.3229 288.914 60.0833 288.893 59.8594 288.852C59.3073 289.143 59.0312 289.51 59.0312 289.953C59.0312 290.188 59.1276 290.362 59.3203 290.477C59.513 290.586 59.8438 290.641 60.3125 290.641H61.8281C62.7552 290.641 63.4661 290.836 63.9609 291.227C64.4609 291.617 64.7109 292.185 64.7109 292.93C64.7109 293.878 64.3307 294.599 63.5703 295.094C62.8099 295.594 61.7005 295.844 60.2422 295.844C59.1224 295.844 58.2578 295.635 57.6484 295.219C57.0443 294.802 56.7422 294.214 56.7422 293.453C56.7422 292.932 56.9089 292.482 57.2422 292.102C57.5755 291.721 58.0443 291.464 58.6484 291.328C58.4297 291.229 58.2448 291.076 58.0938 290.867C57.9479 290.659 57.875 290.417 57.875 290.141C57.875 289.828 57.9583 289.555 58.125 289.32C58.2917 289.086 58.5547 288.859 58.9141 288.641C58.4714 288.458 58.1094 288.148 57.8281 287.711C57.5521 287.273 57.4141 286.773 57.4141 286.211C57.4141 285.273 57.6953 284.552 58.2578 284.047C58.8203 283.536 59.6172 283.281 60.6484 283.281C61.0964 283.281 61.5 283.333 61.8594 283.438H64.8203ZM57.9922 293.438C57.9922 293.901 58.1875 294.253 58.5781 294.492C58.9688 294.732 59.5286 294.852 60.2578 294.852C61.3464 294.852 62.151 294.688 62.6719 294.359C63.1979 294.036 63.4609 293.596 63.4609 293.039C63.4609 292.576 63.3177 292.253 63.0312 292.07C62.7448 291.893 62.2057 291.805 61.4141 291.805H59.8594C59.2708 291.805 58.8125 291.945 58.4844 292.227C58.1562 292.508 57.9922 292.911 57.9922 293.438ZM58.6953 286.18C58.6953 286.779 58.8646 287.232 59.2031 287.539C59.5417 287.846 60.013 288 60.6172 288C61.8828 288 62.5156 287.385 62.5156 286.156C62.5156 284.87 61.875 284.227 60.5938 284.227C59.9844 284.227 59.5156 284.391 59.1875 284.719C58.8594 285.047 58.6953 285.534 58.6953 286.18ZM70.4844 283.281C70.8646 283.281 71.2057 283.312 71.5078 283.375L71.3281 284.578C70.974 284.5 70.6615 284.461 70.3906 284.461C69.6979 284.461 69.1042 284.742 68.6094 285.305C68.1198 285.867 67.875 286.568 67.875 287.406V292H66.5781V283.438H67.6484L67.7969 285.023H67.8594C68.1771 284.466 68.5599 284.036 69.0078 283.734C69.4557 283.432 69.9479 283.281 70.4844 283.281ZM78.375 292L78.1172 290.781H78.0547C77.6276 291.318 77.2005 291.682 76.7734 291.875C76.3516 292.062 75.8229 292.156 75.1875 292.156C74.3385 292.156 73.6719 291.938 73.1875 291.5C72.7083 291.062 72.4688 290.44 72.4688 289.633C72.4688 287.904 73.8516 286.997 76.6172 286.914L78.0703 286.867V286.336C78.0703 285.664 77.9245 285.169 77.6328 284.852C77.3464 284.529 76.8854 284.367 76.25 284.367C75.5365 284.367 74.7292 284.586 73.8281 285.023L73.4297 284.031C73.8516 283.802 74.3125 283.622 74.8125 283.492C75.3177 283.362 75.8229 283.297 76.3281 283.297C77.349 283.297 78.1042 283.523 78.5938 283.977C79.0885 284.43 79.3359 285.156 79.3359 286.156V292H78.375ZM75.4453 291.086C76.2526 291.086 76.8854 290.865 77.3438 290.422C77.8073 289.979 78.0391 289.359 78.0391 288.562V287.789L76.7422 287.844C75.7109 287.88 74.9661 288.042 74.5078 288.328C74.0547 288.609 73.8281 289.049 73.8281 289.648C73.8281 290.117 73.9688 290.474 74.25 290.719C74.5365 290.964 74.9349 291.086 75.4453 291.086ZM86 292.156C85.4427 292.156 84.9323 292.055 84.4688 291.852C84.0104 291.643 83.625 291.326 83.3125 290.898H83.2188C83.2812 291.398 83.3125 291.872 83.3125 292.32V295.844H82.0156V283.438H83.0703L83.25 284.609H83.3125C83.6458 284.141 84.0339 283.802 84.4766 283.594C84.9193 283.385 85.4271 283.281 86 283.281C87.1354 283.281 88.0104 283.669 88.625 284.445C89.2448 285.221 89.5547 286.31 89.5547 287.711C89.5547 289.117 89.2396 290.211 88.6094 290.992C87.9844 291.768 87.1146 292.156 86 292.156ZM85.8125 284.383C84.9375 284.383 84.3047 284.625 83.9141 285.109C83.5234 285.594 83.3229 286.365 83.3125 287.422V287.711C83.3125 288.914 83.513 289.776 83.9141 290.297C84.3151 290.812 84.9583 291.07 85.8438 291.07C86.5833 291.07 87.1615 290.771 87.5781 290.172C88 289.573 88.2109 288.747 88.2109 287.695C88.2109 286.628 88 285.81 87.5781 285.242C87.1615 284.669 86.5729 284.383 85.8125 284.383ZM97.6875 292V286.461C97.6875 285.763 97.5286 285.242 97.2109 284.898C96.8932 284.555 96.3958 284.383 95.7188 284.383C94.8177 284.383 94.1589 284.628 93.7422 285.117C93.3307 285.607 93.125 286.409 93.125 287.523V292H91.8281V279.844H93.125V283.523C93.125 283.966 93.1042 284.333 93.0625 284.625H93.1406C93.3958 284.214 93.7578 283.891 94.2266 283.656C94.7005 283.417 95.2396 283.297 95.8438 283.297C96.8906 283.297 97.6745 283.547 98.1953 284.047C98.7214 284.542 98.9844 285.331 98.9844 286.414V292H97.6875ZM111.078 292L110.82 290.781H110.758C110.331 291.318 109.904 291.682 109.477 291.875C109.055 292.062 108.526 292.156 107.891 292.156C107.042 292.156 106.375 291.938 105.891 291.5C105.411 291.062 105.172 290.44 105.172 289.633C105.172 287.904 106.555 286.997 109.32 286.914L110.773 286.867V286.336C110.773 285.664 110.628 285.169 110.336 284.852C110.049 284.529 109.589 284.367 108.953 284.367C108.24 284.367 107.432 284.586 106.531 285.023L106.133 284.031C106.555 283.802 107.016 283.622 107.516 283.492C108.021 283.362 108.526 283.297 109.031 283.297C110.052 283.297 110.807 283.523 111.297 283.977C111.792 284.43 112.039 285.156 112.039 286.156V292H111.078ZM108.148 291.086C108.956 291.086 109.589 290.865 110.047 290.422C110.51 289.979 110.742 289.359 110.742 288.562V287.789L109.445 287.844C108.414 287.88 107.669 288.042 107.211 288.328C106.758 288.609 106.531 289.049 106.531 289.648C106.531 290.117 106.672 290.474 106.953 290.719C107.24 290.964 107.638 291.086 108.148 291.086ZM120.578 292V286.461C120.578 285.763 120.419 285.242 120.102 284.898C119.784 284.555 119.286 284.383 118.609 284.383C117.714 284.383 117.057 284.625 116.641 285.109C116.224 285.594 116.016 286.393 116.016 287.508V292H114.719V283.438H115.773L115.984 284.609H116.047C116.312 284.188 116.685 283.862 117.164 283.633C117.643 283.398 118.177 283.281 118.766 283.281C119.797 283.281 120.573 283.531 121.094 284.031C121.615 284.526 121.875 285.32 121.875 286.414V292H120.578ZM129.812 292L129.555 290.781H129.492C129.065 291.318 128.638 291.682 128.211 291.875C127.789 292.062 127.26 292.156 126.625 292.156C125.776 292.156 125.109 291.938 124.625 291.5C124.146 291.062 123.906 290.44 123.906 289.633C123.906 287.904 125.289 286.997 128.055 286.914L129.508 286.867V286.336C129.508 285.664 129.362 285.169 129.07 284.852C128.784 284.529 128.323 284.367 127.688 284.367C126.974 284.367 126.167 284.586 125.266 285.023L124.867 284.031C125.289 283.802 125.75 283.622 126.25 283.492C126.755 283.362 127.26 283.297 127.766 283.297C128.786 283.297 129.542 283.523 130.031 283.977C130.526 284.43 130.773 285.156 130.773 286.156V292H129.812ZM126.883 291.086C127.69 291.086 128.323 290.865 128.781 290.422C129.245 289.979 129.477 289.359 129.477 288.562V287.789L128.18 287.844C127.148 287.88 126.404 288.042 125.945 288.328C125.492 288.609 125.266 289.049 125.266 289.648C125.266 290.117 125.406 290.474 125.688 290.719C125.974 290.964 126.372 291.086 126.883 291.086ZM134.75 292H133.453V279.844H134.75V292ZM136.141 283.438H137.531L139.406 288.32C139.818 289.435 140.073 290.24 140.172 290.734H140.234C140.302 290.469 140.443 290.016 140.656 289.375C140.875 288.729 141.583 286.75 142.781 283.438H144.172L140.492 293.188C140.128 294.151 139.701 294.833 139.211 295.234C138.727 295.641 138.13 295.844 137.422 295.844C137.026 295.844 136.635 295.799 136.25 295.711V294.672C136.536 294.734 136.857 294.766 137.211 294.766C138.102 294.766 138.737 294.266 139.117 293.266L139.594 292.047L136.141 283.438ZM151.086 289.664C151.086 290.461 150.789 291.076 150.195 291.508C149.602 291.94 148.768 292.156 147.695 292.156C146.56 292.156 145.674 291.977 145.039 291.617V290.414C145.451 290.622 145.891 290.786 146.359 290.906C146.833 291.026 147.289 291.086 147.727 291.086C148.404 291.086 148.924 290.979 149.289 290.766C149.654 290.547 149.836 290.216 149.836 289.773C149.836 289.44 149.69 289.156 149.398 288.922C149.112 288.682 148.549 288.401 147.711 288.078C146.914 287.781 146.346 287.523 146.008 287.305C145.674 287.081 145.424 286.828 145.258 286.547C145.096 286.266 145.016 285.93 145.016 285.539C145.016 284.841 145.299 284.292 145.867 283.891C146.435 283.484 147.214 283.281 148.203 283.281C149.125 283.281 150.026 283.469 150.906 283.844L150.445 284.898C149.586 284.544 148.807 284.367 148.109 284.367C147.495 284.367 147.031 284.464 146.719 284.656C146.406 284.849 146.25 285.115 146.25 285.453C146.25 285.682 146.307 285.878 146.422 286.039C146.542 286.201 146.732 286.354 146.992 286.5C147.253 286.646 147.753 286.857 148.492 287.133C149.508 287.503 150.193 287.875 150.547 288.25C150.906 288.625 151.086 289.096 151.086 289.664ZM154.5 292H153.203V283.438H154.5V292ZM153.094 281.117C153.094 280.82 153.167 280.604 153.312 280.469C153.458 280.328 153.641 280.258 153.859 280.258C154.068 280.258 154.247 280.328 154.398 280.469C154.549 280.609 154.625 280.826 154.625 281.117C154.625 281.409 154.549 281.628 154.398 281.773C154.247 281.914 154.068 281.984 153.859 281.984C153.641 281.984 153.458 281.914 153.312 281.773C153.167 281.628 153.094 281.409 153.094 281.117ZM162.773 289.664C162.773 290.461 162.477 291.076 161.883 291.508C161.289 291.94 160.456 292.156 159.383 292.156C158.247 292.156 157.362 291.977 156.727 291.617V290.414C157.138 290.622 157.578 290.786 158.047 290.906C158.521 291.026 158.977 291.086 159.414 291.086C160.091 291.086 160.612 290.979 160.977 290.766C161.341 290.547 161.523 290.216 161.523 289.773C161.523 289.44 161.378 289.156 161.086 288.922C160.799 288.682 160.237 288.401 159.398 288.078C158.602 287.781 158.034 287.523 157.695 287.305C157.362 287.081 157.112 286.828 156.945 286.547C156.784 286.266 156.703 285.93 156.703 285.539C156.703 284.841 156.987 284.292 157.555 283.891C158.122 283.484 158.901 283.281 159.891 283.281C160.812 283.281 161.714 283.469 162.594 283.844L162.133 284.898C161.273 284.544 160.495 284.367 159.797 284.367C159.182 284.367 158.719 284.464 158.406 284.656C158.094 284.849 157.938 285.115 157.938 285.453C157.938 285.682 157.995 285.878 158.109 286.039C158.229 286.201 158.419 286.354 158.68 286.5C158.94 286.646 159.44 286.857 160.18 287.133C161.195 287.503 161.88 287.875 162.234 288.25C162.594 288.625 162.773 289.096 162.773 289.664ZM171.812 291.086C172.042 291.086 172.263 291.07 172.477 291.039C172.69 291.003 172.859 290.966 172.984 290.93V291.922C172.844 291.99 172.635 292.044 172.359 292.086C172.089 292.133 171.844 292.156 171.625 292.156C169.969 292.156 169.141 291.284 169.141 289.539V284.445H167.914V283.82L169.141 283.281L169.688 281.453H170.438V283.438H172.922V284.445H170.438V289.484C170.438 290 170.56 290.396 170.805 290.672C171.049 290.948 171.385 291.086 171.812 291.086ZM182.094 287.711C182.094 289.107 181.742 290.198 181.039 290.984C180.336 291.766 179.365 292.156 178.125 292.156C177.359 292.156 176.68 291.977 176.086 291.617C175.492 291.258 175.034 290.742 174.711 290.07C174.388 289.398 174.227 288.612 174.227 287.711C174.227 286.315 174.576 285.229 175.273 284.453C175.971 283.672 176.94 283.281 178.18 283.281C179.378 283.281 180.328 283.68 181.031 284.477C181.74 285.273 182.094 286.352 182.094 287.711ZM175.57 287.711C175.57 288.805 175.789 289.638 176.227 290.211C176.664 290.784 177.307 291.07 178.156 291.07C179.005 291.07 179.648 290.786 180.086 290.219C180.529 289.646 180.75 288.81 180.75 287.711C180.75 286.622 180.529 285.797 180.086 285.234C179.648 284.667 179 284.383 178.141 284.383C177.292 284.383 176.651 284.661 176.219 285.219C175.786 285.776 175.57 286.607 175.57 287.711ZM192.516 292.156C191.958 292.156 191.448 292.055 190.984 291.852C190.526 291.643 190.141 291.326 189.828 290.898H189.734C189.797 291.398 189.828 291.872 189.828 292.32V295.844H188.531V283.438H189.586L189.766 284.609H189.828C190.161 284.141 190.549 283.802 190.992 283.594C191.435 283.385 191.943 283.281 192.516 283.281C193.651 283.281 194.526 283.669 195.141 284.445C195.76 285.221 196.07 286.31 196.07 287.711C196.07 289.117 195.755 290.211 195.125 290.992C194.5 291.768 193.63 292.156 192.516 292.156ZM192.328 284.383C191.453 284.383 190.82 284.625 190.43 285.109C190.039 285.594 189.839 286.365 189.828 287.422V287.711C189.828 288.914 190.029 289.776 190.43 290.297C190.831 290.812 191.474 291.07 192.359 291.07C193.099 291.07 193.677 290.771 194.094 290.172C194.516 289.573 194.727 288.747 194.727 287.695C194.727 286.628 194.516 285.81 194.094 285.242C193.677 284.669 193.089 284.383 192.328 284.383ZM202.25 283.281C202.63 283.281 202.971 283.312 203.273 283.375L203.094 284.578C202.74 284.5 202.427 284.461 202.156 284.461C201.464 284.461 200.87 284.742 200.375 285.305C199.885 285.867 199.641 286.568 199.641 287.406V292H198.344V283.438H199.414L199.562 285.023H199.625C199.943 284.466 200.326 284.036 200.773 283.734C201.221 283.432 201.714 283.281 202.25 283.281ZM212.266 287.711C212.266 289.107 211.914 290.198 211.211 290.984C210.508 291.766 209.536 292.156 208.297 292.156C207.531 292.156 206.852 291.977 206.258 291.617C205.664 291.258 205.206 290.742 204.883 290.07C204.56 289.398 204.398 288.612 204.398 287.711C204.398 286.315 204.747 285.229 205.445 284.453C206.143 283.672 207.112 283.281 208.352 283.281C209.549 283.281 210.5 283.68 211.203 284.477C211.911 285.273 212.266 286.352 212.266 287.711ZM205.742 287.711C205.742 288.805 205.961 289.638 206.398 290.211C206.836 290.784 207.479 291.07 208.328 291.07C209.177 291.07 209.82 290.786 210.258 290.219C210.701 289.646 210.922 288.81 210.922 287.711C210.922 286.622 210.701 285.797 210.258 285.234C209.82 284.667 209.172 284.383 208.312 284.383C207.464 284.383 206.823 284.661 206.391 285.219C205.958 285.776 205.742 286.607 205.742 287.711ZM213.508 295.844C213.013 295.844 212.612 295.779 212.305 295.648V294.594C212.664 294.698 213.018 294.75 213.367 294.75C213.773 294.75 214.07 294.638 214.258 294.414C214.451 294.195 214.547 293.859 214.547 293.406V283.438H215.844V293.312C215.844 295 215.065 295.844 213.508 295.844ZM214.438 281.117C214.438 280.82 214.51 280.604 214.656 280.469C214.802 280.328 214.984 280.258 215.203 280.258C215.411 280.258 215.591 280.328 215.742 280.469C215.893 280.609 215.969 280.826 215.969 281.117C215.969 281.409 215.893 281.628 215.742 281.773C215.591 281.914 215.411 281.984 215.203 281.984C214.984 281.984 214.802 281.914 214.656 281.773C214.51 281.628 214.438 281.409 214.438 281.117ZM222.211 292.156C220.945 292.156 219.945 291.771 219.211 291C218.482 290.229 218.117 289.159 218.117 287.789C218.117 286.409 218.456 285.312 219.133 284.5C219.815 283.688 220.729 283.281 221.875 283.281C222.948 283.281 223.797 283.635 224.422 284.344C225.047 285.047 225.359 285.977 225.359 287.133V287.953H219.461C219.487 288.958 219.74 289.721 220.219 290.242C220.703 290.763 221.383 291.023 222.258 291.023C223.18 291.023 224.091 290.831 224.992 290.445V291.602C224.534 291.799 224.099 291.94 223.688 292.023C223.281 292.112 222.789 292.156 222.211 292.156ZM221.859 284.367C221.172 284.367 220.622 284.591 220.211 285.039C219.805 285.487 219.565 286.107 219.492 286.898H223.969C223.969 286.081 223.786 285.456 223.422 285.023C223.057 284.586 222.536 284.367 221.859 284.367ZM231 292.156C229.76 292.156 228.799 291.776 228.117 291.016C227.44 290.25 227.102 289.169 227.102 287.773C227.102 286.341 227.445 285.234 228.133 284.453C228.826 283.672 229.81 283.281 231.086 283.281C231.497 283.281 231.909 283.326 232.32 283.414C232.732 283.503 233.055 283.607 233.289 283.727L232.891 284.828C232.604 284.714 232.292 284.62 231.953 284.547C231.615 284.469 231.315 284.43 231.055 284.43C229.315 284.43 228.445 285.539 228.445 287.758C228.445 288.81 228.656 289.617 229.078 290.18C229.505 290.742 230.135 291.023 230.969 291.023C231.682 291.023 232.414 290.87 233.164 290.562V291.711C232.591 292.008 231.87 292.156 231 292.156ZM237.969 291.086C238.198 291.086 238.419 291.07 238.633 291.039C238.846 291.003 239.016 290.966 239.141 290.93V291.922C239 291.99 238.792 292.044 238.516 292.086C238.245 292.133 238 292.156 237.781 292.156C236.125 292.156 235.297 291.284 235.297 289.539V284.445H234.07V283.82L235.297 283.281L235.844 281.453H236.594V283.438H239.078V284.445H236.594V289.484C236.594 290 236.716 290.396 236.961 290.672C237.206 290.948 237.542 291.086 237.969 291.086ZM249 292.156C248.443 292.156 247.932 292.055 247.469 291.852C247.01 291.643 246.625 291.326 246.312 290.898H246.219C246.281 291.398 246.312 291.872 246.312 292.32V295.844H245.016V283.438H246.07L246.25 284.609H246.312C246.646 284.141 247.034 283.802 247.477 283.594C247.919 283.385 248.427 283.281 249 283.281C250.135 283.281 251.01 283.669 251.625 284.445C252.245 285.221 252.555 286.31 252.555 287.711C252.555 289.117 252.24 290.211 251.609 290.992C250.984 291.768 250.115 292.156 249 292.156ZM248.812 284.383C247.938 284.383 247.305 284.625 246.914 285.109C246.523 285.594 246.323 286.365 246.312 287.422V287.711C246.312 288.914 246.513 289.776 246.914 290.297C247.315 290.812 247.958 291.07 248.844 291.07C249.583 291.07 250.161 290.771 250.578 290.172C251 289.573 251.211 288.747 251.211 287.695C251.211 286.628 251 285.81 250.578 285.242C250.161 284.669 249.573 284.383 248.812 284.383ZM260.094 292L259.836 290.781H259.773C259.346 291.318 258.919 291.682 258.492 291.875C258.07 292.062 257.542 292.156 256.906 292.156C256.057 292.156 255.391 291.938 254.906 291.5C254.427 291.062 254.188 290.44 254.188 289.633C254.188 287.904 255.57 286.997 258.336 286.914L259.789 286.867V286.336C259.789 285.664 259.643 285.169 259.352 284.852C259.065 284.529 258.604 284.367 257.969 284.367C257.255 284.367 256.448 284.586 255.547 285.023L255.148 284.031C255.57 283.802 256.031 283.622 256.531 283.492C257.036 283.362 257.542 283.297 258.047 283.297C259.068 283.297 259.823 283.523 260.312 283.977C260.807 284.43 261.055 285.156 261.055 286.156V292H260.094ZM257.164 291.086C257.971 291.086 258.604 290.865 259.062 290.422C259.526 289.979 259.758 289.359 259.758 288.562V287.789L258.461 287.844C257.43 287.88 256.685 288.042 256.227 288.328C255.773 288.609 255.547 289.049 255.547 289.648C255.547 290.117 255.688 290.474 255.969 290.719C256.255 290.964 256.654 291.086 257.164 291.086ZM262.375 283.438H263.766L265.641 288.32C266.052 289.435 266.307 290.24 266.406 290.734H266.469C266.536 290.469 266.677 290.016 266.891 289.375C267.109 288.729 267.818 286.75 269.016 283.438H270.406L266.727 293.188C266.362 294.151 265.935 294.833 265.445 295.234C264.961 295.641 264.365 295.844 263.656 295.844C263.26 295.844 262.87 295.799 262.484 295.711V294.672C262.771 294.734 263.091 294.766 263.445 294.766C264.336 294.766 264.971 294.266 265.352 293.266L265.828 292.047L262.375 283.438ZM282.711 292V286.43C282.711 285.747 282.565 285.237 282.273 284.898C281.982 284.555 281.529 284.383 280.914 284.383C280.107 284.383 279.51 284.615 279.125 285.078C278.74 285.542 278.547 286.255 278.547 287.219V292H277.25V286.43C277.25 285.747 277.104 285.237 276.812 284.898C276.521 284.555 276.065 284.383 275.445 284.383C274.633 284.383 274.036 284.628 273.656 285.117C273.281 285.602 273.094 286.398 273.094 287.508V292H271.797V283.438H272.852L273.062 284.609H273.125C273.37 284.193 273.714 283.867 274.156 283.633C274.604 283.398 275.104 283.281 275.656 283.281C276.995 283.281 277.87 283.766 278.281 284.734H278.344C278.599 284.286 278.969 283.932 279.453 283.672C279.938 283.411 280.49 283.281 281.109 283.281C282.078 283.281 282.802 283.531 283.281 284.031C283.766 284.526 284.008 285.32 284.008 286.414V292H282.711ZM290.305 292.156C289.039 292.156 288.039 291.771 287.305 291C286.576 290.229 286.211 289.159 286.211 287.789C286.211 286.409 286.549 285.312 287.227 284.5C287.909 283.688 288.823 283.281 289.969 283.281C291.042 283.281 291.891 283.635 292.516 284.344C293.141 285.047 293.453 285.977 293.453 287.133V287.953H287.555C287.581 288.958 287.833 289.721 288.312 290.242C288.797 290.763 289.477 291.023 290.352 291.023C291.273 291.023 292.185 290.831 293.086 290.445V291.602C292.628 291.799 292.193 291.94 291.781 292.023C291.375 292.112 290.883 292.156 290.305 292.156ZM289.953 284.367C289.266 284.367 288.716 284.591 288.305 285.039C287.898 285.487 287.659 286.107 287.586 286.898H292.062C292.062 286.081 291.88 285.456 291.516 285.023C291.151 284.586 290.63 284.367 289.953 284.367ZM301.531 292V286.461C301.531 285.763 301.372 285.242 301.055 284.898C300.737 284.555 300.24 284.383 299.562 284.383C298.667 284.383 298.01 284.625 297.594 285.109C297.177 285.594 296.969 286.393 296.969 287.508V292H295.672V283.438H296.727L296.938 284.609H297C297.266 284.188 297.638 283.862 298.117 283.633C298.596 283.398 299.13 283.281 299.719 283.281C300.75 283.281 301.526 283.531 302.047 284.031C302.568 284.526 302.828 285.32 302.828 286.414V292H301.531ZM308.266 291.086C308.495 291.086 308.716 291.07 308.93 291.039C309.143 291.003 309.312 290.966 309.438 290.93V291.922C309.297 291.99 309.089 292.044 308.812 292.086C308.542 292.133 308.297 292.156 308.078 292.156C306.422 292.156 305.594 291.284 305.594 289.539V284.445H304.367V283.82L305.594 283.281L306.141 281.453H306.891V283.438H309.375V284.445H306.891V289.484C306.891 290 307.013 290.396 307.258 290.672C307.503 290.948 307.839 291.086 308.266 291.086ZM316.68 289.664C316.68 290.461 316.383 291.076 315.789 291.508C315.195 291.94 314.362 292.156 313.289 292.156C312.154 292.156 311.268 291.977 310.633 291.617V290.414C311.044 290.622 311.484 290.786 311.953 290.906C312.427 291.026 312.883 291.086 313.32 291.086C313.997 291.086 314.518 290.979 314.883 290.766C315.247 290.547 315.43 290.216 315.43 289.773C315.43 289.44 315.284 289.156 314.992 288.922C314.706 288.682 314.143 288.401 313.305 288.078C312.508 287.781 311.94 287.523 311.602 287.305C311.268 287.081 311.018 286.828 310.852 286.547C310.69 286.266 310.609 285.93 310.609 285.539C310.609 284.841 310.893 284.292 311.461 283.891C312.029 283.484 312.807 283.281 313.797 283.281C314.719 283.281 315.62 283.469 316.5 283.844L316.039 284.898C315.18 284.544 314.401 284.367 313.703 284.367C313.089 284.367 312.625 284.464 312.312 284.656C312 284.849 311.844 285.115 311.844 285.453C311.844 285.682 311.901 285.878 312.016 286.039C312.135 286.201 312.326 286.354 312.586 286.5C312.846 286.646 313.346 286.857 314.086 287.133C315.102 287.503 315.786 287.875 316.141 288.25C316.5 288.625 316.68 289.096 316.68 289.664Z" fill="#303030"/>
<circle cx="65" cy="65" r="65" fill="#24633D"/>
<path d="M68.9532 40C57.5772 40 48.3542 49.223 48.3542 60.599C48.3542 65.2221 49.8964 69.4762 52.4686 72.9136L40.4478 84.9344L45.5133 90L57.6828 77.8305C60.9231 79.9531 64.7904 81.198 68.9532 81.198C80.3292 81.198 89.5522 71.975 89.5522 60.599C89.5522 49.223 80.3292 40 68.9532 40ZM68.9532 75.8243C60.5577 75.8243 53.7278 68.9944 53.7278 60.599C53.7278 52.2036 60.5577 45.3736 68.9532 45.3736C77.3486 45.3736 84.1785 52.2036 84.1785 60.599C84.1785 68.9944 77.3486 75.8243 68.9532 75.8243Z" fill="#F5F5F5"/>
<path d="M64.4753 57.0165H59.1017V69.5551H64.4753V57.0165Z" fill="#F5F5F5"/>
<path d="M71.6401 49.8517H66.2665V69.5551H71.6401V49.8517Z" fill="#F5F5F5"/>
<path d="M78.805 53.4341H73.4314V69.5551H78.805V53.4341Z" fill="#F5F5F5"/>
<path d="M2.203 160.3H8.629C10.197 160.3 11.59 160.608 12.808 161.224C14.026 161.826 14.971 162.687 15.643 163.807C16.315 164.913 16.651 166.194 16.651 167.65C16.651 169.106 16.315 170.394 15.643 171.514C14.971 172.62 14.026 173.481 12.808 174.097C11.59 174.699 10.197 175 8.629 175H2.203V160.3ZM8.503 172.69C9.581 172.69 10.526 172.487 11.338 172.081C12.164 171.661 12.794 171.073 13.228 170.317C13.676 169.547 13.9 168.658 13.9 167.65C13.9 166.642 13.676 165.76 13.228 165.004C12.794 164.234 12.164 163.646 11.338 163.24C10.526 162.82 9.581 162.61 8.503 162.61H4.933V172.69H8.503ZM23.5846 163.66C25.2366 163.66 26.4966 164.059 27.3646 164.857C28.2466 165.641 28.6876 166.831 28.6876 168.427V175H26.2096V173.635C25.8876 174.125 25.4256 174.503 24.8236 174.769C24.2356 175.021 23.5216 175.147 22.6816 175.147C21.8416 175.147 21.1066 175.007 20.4766 174.727C19.8466 174.433 19.3566 174.034 19.0066 173.53C18.6706 173.012 18.5026 172.431 18.5026 171.787C18.5026 170.779 18.8736 169.974 19.6156 169.372C20.3716 168.756 21.5546 168.448 23.1646 168.448H26.0626V168.28C26.0626 167.496 25.8246 166.894 25.3486 166.474C24.8866 166.054 24.1936 165.844 23.2696 165.844C22.6396 165.844 22.0166 165.942 21.4006 166.138C20.7986 166.334 20.2876 166.607 19.8676 166.957L18.8386 165.046C19.4266 164.598 20.1336 164.255 20.9596 164.017C21.7856 163.779 22.6606 163.66 23.5846 163.66ZM23.2276 173.236C23.8856 173.236 24.4666 173.089 24.9706 172.795C25.4886 172.487 25.8526 172.053 26.0626 171.493V170.191H23.3536C21.8416 170.191 21.0856 170.688 21.0856 171.682C21.0856 172.158 21.2746 172.536 21.6526 172.816C22.0306 173.096 22.5556 173.236 23.2276 173.236ZM38.7975 174.391C38.4895 174.643 38.1115 174.832 37.6635 174.958C37.2295 175.084 36.7675 175.147 36.2775 175.147C35.0455 175.147 34.0935 174.825 33.4215 174.181C32.7495 173.537 32.4135 172.599 32.4135 171.367V165.97H30.5655V163.87H32.4135V161.308H35.0385V163.87H38.0415V165.97H35.0385V171.304C35.0385 171.85 35.1715 172.27 35.4375 172.564C35.7035 172.844 36.0885 172.984 36.5925 172.984C37.1805 172.984 37.6705 172.83 38.0625 172.522L38.7975 174.391ZM45.2409 163.66C46.8929 163.66 48.1529 164.059 49.0209 164.857C49.9029 165.641 50.3439 166.831 50.3439 168.427V175H47.8659V173.635C47.5439 174.125 47.0819 174.503 46.4799 174.769C45.8919 175.021 45.1779 175.147 44.3379 175.147C43.4979 175.147 42.7629 175.007 42.1329 174.727C41.5029 174.433 41.0129 174.034 40.6629 173.53C40.3269 173.012 40.1589 172.431 40.1589 171.787C40.1589 170.779 40.5299 169.974 41.2719 169.372C42.0279 168.756 43.2109 168.448 44.8209 168.448H47.7189V168.28C47.7189 167.496 47.4809 166.894 47.0049 166.474C46.5429 166.054 45.8499 165.844 44.9259 165.844C44.2959 165.844 43.6729 165.942 43.0569 166.138C42.4549 166.334 41.9439 166.607 41.5239 166.957L40.4949 165.046C41.0829 164.598 41.7899 164.255 42.6159 164.017C43.4419 163.779 44.3169 163.66 45.2409 163.66ZM44.8839 173.236C45.5419 173.236 46.1229 173.089 46.6269 172.795C47.1449 172.487 47.5089 172.053 47.7189 171.493V170.191H45.0099C43.4979 170.191 42.7419 170.688 42.7419 171.682C42.7419 172.158 42.9309 172.536 43.3089 172.816C43.6869 173.096 44.2119 173.236 44.8839 173.236ZM73.2084 160.3L66.8034 175H64.1154L57.6894 160.3H60.6504L65.5434 171.64L70.4784 160.3H73.2084ZM74.6102 163.786H77.2352V175H74.6102V163.786ZM75.9332 161.938C75.4572 161.938 75.0582 161.791 74.7362 161.497C74.4142 161.189 74.2532 160.811 74.2532 160.363C74.2532 159.915 74.4142 159.544 74.7362 159.25C75.0582 158.942 75.4572 158.788 75.9332 158.788C76.4092 158.788 76.8082 158.935 77.1302 159.229C77.4522 159.509 77.6132 159.866 77.6132 160.3C77.6132 160.762 77.4522 161.154 77.1302 161.476C76.8222 161.784 76.4232 161.938 75.9332 161.938ZM84.1455 175.147C83.2355 175.147 82.3465 175.028 81.4785 174.79C80.6105 174.552 79.9175 174.251 79.3995 173.887L80.4075 171.892C80.9115 172.228 81.5135 172.501 82.2135 172.711C82.9275 172.907 83.6275 173.005 84.3135 173.005C85.8815 173.005 86.6655 172.592 86.6655 171.766C86.6655 171.374 86.4625 171.101 86.0565 170.947C85.6645 170.793 85.0275 170.646 84.1455 170.506C83.2215 170.366 82.4655 170.205 81.8775 170.023C81.3035 169.841 80.7995 169.526 80.3655 169.078C79.9455 168.616 79.7355 167.979 79.7355 167.167C79.7355 166.103 80.1765 165.256 81.0585 164.626C81.9545 163.982 83.1585 163.66 84.6705 163.66C85.4405 163.66 86.2105 163.751 86.9805 163.933C87.7505 164.101 88.3805 164.332 88.8705 164.626L87.8625 166.621C86.9105 166.061 85.8395 165.781 84.6495 165.781C83.8795 165.781 83.2915 165.9 82.8855 166.138C82.4935 166.362 82.2975 166.663 82.2975 167.041C82.2975 167.461 82.5075 167.762 82.9275 167.944C83.3615 168.112 84.0265 168.273 84.9225 168.427C85.8185 168.567 86.5535 168.728 87.1275 168.91C87.7015 169.092 88.1915 169.4 88.5975 169.834C89.0175 170.268 89.2275 170.884 89.2275 171.682C89.2275 172.732 88.7725 173.572 87.8625 174.202C86.9525 174.832 85.7135 175.147 84.1455 175.147ZM102.345 163.786V175H99.8461V173.572C99.4261 174.076 98.9011 174.468 98.2711 174.748C97.6411 175.014 96.9621 175.147 96.2341 175.147C94.7361 175.147 93.5531 174.734 92.6851 173.908C91.8311 173.068 91.4041 171.829 91.4041 170.191V163.786H94.0291V169.834C94.0291 170.842 94.2531 171.598 94.7011 172.102C95.1631 172.592 95.8141 172.837 96.6541 172.837C97.5921 172.837 98.3341 172.55 98.8801 171.976C99.4401 171.388 99.7201 170.548 99.7201 169.456V163.786H102.345ZM110.066 163.66C111.718 163.66 112.978 164.059 113.846 164.857C114.728 165.641 115.169 166.831 115.169 168.427V175H112.691V173.635C112.369 174.125 111.907 174.503 111.305 174.769C110.717 175.021 110.003 175.147 109.163 175.147C108.323 175.147 107.588 175.007 106.958 174.727C106.328 174.433 105.838 174.034 105.488 173.53C105.152 173.012 104.984 172.431 104.984 171.787C104.984 170.779 105.355 169.974 106.097 169.372C106.853 168.756 108.036 168.448 109.646 168.448H112.544V168.28C112.544 167.496 112.306 166.894 111.83 166.474C111.368 166.054 110.675 165.844 109.751 165.844C109.121 165.844 108.498 165.942 107.882 166.138C107.28 166.334 106.769 166.607 106.349 166.957L105.32 165.046C105.908 164.598 106.615 164.255 107.441 164.017C108.267 163.779 109.142 163.66 110.066 163.66ZM109.709 173.236C110.367 173.236 110.948 173.089 111.452 172.795C111.97 172.487 112.334 172.053 112.544 171.493V170.191H109.835C108.323 170.191 107.567 170.688 107.567 171.682C107.567 172.158 107.756 172.536 108.134 172.816C108.512 173.096 109.037 173.236 109.709 173.236ZM118.538 159.418H121.163V175H118.538V159.418ZM124.608 163.786H127.233V175H124.608V163.786ZM125.931 161.938C125.455 161.938 125.056 161.791 124.734 161.497C124.412 161.189 124.251 160.811 124.251 160.363C124.251 159.915 124.412 159.544 124.734 159.25C125.056 158.942 125.455 158.788 125.931 158.788C126.407 158.788 126.806 158.935 127.128 159.229C127.45 159.509 127.611 159.866 127.611 160.3C127.611 160.762 127.45 161.154 127.128 161.476C126.82 161.784 126.421 161.938 125.931 161.938ZM139.436 172.9V175H129.755V173.341L135.908 165.886H129.881V163.786H139.268V165.445L133.094 172.9H139.436ZM146.139 163.66C147.791 163.66 149.051 164.059 149.919 164.857C150.801 165.641 151.242 166.831 151.242 168.427V175H148.764V173.635C148.442 174.125 147.98 174.503 147.378 174.769C146.79 175.021 146.076 175.147 145.236 175.147C144.396 175.147 143.661 175.007 143.031 174.727C142.401 174.433 141.911 174.034 141.561 173.53C141.225 173.012 141.057 172.431 141.057 171.787C141.057 170.779 141.428 169.974 142.17 169.372C142.926 168.756 144.109 168.448 145.719 168.448H148.617V168.28C148.617 167.496 148.379 166.894 147.903 166.474C147.441 166.054 146.748 165.844 145.824 165.844C145.194 165.844 144.571 165.942 143.955 166.138C143.353 166.334 142.842 166.607 142.422 166.957L141.393 165.046C141.981 164.598 142.688 164.255 143.514 164.017C144.34 163.779 145.215 163.66 146.139 163.66ZM145.782 173.236C146.44 173.236 147.021 173.089 147.525 172.795C148.043 172.487 148.407 172.053 148.617 171.493V170.191H145.908C144.396 170.191 143.64 170.688 143.64 171.682C143.64 172.158 143.829 172.536 144.207 172.816C144.585 173.096 145.11 173.236 145.782 173.236ZM161.352 174.391C161.044 174.643 160.666 174.832 160.218 174.958C159.784 175.084 159.322 175.147 158.832 175.147C157.6 175.147 156.648 174.825 155.976 174.181C155.304 173.537 154.968 172.599 154.968 171.367V165.97H153.12V163.87H154.968V161.308H157.593V163.87H160.596V165.97H157.593V171.304C157.593 171.85 157.726 172.27 157.992 172.564C158.258 172.844 158.643 172.984 159.147 172.984C159.735 172.984 160.225 172.83 160.617 172.522L161.352 174.391ZM163.512 163.786H166.137V175H163.512V163.786ZM164.835 161.938C164.359 161.938 163.96 161.791 163.638 161.497C163.316 161.189 163.155 160.811 163.155 160.363C163.155 159.915 163.316 159.544 163.638 159.25C163.96 158.942 164.359 158.788 164.835 158.788C165.311 158.788 165.71 158.935 166.032 159.229C166.354 159.509 166.515 159.866 166.515 160.3C166.515 160.762 166.354 161.154 166.032 161.476C165.724 161.784 165.325 161.938 164.835 161.938ZM174.622 175.147C173.488 175.147 172.466 174.902 171.556 174.412C170.646 173.922 169.932 173.243 169.414 172.375C168.91 171.493 168.658 170.499 168.658 169.393C168.658 168.287 168.91 167.3 169.414 166.432C169.932 165.564 170.646 164.885 171.556 164.395C172.466 163.905 173.488 163.66 174.622 163.66C175.77 163.66 176.799 163.905 177.709 164.395C178.619 164.885 179.326 165.564 179.83 166.432C180.348 167.3 180.607 168.287 180.607 169.393C180.607 170.499 180.348 171.493 179.83 172.375C179.326 173.243 178.619 173.922 177.709 174.412C176.799 174.902 175.77 175.147 174.622 175.147ZM174.622 172.9C175.588 172.9 176.386 172.578 177.016 171.934C177.646 171.29 177.961 170.443 177.961 169.393C177.961 168.343 177.646 167.496 177.016 166.852C176.386 166.208 175.588 165.886 174.622 165.886C173.656 165.886 172.858 166.208 172.228 166.852C171.612 167.496 171.304 168.343 171.304 169.393C171.304 170.443 171.612 171.29 172.228 171.934C172.858 172.578 173.656 172.9 174.622 172.9ZM189.48 163.66C190.894 163.66 192.028 164.073 192.882 164.899C193.736 165.725 194.163 166.95 194.163 168.574V175H191.538V168.91C191.538 167.93 191.307 167.195 190.845 166.705C190.383 166.201 189.725 165.949 188.871 165.949C187.905 165.949 187.142 166.243 186.582 166.831C186.022 167.405 185.742 168.238 185.742 169.33V175H183.117V163.786H185.616V165.235C186.05 164.717 186.596 164.325 187.254 164.059C187.912 163.793 188.654 163.66 189.48 163.66Z" fill="#303030"/>
</svg>
