<svg width="283" height="308" viewBox="0 0 283 308" fill="none" xmlns="http://www.w3.org/2000/svg">
<path d="M10.2734 215.156C10.2734 214.526 10.4193 214.047 10.7109 213.719C11.0078 213.391 11.4375 213.227 12 213.227C12.5469 213.227 12.9714 213.388 13.2734 213.711C13.5755 214.034 13.7266 214.516 13.7266 215.156C13.7266 215.776 13.5755 216.255 13.2734 216.594C12.9766 216.927 12.5521 217.094 12 217.094C11.4427 217.094 11.0156 216.924 10.7188 216.586C10.4219 216.242 10.2734 215.766 10.2734 215.156ZM34.1953 209.578V216.969C34.1953 218.271 33.8021 219.294 33.0156 220.039C32.2292 220.784 31.1484 221.156 29.7734 221.156C28.3984 221.156 27.3333 220.781 26.5781 220.031C25.8281 219.281 25.4531 218.25 25.4531 216.938V209.578H26.7812V217.031C26.7812 217.984 27.0417 218.716 27.5625 219.227C28.0833 219.737 28.849 219.992 29.8594 219.992C30.8229 219.992 31.5651 219.737 32.0859 219.227C32.6068 218.711 32.8672 217.974 32.8672 217.016V209.578H34.1953ZM42.5547 218.664C42.5547 219.461 42.2578 220.076 41.6641 220.508C41.0703 220.94 40.237 221.156 39.1641 221.156C38.0286 221.156 37.1432 220.977 36.5078 220.617V219.414C36.9193 219.622 37.3594 219.786 37.8281 219.906C38.3021 220.026 38.7578 220.086 39.1953 220.086C39.8724 220.086 40.3932 219.979 40.7578 219.766C41.1224 219.547 41.3047 219.216 41.3047 218.773C41.3047 218.44 41.1589 218.156 40.8672 217.922C40.5807 217.682 40.0182 217.401 39.1797 217.078C38.3828 216.781 37.8151 216.523 37.4766 216.305C37.1432 216.081 36.8932 215.828 36.7266 215.547C36.5651 215.266 36.4844 214.93 36.4844 214.539C36.4844 213.841 36.7682 213.292 37.3359 212.891C37.9036 212.484 38.6823 212.281 39.6719 212.281C40.5938 212.281 41.4948 212.469 42.375 212.844L41.9141 213.898C41.0547 213.544 40.276 213.367 39.5781 213.367C38.9635 213.367 38.5 213.464 38.1875 213.656C37.875 213.849 37.7188 214.115 37.7188 214.453C37.7188 214.682 37.776 214.878 37.8906 215.039C38.0104 215.201 38.2005 215.354 38.4609 215.5C38.7214 215.646 39.2214 215.857 39.9609 216.133C40.9766 216.503 41.6615 216.875 42.0156 217.25C42.375 217.625 42.5547 218.096 42.5547 218.664ZM48.2891 221.156C47.0234 221.156 46.0234 220.771 45.2891 220C44.5599 219.229 44.1953 218.159 44.1953 216.789C44.1953 215.409 44.5339 214.312 45.2109 213.5C45.8932 212.688 46.8073 212.281 47.9531 212.281C49.026 212.281 49.875 212.635 50.5 213.344C51.125 214.047 51.4375 214.977 51.4375 216.133V216.953H45.5391C45.5651 217.958 45.8177 218.721 46.2969 219.242C46.7812 219.763 47.4609 220.023 48.3359 220.023C49.2578 220.023 50.1693 219.831 51.0703 219.445V220.602C50.612 220.799 50.1771 220.94 49.7656 221.023C49.3594 221.112 48.8672 221.156 48.2891 221.156ZM47.9375 213.367C47.25 213.367 46.7005 213.591 46.2891 214.039C45.8828 214.487 45.6432 215.107 45.5703 215.898H50.0469C50.0469 215.081 49.8646 214.456 49.5 214.023C49.1354 213.586 48.6146 213.367 47.9375 213.367ZM59.4844 219.852H59.4141C58.8151 220.721 57.9193 221.156 56.7266 221.156C55.6068 221.156 54.7344 220.773 54.1094 220.008C53.4896 219.242 53.1797 218.154 53.1797 216.742C53.1797 215.331 53.4922 214.234 54.1172 213.453C54.7422 212.672 55.612 212.281 56.7266 212.281C57.888 212.281 58.7786 212.703 59.3984 213.547H59.5L59.4453 212.93L59.4141 212.328V208.844H60.7109V221H59.6562L59.4844 219.852ZM56.8906 220.07C57.776 220.07 58.4167 219.831 58.8125 219.352C59.2135 218.867 59.4141 218.089 59.4141 217.016V216.742C59.4141 215.529 59.2109 214.664 58.8047 214.148C58.4036 213.628 57.7604 213.367 56.875 213.367C56.1146 213.367 55.5312 213.664 55.125 214.258C54.724 214.846 54.5234 215.68 54.5234 216.758C54.5234 217.852 54.724 218.677 55.125 219.234C55.526 219.792 56.1146 220.07 56.8906 220.07ZM71.3359 221H70.0078V210.758H66.3906V209.578H74.9531V210.758H71.3359V221ZM81.75 221L81.4922 219.781H81.4297C81.0026 220.318 80.5755 220.682 80.1484 220.875C79.7266 221.062 79.1979 221.156 78.5625 221.156C77.7135 221.156 77.0469 220.938 76.5625 220.5C76.0833 220.062 75.8438 219.44 75.8438 218.633C75.8438 216.904 77.2266 215.997 79.9922 215.914L81.4453 215.867V215.336C81.4453 214.664 81.2995 214.169 81.0078 213.852C80.7214 213.529 80.2604 213.367 79.625 213.367C78.9115 213.367 78.1042 213.586 77.2031 214.023L76.8047 213.031C77.2266 212.802 77.6875 212.622 78.1875 212.492C78.6927 212.362 79.1979 212.297 79.7031 212.297C80.724 212.297 81.4792 212.523 81.9688 212.977C82.4635 213.43 82.7109 214.156 82.7109 215.156V221H81.75ZM78.8203 220.086C79.6276 220.086 80.2604 219.865 80.7188 219.422C81.1823 218.979 81.4141 218.359 81.4141 217.562V216.789L80.1172 216.844C79.0859 216.88 78.3411 217.042 77.8828 217.328C77.4297 217.609 77.2031 218.049 77.2031 218.648C77.2031 219.117 77.3438 219.474 77.625 219.719C77.9115 219.964 78.3099 220.086 78.8203 220.086ZM89.375 212.297C90.5 212.297 91.3724 212.682 91.9922 213.453C92.6172 214.219 92.9297 215.305 92.9297 216.711C92.9297 218.117 92.6146 219.211 91.9844 219.992C91.3594 220.768 90.4896 221.156 89.375 221.156C88.8177 221.156 88.3073 221.055 87.8438 220.852C87.3854 220.643 87 220.326 86.6875 219.898H86.5938L86.3203 221H85.3906V208.844H86.6875V211.797C86.6875 212.458 86.6667 213.052 86.625 213.578H86.6875C87.2917 212.724 88.1875 212.297 89.375 212.297ZM89.1875 213.383C88.3021 213.383 87.6641 213.638 87.2734 214.148C86.8828 214.654 86.6875 215.508 86.6875 216.711C86.6875 217.914 86.888 218.776 87.2891 219.297C87.6901 219.812 88.3333 220.07 89.2188 220.07C90.0156 220.07 90.6094 219.781 91 219.203C91.3906 218.62 91.5859 217.784 91.5859 216.695C91.5859 215.581 91.3906 214.75 91 214.203C90.6094 213.656 90.0052 213.383 89.1875 213.383ZM96.5 221H95.2031V208.844H96.5V221ZM102.867 221.156C101.602 221.156 100.602 220.771 99.8672 220C99.138 219.229 98.7734 218.159 98.7734 216.789C98.7734 215.409 99.112 214.312 99.7891 213.5C100.471 212.688 101.385 212.281 102.531 212.281C103.604 212.281 104.453 212.635 105.078 213.344C105.703 214.047 106.016 214.977 106.016 216.133V216.953H100.117C100.143 217.958 100.396 218.721 100.875 219.242C101.359 219.763 102.039 220.023 102.914 220.023C103.836 220.023 104.747 219.831 105.648 219.445V220.602C105.19 220.799 104.755 220.94 104.344 221.023C103.938 221.112 103.445 221.156 102.867 221.156ZM102.516 213.367C101.828 213.367 101.279 213.591 100.867 214.039C100.461 214.487 100.221 215.107 100.148 215.898H104.625C104.625 215.081 104.443 214.456 104.078 214.023C103.714 213.586 103.193 213.367 102.516 213.367ZM113.5 221L113.242 219.781H113.18C112.753 220.318 112.326 220.682 111.898 220.875C111.477 221.062 110.948 221.156 110.312 221.156C109.464 221.156 108.797 220.938 108.312 220.5C107.833 220.062 107.594 219.44 107.594 218.633C107.594 216.904 108.977 215.997 111.742 215.914L113.195 215.867V215.336C113.195 214.664 113.049 214.169 112.758 213.852C112.471 213.529 112.01 213.367 111.375 213.367C110.661 213.367 109.854 213.586 108.953 214.023L108.555 213.031C108.977 212.802 109.438 212.622 109.938 212.492C110.443 212.362 110.948 212.297 111.453 212.297C112.474 212.297 113.229 212.523 113.719 212.977C114.214 213.43 114.461 214.156 114.461 215.156V221H113.5ZM110.57 220.086C111.378 220.086 112.01 219.865 112.469 219.422C112.932 218.979 113.164 218.359 113.164 217.562V216.789L111.867 216.844C110.836 216.88 110.091 217.042 109.633 217.328C109.18 217.609 108.953 218.049 108.953 218.648C108.953 219.117 109.094 219.474 109.375 219.719C109.661 219.964 110.06 220.086 110.57 220.086ZM118.359 212.438V217.992C118.359 218.69 118.518 219.211 118.836 219.555C119.154 219.898 119.651 220.07 120.328 220.07C121.224 220.07 121.878 219.826 122.289 219.336C122.706 218.846 122.914 218.047 122.914 216.938V212.438H124.211V221H123.141L122.953 219.852H122.883C122.617 220.273 122.247 220.596 121.773 220.82C121.305 221.044 120.768 221.156 120.164 221.156C119.122 221.156 118.341 220.909 117.82 220.414C117.305 219.919 117.047 219.128 117.047 218.039V212.438H118.359ZM133.891 220.086C134.12 220.086 134.341 220.07 134.555 220.039C134.768 220.003 134.938 219.966 135.062 219.93V220.922C134.922 220.99 134.714 221.044 134.438 221.086C134.167 221.133 133.922 221.156 133.703 221.156C132.047 221.156 131.219 220.284 131.219 218.539V213.445H129.992V212.82L131.219 212.281L131.766 210.453H132.516V212.438H135V213.445H132.516V218.484C132.516 219 132.638 219.396 132.883 219.672C133.128 219.948 133.464 220.086 133.891 220.086ZM144.172 216.711C144.172 218.107 143.82 219.198 143.117 219.984C142.414 220.766 141.443 221.156 140.203 221.156C139.438 221.156 138.758 220.977 138.164 220.617C137.57 220.258 137.112 219.742 136.789 219.07C136.466 218.398 136.305 217.612 136.305 216.711C136.305 215.315 136.654 214.229 137.352 213.453C138.049 212.672 139.018 212.281 140.258 212.281C141.456 212.281 142.406 212.68 143.109 213.477C143.818 214.273 144.172 215.352 144.172 216.711ZM137.648 216.711C137.648 217.805 137.867 218.638 138.305 219.211C138.742 219.784 139.385 220.07 140.234 220.07C141.083 220.07 141.727 219.786 142.164 219.219C142.607 218.646 142.828 217.81 142.828 216.711C142.828 215.622 142.607 214.797 142.164 214.234C141.727 213.667 141.078 213.383 140.219 213.383C139.37 213.383 138.729 213.661 138.297 214.219C137.865 214.776 137.648 215.607 137.648 216.711ZM152.484 221L149.234 212.438H150.625L152.469 217.516C152.885 218.703 153.13 219.474 153.203 219.828H153.266C153.323 219.552 153.503 218.982 153.805 218.117C154.112 217.247 154.797 215.354 155.859 212.438H157.25L154 221H152.484ZM159.922 221H158.625V212.438H159.922V221ZM158.516 210.117C158.516 209.82 158.589 209.604 158.734 209.469C158.88 209.328 159.062 209.258 159.281 209.258C159.49 209.258 159.669 209.328 159.82 209.469C159.971 209.609 160.047 209.826 160.047 210.117C160.047 210.409 159.971 210.628 159.82 210.773C159.669 210.914 159.49 210.984 159.281 210.984C159.062 210.984 158.88 210.914 158.734 210.773C158.589 210.628 158.516 210.409 158.516 210.117ZM168.195 218.664C168.195 219.461 167.898 220.076 167.305 220.508C166.711 220.94 165.878 221.156 164.805 221.156C163.669 221.156 162.784 220.977 162.148 220.617V219.414C162.56 219.622 163 219.786 163.469 219.906C163.943 220.026 164.398 220.086 164.836 220.086C165.513 220.086 166.034 219.979 166.398 219.766C166.763 219.547 166.945 219.216 166.945 218.773C166.945 218.44 166.799 218.156 166.508 217.922C166.221 217.682 165.659 217.401 164.82 217.078C164.023 216.781 163.456 216.523 163.117 216.305C162.784 216.081 162.534 215.828 162.367 215.547C162.206 215.266 162.125 214.93 162.125 214.539C162.125 213.841 162.409 213.292 162.977 212.891C163.544 212.484 164.323 212.281 165.312 212.281C166.234 212.281 167.135 212.469 168.016 212.844L167.555 213.898C166.695 213.544 165.917 213.367 165.219 213.367C164.604 213.367 164.141 213.464 163.828 213.656C163.516 213.849 163.359 214.115 163.359 214.453C163.359 214.682 163.417 214.878 163.531 215.039C163.651 215.201 163.841 215.354 164.102 215.5C164.362 215.646 164.862 215.857 165.602 216.133C166.617 216.503 167.302 216.875 167.656 217.25C168.016 217.625 168.195 218.096 168.195 218.664ZM171.531 212.438V217.992C171.531 218.69 171.69 219.211 172.008 219.555C172.326 219.898 172.823 220.07 173.5 220.07C174.396 220.07 175.049 219.826 175.461 219.336C175.878 218.846 176.086 218.047 176.086 216.938V212.438H177.383V221H176.312L176.125 219.852H176.055C175.789 220.273 175.419 220.596 174.945 220.82C174.477 221.044 173.94 221.156 173.336 221.156C172.294 221.156 171.513 220.909 170.992 220.414C170.477 219.919 170.219 219.128 170.219 218.039V212.438H171.531ZM185.406 221L185.148 219.781H185.086C184.659 220.318 184.232 220.682 183.805 220.875C183.383 221.062 182.854 221.156 182.219 221.156C181.37 221.156 180.703 220.938 180.219 220.5C179.74 220.062 179.5 219.44 179.5 218.633C179.5 216.904 180.883 215.997 183.648 215.914L185.102 215.867V215.336C185.102 214.664 184.956 214.169 184.664 213.852C184.378 213.529 183.917 213.367 183.281 213.367C182.568 213.367 181.76 213.586 180.859 214.023L180.461 213.031C180.883 212.802 181.344 212.622 181.844 212.492C182.349 212.362 182.854 212.297 183.359 212.297C184.38 212.297 185.135 212.523 185.625 212.977C186.12 213.43 186.367 214.156 186.367 215.156V221H185.406ZM182.477 220.086C183.284 220.086 183.917 219.865 184.375 219.422C184.839 218.979 185.07 218.359 185.07 217.562V216.789L183.773 216.844C182.742 216.88 181.997 217.042 181.539 217.328C181.086 217.609 180.859 218.049 180.859 218.648C180.859 219.117 181 219.474 181.281 219.719C181.568 219.964 181.966 220.086 182.477 220.086ZM190.344 221H189.047V208.844H190.344V221ZM194.391 221H193.094V212.438H194.391V221ZM192.984 210.117C192.984 209.82 193.057 209.604 193.203 209.469C193.349 209.328 193.531 209.258 193.75 209.258C193.958 209.258 194.138 209.328 194.289 209.469C194.44 209.609 194.516 209.826 194.516 210.117C194.516 210.409 194.44 210.628 194.289 210.773C194.138 210.914 193.958 210.984 193.75 210.984C193.531 210.984 193.349 210.914 193.203 210.773C193.057 210.628 192.984 210.409 192.984 210.117ZM202.617 221H196.406V220.117L201.078 213.445H196.695V212.438H202.5V213.445L197.891 219.992H202.617V221ZM208.242 221.156C206.977 221.156 205.977 220.771 205.242 220C204.513 219.229 204.148 218.159 204.148 216.789C204.148 215.409 204.487 214.312 205.164 213.5C205.846 212.688 206.76 212.281 207.906 212.281C208.979 212.281 209.828 212.635 210.453 213.344C211.078 214.047 211.391 214.977 211.391 216.133V216.953H205.492C205.518 217.958 205.771 218.721 206.25 219.242C206.734 219.763 207.414 220.023 208.289 220.023C209.211 220.023 210.122 219.831 211.023 219.445V220.602C210.565 220.799 210.13 220.94 209.719 221.023C209.312 221.112 208.82 221.156 208.242 221.156ZM207.891 213.367C207.203 213.367 206.654 213.591 206.242 214.039C205.836 214.487 205.596 215.107 205.523 215.898H210C210 215.081 209.818 214.456 209.453 214.023C209.089 213.586 208.568 213.367 207.891 213.367ZM221.75 221.156C221.193 221.156 220.682 221.055 220.219 220.852C219.76 220.643 219.375 220.326 219.062 219.898H218.969C219.031 220.398 219.062 220.872 219.062 221.32V224.844H217.766V212.438H218.82L219 213.609H219.062C219.396 213.141 219.784 212.802 220.227 212.594C220.669 212.385 221.177 212.281 221.75 212.281C222.885 212.281 223.76 212.669 224.375 213.445C224.995 214.221 225.305 215.31 225.305 216.711C225.305 218.117 224.99 219.211 224.359 219.992C223.734 220.768 222.865 221.156 221.75 221.156ZM221.562 213.383C220.688 213.383 220.055 213.625 219.664 214.109C219.273 214.594 219.073 215.365 219.062 216.422V216.711C219.062 217.914 219.263 218.776 219.664 219.297C220.065 219.812 220.708 220.07 221.594 220.07C222.333 220.07 222.911 219.771 223.328 219.172C223.75 218.573 223.961 217.747 223.961 216.695C223.961 215.628 223.75 214.81 223.328 214.242C222.911 213.669 222.323 213.383 221.562 213.383ZM232.844 221L232.586 219.781H232.523C232.096 220.318 231.669 220.682 231.242 220.875C230.82 221.062 230.292 221.156 229.656 221.156C228.807 221.156 228.141 220.938 227.656 220.5C227.177 220.062 226.938 219.44 226.938 218.633C226.938 216.904 228.32 215.997 231.086 215.914L232.539 215.867V215.336C232.539 214.664 232.393 214.169 232.102 213.852C231.815 213.529 231.354 213.367 230.719 213.367C230.005 213.367 229.198 213.586 228.297 214.023L227.898 213.031C228.32 212.802 228.781 212.622 229.281 212.492C229.786 212.362 230.292 212.297 230.797 212.297C231.818 212.297 232.573 212.523 233.062 212.977C233.557 213.43 233.805 214.156 233.805 215.156V221H232.844ZM229.914 220.086C230.721 220.086 231.354 219.865 231.812 219.422C232.276 218.979 232.508 218.359 232.508 217.562V216.789L231.211 216.844C230.18 216.88 229.435 217.042 228.977 217.328C228.523 217.609 228.297 218.049 228.297 218.648C228.297 219.117 228.438 219.474 228.719 219.719C229.005 219.964 229.404 220.086 229.914 220.086ZM235.125 212.438H236.516L238.391 217.32C238.802 218.435 239.057 219.24 239.156 219.734H239.219C239.286 219.469 239.427 219.016 239.641 218.375C239.859 217.729 240.568 215.75 241.766 212.438H243.156L239.477 222.188C239.112 223.151 238.685 223.833 238.195 224.234C237.711 224.641 237.115 224.844 236.406 224.844C236.01 224.844 235.62 224.799 235.234 224.711V223.672C235.521 223.734 235.841 223.766 236.195 223.766C237.086 223.766 237.721 223.266 238.102 222.266L238.578 221.047L235.125 212.438ZM255.461 221V215.43C255.461 214.747 255.315 214.237 255.023 213.898C254.732 213.555 254.279 213.383 253.664 213.383C252.857 213.383 252.26 213.615 251.875 214.078C251.49 214.542 251.297 215.255 251.297 216.219V221H250V215.43C250 214.747 249.854 214.237 249.562 213.898C249.271 213.555 248.815 213.383 248.195 213.383C247.383 213.383 246.786 213.628 246.406 214.117C246.031 214.602 245.844 215.398 245.844 216.508V221H244.547V212.438H245.602L245.812 213.609H245.875C246.12 213.193 246.464 212.867 246.906 212.633C247.354 212.398 247.854 212.281 248.406 212.281C249.745 212.281 250.62 212.766 251.031 213.734H251.094C251.349 213.286 251.719 212.932 252.203 212.672C252.688 212.411 253.24 212.281 253.859 212.281C254.828 212.281 255.552 212.531 256.031 213.031C256.516 213.526 256.758 214.32 256.758 215.414V221H255.461ZM263.055 221.156C261.789 221.156 260.789 220.771 260.055 220C259.326 219.229 258.961 218.159 258.961 216.789C258.961 215.409 259.299 214.312 259.977 213.5C260.659 212.688 261.573 212.281 262.719 212.281C263.792 212.281 264.641 212.635 265.266 213.344C265.891 214.047 266.203 214.977 266.203 216.133V216.953H260.305C260.331 217.958 260.583 218.721 261.062 219.242C261.547 219.763 262.227 220.023 263.102 220.023C264.023 220.023 264.935 219.831 265.836 219.445V220.602C265.378 220.799 264.943 220.94 264.531 221.023C264.125 221.112 263.633 221.156 263.055 221.156ZM262.703 213.367C262.016 213.367 261.466 213.591 261.055 214.039C260.648 214.487 260.409 215.107 260.336 215.898H264.812C264.812 215.081 264.63 214.456 264.266 214.023C263.901 213.586 263.38 213.367 262.703 213.367ZM274.281 221V215.461C274.281 214.763 274.122 214.242 273.805 213.898C273.487 213.555 272.99 213.383 272.312 213.383C271.417 213.383 270.76 213.625 270.344 214.109C269.927 214.594 269.719 215.393 269.719 216.508V221H268.422V212.438H269.477L269.688 213.609H269.75C270.016 213.188 270.388 212.862 270.867 212.633C271.346 212.398 271.88 212.281 272.469 212.281C273.5 212.281 274.276 212.531 274.797 213.031C275.318 213.526 275.578 214.32 275.578 215.414V221H274.281ZM281.016 220.086C281.245 220.086 281.466 220.07 281.68 220.039C281.893 220.003 282.062 219.966 282.188 219.93V220.922C282.047 220.99 281.839 221.044 281.562 221.086C281.292 221.133 281.047 221.156 280.828 221.156C279.172 221.156 278.344 220.284 278.344 218.539V213.445H277.117V212.82L278.344 212.281L278.891 210.453H279.641V212.438H282.125V213.445H279.641V218.484C279.641 219 279.763 219.396 280.008 219.672C280.253 219.948 280.589 220.086 281.016 220.086ZM31.2344 243V237.461C31.2344 236.763 31.0755 236.242 30.7578 235.898C30.4401 235.555 29.9427 235.383 29.2656 235.383C28.3646 235.383 27.7057 235.628 27.2891 236.117C26.8776 236.607 26.6719 237.409 26.6719 238.523V243H25.375V230.844H26.6719V234.523C26.6719 234.966 26.651 235.333 26.6094 235.625H26.6875C26.9427 235.214 27.3047 234.891 27.7734 234.656C28.2474 234.417 28.7865 234.297 29.3906 234.297C30.4375 234.297 31.2214 234.547 31.7422 235.047C32.2682 235.542 32.5312 236.331 32.5312 237.414V243H31.2344ZM36.5 243H35.2031V234.438H36.5V243ZM35.0938 232.117C35.0938 231.82 35.1667 231.604 35.3125 231.469C35.4583 231.328 35.6406 231.258 35.8594 231.258C36.0677 231.258 36.2474 231.328 36.3984 231.469C36.5495 231.609 36.625 231.826 36.625 232.117C36.625 232.409 36.5495 232.628 36.3984 232.773C36.2474 232.914 36.0677 232.984 35.8594 232.984C35.6406 232.984 35.4583 232.914 35.3125 232.773C35.1667 232.628 35.0938 232.409 35.0938 232.117ZM44.7734 240.664C44.7734 241.461 44.4766 242.076 43.8828 242.508C43.2891 242.94 42.4557 243.156 41.3828 243.156C40.2474 243.156 39.362 242.977 38.7266 242.617V241.414C39.138 241.622 39.5781 241.786 40.0469 241.906C40.5208 242.026 40.9766 242.086 41.4141 242.086C42.0911 242.086 42.612 241.979 42.9766 241.766C43.3411 241.547 43.5234 241.216 43.5234 240.773C43.5234 240.44 43.3776 240.156 43.0859 239.922C42.7995 239.682 42.237 239.401 41.3984 239.078C40.6016 238.781 40.0339 238.523 39.6953 238.305C39.362 238.081 39.112 237.828 38.9453 237.547C38.7839 237.266 38.7031 236.93 38.7031 236.539C38.7031 235.841 38.987 235.292 39.5547 234.891C40.1224 234.484 40.901 234.281 41.8906 234.281C42.8125 234.281 43.7135 234.469 44.5938 234.844L44.1328 235.898C43.2734 235.544 42.4948 235.367 41.7969 235.367C41.1823 235.367 40.7188 235.464 40.4062 235.656C40.0938 235.849 39.9375 236.115 39.9375 236.453C39.9375 236.682 39.9948 236.878 40.1094 237.039C40.2292 237.201 40.4193 237.354 40.6797 237.5C40.9401 237.646 41.4401 237.857 42.1797 238.133C43.1953 238.503 43.8802 238.875 44.2344 239.25C44.5938 239.625 44.7734 240.096 44.7734 240.664ZM49.6562 242.086C49.8854 242.086 50.1068 242.07 50.3203 242.039C50.5339 242.003 50.7031 241.966 50.8281 241.93V242.922C50.6875 242.99 50.4792 243.044 50.2031 243.086C49.9323 243.133 49.6875 243.156 49.4688 243.156C47.8125 243.156 46.9844 242.284 46.9844 240.539V235.445H45.7578V234.82L46.9844 234.281L47.5312 232.453H48.2812V234.438H50.7656V235.445H48.2812V240.484C48.2812 241 48.4036 241.396 48.6484 241.672C48.8932 241.948 49.2292 242.086 49.6562 242.086ZM59.9375 238.711C59.9375 240.107 59.5859 241.198 58.8828 241.984C58.1797 242.766 57.2083 243.156 55.9688 243.156C55.2031 243.156 54.5234 242.977 53.9297 242.617C53.3359 242.258 52.8776 241.742 52.5547 241.07C52.2318 240.398 52.0703 239.612 52.0703 238.711C52.0703 237.315 52.4193 236.229 53.1172 235.453C53.8151 234.672 54.7839 234.281 56.0234 234.281C57.2214 234.281 58.1719 234.68 58.875 235.477C59.5833 236.273 59.9375 237.352 59.9375 238.711ZM53.4141 238.711C53.4141 239.805 53.6328 240.638 54.0703 241.211C54.5078 241.784 55.151 242.07 56 242.07C56.849 242.07 57.4922 241.786 57.9297 241.219C58.3724 240.646 58.5938 239.81 58.5938 238.711C58.5938 237.622 58.3724 236.797 57.9297 236.234C57.4922 235.667 56.8438 235.383 55.9844 235.383C55.1354 235.383 54.4948 235.661 54.0625 236.219C53.6302 236.776 53.4141 237.607 53.4141 238.711ZM66.125 234.281C66.5052 234.281 66.8464 234.312 67.1484 234.375L66.9688 235.578C66.6146 235.5 66.3021 235.461 66.0312 235.461C65.3385 235.461 64.7448 235.742 64.25 236.305C63.7604 236.867 63.5156 237.568 63.5156 238.406V243H62.2188V234.438H63.2891L63.4375 236.023H63.5C63.8177 235.466 64.2005 235.036 64.6484 234.734C65.0964 234.432 65.5885 234.281 66.125 234.281ZM67.3906 234.438H68.7812L70.6562 239.32C71.0677 240.435 71.3229 241.24 71.4219 241.734H71.4844C71.5521 241.469 71.6927 241.016 71.9062 240.375C72.125 239.729 72.8333 237.75 74.0312 234.438H75.4219L71.7422 244.188C71.3776 245.151 70.9505 245.833 70.4609 246.234C69.9766 246.641 69.3802 246.844 68.6719 246.844C68.276 246.844 67.8854 246.799 67.5 246.711V245.672C67.7865 245.734 68.1068 245.766 68.4609 245.766C69.3516 245.766 69.987 245.266 70.3672 244.266L70.8438 243.047L67.3906 234.438Z" fill="#303030"/>
<path d="M10.2734 275.156C10.2734 274.526 10.4193 274.047 10.7109 273.719C11.0078 273.391 11.4375 273.227 12 273.227C12.5469 273.227 12.9714 273.388 13.2734 273.711C13.5755 274.034 13.7266 274.516 13.7266 275.156C13.7266 275.776 13.5755 276.255 13.2734 276.594C12.9766 276.927 12.5521 277.094 12 277.094C11.4427 277.094 11.0156 276.924 10.7188 276.586C10.4219 276.242 10.2734 275.766 10.2734 275.156ZM34.1953 269.578V276.969C34.1953 278.271 33.8021 279.294 33.0156 280.039C32.2292 280.784 31.1484 281.156 29.7734 281.156C28.3984 281.156 27.3333 280.781 26.5781 280.031C25.8281 279.281 25.4531 278.25 25.4531 276.938V269.578H26.7812V277.031C26.7812 277.984 27.0417 278.716 27.5625 279.227C28.0833 279.737 28.849 279.992 29.8594 279.992C30.8229 279.992 31.5651 279.737 32.0859 279.227C32.6068 278.711 32.8672 277.974 32.8672 277.016V269.578H34.1953ZM42.5547 278.664C42.5547 279.461 42.2578 280.076 41.6641 280.508C41.0703 280.94 40.237 281.156 39.1641 281.156C38.0286 281.156 37.1432 280.977 36.5078 280.617V279.414C36.9193 279.622 37.3594 279.786 37.8281 279.906C38.3021 280.026 38.7578 280.086 39.1953 280.086C39.8724 280.086 40.3932 279.979 40.7578 279.766C41.1224 279.547 41.3047 279.216 41.3047 278.773C41.3047 278.44 41.1589 278.156 40.8672 277.922C40.5807 277.682 40.0182 277.401 39.1797 277.078C38.3828 276.781 37.8151 276.523 37.4766 276.305C37.1432 276.081 36.8932 275.828 36.7266 275.547C36.5651 275.266 36.4844 274.93 36.4844 274.539C36.4844 273.841 36.7682 273.292 37.3359 272.891C37.9036 272.484 38.6823 272.281 39.6719 272.281C40.5938 272.281 41.4948 272.469 42.375 272.844L41.9141 273.898C41.0547 273.544 40.276 273.367 39.5781 273.367C38.9635 273.367 38.5 273.464 38.1875 273.656C37.875 273.849 37.7188 274.115 37.7188 274.453C37.7188 274.682 37.776 274.878 37.8906 275.039C38.0104 275.201 38.2005 275.354 38.4609 275.5C38.7214 275.646 39.2214 275.857 39.9609 276.133C40.9766 276.503 41.6615 276.875 42.0156 277.25C42.375 277.625 42.5547 278.096 42.5547 278.664ZM48.2891 281.156C47.0234 281.156 46.0234 280.771 45.2891 280C44.5599 279.229 44.1953 278.159 44.1953 276.789C44.1953 275.409 44.5339 274.312 45.2109 273.5C45.8932 272.688 46.8073 272.281 47.9531 272.281C49.026 272.281 49.875 272.635 50.5 273.344C51.125 274.047 51.4375 274.977 51.4375 276.133V276.953H45.5391C45.5651 277.958 45.8177 278.721 46.2969 279.242C46.7812 279.763 47.4609 280.023 48.3359 280.023C49.2578 280.023 50.1693 279.831 51.0703 279.445V280.602C50.612 280.799 50.1771 280.94 49.7656 281.023C49.3594 281.112 48.8672 281.156 48.2891 281.156ZM47.9375 273.367C47.25 273.367 46.7005 273.591 46.2891 274.039C45.8828 274.487 45.6432 275.107 45.5703 275.898H50.0469C50.0469 275.081 49.8646 274.456 49.5 274.023C49.1354 273.586 48.6146 273.367 47.9375 273.367ZM59.4844 279.852H59.4141C58.8151 280.721 57.9193 281.156 56.7266 281.156C55.6068 281.156 54.7344 280.773 54.1094 280.008C53.4896 279.242 53.1797 278.154 53.1797 276.742C53.1797 275.331 53.4922 274.234 54.1172 273.453C54.7422 272.672 55.612 272.281 56.7266 272.281C57.888 272.281 58.7786 272.703 59.3984 273.547H59.5L59.4453 272.93L59.4141 272.328V268.844H60.7109V281H59.6562L59.4844 279.852ZM56.8906 280.07C57.776 280.07 58.4167 279.831 58.8125 279.352C59.2135 278.867 59.4141 278.089 59.4141 277.016V276.742C59.4141 275.529 59.2109 274.664 58.8047 274.148C58.4036 273.628 57.7604 273.367 56.875 273.367C56.1146 273.367 55.5312 273.664 55.125 274.258C54.724 274.846 54.5234 275.68 54.5234 276.758C54.5234 277.852 54.724 278.677 55.125 279.234C55.526 279.792 56.1146 280.07 56.8906 280.07ZM68.9062 276.617C69.1302 276.299 69.4714 275.883 69.9297 275.367L72.6953 272.438H74.2344L70.7656 276.086L74.4766 281H72.9062L69.8828 276.953L68.9062 277.797V281H67.625V268.844H68.9062V275.289C68.9062 275.576 68.8854 276.018 68.8438 276.617H68.9062ZM81.2969 281L81.0391 279.781H80.9766C80.5495 280.318 80.1224 280.682 79.6953 280.875C79.2734 281.062 78.7448 281.156 78.1094 281.156C77.2604 281.156 76.5938 280.938 76.1094 280.5C75.6302 280.062 75.3906 279.44 75.3906 278.633C75.3906 276.904 76.7734 275.997 79.5391 275.914L80.9922 275.867V275.336C80.9922 274.664 80.8464 274.169 80.5547 273.852C80.2682 273.529 79.8073 273.367 79.1719 273.367C78.4583 273.367 77.651 273.586 76.75 274.023L76.3516 273.031C76.7734 272.802 77.2344 272.622 77.7344 272.492C78.2396 272.362 78.7448 272.297 79.25 272.297C80.2708 272.297 81.026 272.523 81.5156 272.977C82.0104 273.43 82.2578 274.156 82.2578 275.156V281H81.2969ZM78.3672 280.086C79.1745 280.086 79.8073 279.865 80.2656 279.422C80.7292 278.979 80.9609 278.359 80.9609 277.562V276.789L79.6641 276.844C78.6328 276.88 77.888 277.042 77.4297 277.328C76.9766 277.609 76.75 278.049 76.75 278.648C76.75 279.117 76.8906 279.474 77.1719 279.719C77.4583 279.964 77.8568 280.086 78.3672 280.086ZM91.9453 272.438V273.258L90.3594 273.445C90.5052 273.628 90.6354 273.867 90.75 274.164C90.8646 274.456 90.9219 274.786 90.9219 275.156C90.9219 275.995 90.6354 276.664 90.0625 277.164C89.4896 277.664 88.7031 277.914 87.7031 277.914C87.4479 277.914 87.2083 277.893 86.9844 277.852C86.4323 278.143 86.1562 278.51 86.1562 278.953C86.1562 279.188 86.2526 279.362 86.4453 279.477C86.638 279.586 86.9688 279.641 87.4375 279.641H88.9531C89.8802 279.641 90.5911 279.836 91.0859 280.227C91.5859 280.617 91.8359 281.185 91.8359 281.93C91.8359 282.878 91.4557 283.599 90.6953 284.094C89.9349 284.594 88.8255 284.844 87.3672 284.844C86.2474 284.844 85.3828 284.635 84.7734 284.219C84.1693 283.802 83.8672 283.214 83.8672 282.453C83.8672 281.932 84.0339 281.482 84.3672 281.102C84.7005 280.721 85.1693 280.464 85.7734 280.328C85.5547 280.229 85.3698 280.076 85.2188 279.867C85.0729 279.659 85 279.417 85 279.141C85 278.828 85.0833 278.555 85.25 278.32C85.4167 278.086 85.6797 277.859 86.0391 277.641C85.5964 277.458 85.2344 277.148 84.9531 276.711C84.6771 276.273 84.5391 275.773 84.5391 275.211C84.5391 274.273 84.8203 273.552 85.3828 273.047C85.9453 272.536 86.7422 272.281 87.7734 272.281C88.2214 272.281 88.625 272.333 88.9844 272.438H91.9453ZM85.1172 282.438C85.1172 282.901 85.3125 283.253 85.7031 283.492C86.0938 283.732 86.6536 283.852 87.3828 283.852C88.4714 283.852 89.276 283.688 89.7969 283.359C90.3229 283.036 90.5859 282.596 90.5859 282.039C90.5859 281.576 90.4427 281.253 90.1562 281.07C89.8698 280.893 89.3307 280.805 88.5391 280.805H86.9844C86.3958 280.805 85.9375 280.945 85.6094 281.227C85.2812 281.508 85.1172 281.911 85.1172 282.438ZM85.8203 275.18C85.8203 275.779 85.9896 276.232 86.3281 276.539C86.6667 276.846 87.138 277 87.7422 277C89.0078 277 89.6406 276.385 89.6406 275.156C89.6406 273.87 89 273.227 87.7188 273.227C87.1094 273.227 86.6406 273.391 86.3125 273.719C85.9844 274.047 85.8203 274.534 85.8203 275.18ZM100.711 272.438V273.258L99.125 273.445C99.2708 273.628 99.401 273.867 99.5156 274.164C99.6302 274.456 99.6875 274.786 99.6875 275.156C99.6875 275.995 99.401 276.664 98.8281 277.164C98.2552 277.664 97.4688 277.914 96.4688 277.914C96.2135 277.914 95.974 277.893 95.75 277.852C95.1979 278.143 94.9219 278.51 94.9219 278.953C94.9219 279.188 95.0182 279.362 95.2109 279.477C95.4036 279.586 95.7344 279.641 96.2031 279.641H97.7188C98.6458 279.641 99.3568 279.836 99.8516 280.227C100.352 280.617 100.602 281.185 100.602 281.93C100.602 282.878 100.221 283.599 99.4609 284.094C98.7005 284.594 97.5911 284.844 96.1328 284.844C95.013 284.844 94.1484 284.635 93.5391 284.219C92.9349 283.802 92.6328 283.214 92.6328 282.453C92.6328 281.932 92.7995 281.482 93.1328 281.102C93.4661 280.721 93.9349 280.464 94.5391 280.328C94.3203 280.229 94.1354 280.076 93.9844 279.867C93.8385 279.659 93.7656 279.417 93.7656 279.141C93.7656 278.828 93.849 278.555 94.0156 278.32C94.1823 278.086 94.4453 277.859 94.8047 277.641C94.362 277.458 94 277.148 93.7188 276.711C93.4427 276.273 93.3047 275.773 93.3047 275.211C93.3047 274.273 93.5859 273.552 94.1484 273.047C94.7109 272.536 95.5078 272.281 96.5391 272.281C96.987 272.281 97.3906 272.333 97.75 272.438H100.711ZM93.8828 282.438C93.8828 282.901 94.0781 283.253 94.4688 283.492C94.8594 283.732 95.4193 283.852 96.1484 283.852C97.237 283.852 98.0417 283.688 98.5625 283.359C99.0885 283.036 99.3516 282.596 99.3516 282.039C99.3516 281.576 99.2083 281.253 98.9219 281.07C98.6354 280.893 98.0964 280.805 97.3047 280.805H95.75C95.1615 280.805 94.7031 280.945 94.375 281.227C94.0469 281.508 93.8828 281.911 93.8828 282.438ZM94.5859 275.18C94.5859 275.779 94.7552 276.232 95.0938 276.539C95.4323 276.846 95.9036 277 96.5078 277C97.7734 277 98.4062 276.385 98.4062 275.156C98.4062 273.87 97.7656 273.227 96.4844 273.227C95.875 273.227 95.4062 273.391 95.0781 273.719C94.75 274.047 94.5859 274.534 94.5859 275.18ZM103.766 281H102.469V268.844H103.766V281ZM110.133 281.156C108.867 281.156 107.867 280.771 107.133 280C106.404 279.229 106.039 278.159 106.039 276.789C106.039 275.409 106.378 274.312 107.055 273.5C107.737 272.688 108.651 272.281 109.797 272.281C110.87 272.281 111.719 272.635 112.344 273.344C112.969 274.047 113.281 274.977 113.281 276.133V276.953H107.383C107.409 277.958 107.661 278.721 108.141 279.242C108.625 279.763 109.305 280.023 110.18 280.023C111.102 280.023 112.013 279.831 112.914 279.445V280.602C112.456 280.799 112.021 280.94 111.609 281.023C111.203 281.112 110.711 281.156 110.133 281.156ZM109.781 273.367C109.094 273.367 108.544 273.591 108.133 274.039C107.727 274.487 107.487 275.107 107.414 275.898H111.891C111.891 275.081 111.708 274.456 111.344 274.023C110.979 273.586 110.458 273.367 109.781 273.367ZM120.953 281H119.656V268.844H120.953V281ZM125 281H123.703V272.438H125V281ZM123.594 270.117C123.594 269.82 123.667 269.604 123.812 269.469C123.958 269.328 124.141 269.258 124.359 269.258C124.568 269.258 124.747 269.328 124.898 269.469C125.049 269.609 125.125 269.826 125.125 270.117C125.125 270.409 125.049 270.628 124.898 270.773C124.747 270.914 124.568 270.984 124.359 270.984C124.141 270.984 123.958 270.914 123.812 270.773C123.667 270.628 123.594 270.409 123.594 270.117ZM131.734 272.297C132.859 272.297 133.732 272.682 134.352 273.453C134.977 274.219 135.289 275.305 135.289 276.711C135.289 278.117 134.974 279.211 134.344 279.992C133.719 280.768 132.849 281.156 131.734 281.156C131.177 281.156 130.667 281.055 130.203 280.852C129.745 280.643 129.359 280.326 129.047 279.898H128.953L128.68 281H127.75V268.844H129.047V271.797C129.047 272.458 129.026 273.052 128.984 273.578H129.047C129.651 272.724 130.547 272.297 131.734 272.297ZM131.547 273.383C130.661 273.383 130.023 273.638 129.633 274.148C129.242 274.654 129.047 275.508 129.047 276.711C129.047 277.914 129.247 278.776 129.648 279.297C130.049 279.812 130.693 280.07 131.578 280.07C132.375 280.07 132.969 279.781 133.359 279.203C133.75 278.62 133.945 277.784 133.945 276.695C133.945 275.581 133.75 274.75 133.359 274.203C132.969 273.656 132.365 273.383 131.547 273.383ZM141.469 272.281C141.849 272.281 142.19 272.312 142.492 272.375L142.312 273.578C141.958 273.5 141.646 273.461 141.375 273.461C140.682 273.461 140.089 273.742 139.594 274.305C139.104 274.867 138.859 275.568 138.859 276.406V281H137.562V272.438H138.633L138.781 274.023H138.844C139.161 273.466 139.544 273.036 139.992 272.734C140.44 272.432 140.932 272.281 141.469 272.281ZM149.359 281L149.102 279.781H149.039C148.612 280.318 148.185 280.682 147.758 280.875C147.336 281.062 146.807 281.156 146.172 281.156C145.323 281.156 144.656 280.938 144.172 280.5C143.693 280.062 143.453 279.44 143.453 278.633C143.453 276.904 144.836 275.997 147.602 275.914L149.055 275.867V275.336C149.055 274.664 148.909 274.169 148.617 273.852C148.331 273.529 147.87 273.367 147.234 273.367C146.521 273.367 145.714 273.586 144.812 274.023L144.414 273.031C144.836 272.802 145.297 272.622 145.797 272.492C146.302 272.362 146.807 272.297 147.312 272.297C148.333 272.297 149.089 272.523 149.578 272.977C150.073 273.43 150.32 274.156 150.32 275.156V281H149.359ZM146.43 280.086C147.237 280.086 147.87 279.865 148.328 279.422C148.792 278.979 149.023 278.359 149.023 277.562V276.789L147.727 276.844C146.695 276.88 145.951 277.042 145.492 277.328C145.039 277.609 144.812 278.049 144.812 278.648C144.812 279.117 144.953 279.474 145.234 279.719C145.521 279.964 145.919 280.086 146.43 280.086ZM156.906 272.281C157.286 272.281 157.628 272.312 157.93 272.375L157.75 273.578C157.396 273.5 157.083 273.461 156.812 273.461C156.12 273.461 155.526 273.742 155.031 274.305C154.542 274.867 154.297 275.568 154.297 276.406V281H153V272.438H154.07L154.219 274.023H154.281C154.599 273.466 154.982 273.036 155.43 272.734C155.878 272.432 156.37 272.281 156.906 272.281ZM158.172 272.438H159.562L161.438 277.32C161.849 278.435 162.104 279.24 162.203 279.734H162.266C162.333 279.469 162.474 279.016 162.688 278.375C162.906 277.729 163.615 275.75 164.812 272.438H166.203L162.523 282.188C162.159 283.151 161.732 283.833 161.242 284.234C160.758 284.641 160.161 284.844 159.453 284.844C159.057 284.844 158.667 284.799 158.281 284.711V283.672C158.568 283.734 158.888 283.766 159.242 283.766C160.133 283.766 160.768 283.266 161.148 282.266L161.625 281.047L158.172 272.438ZM174.516 280.086C174.745 280.086 174.966 280.07 175.18 280.039C175.393 280.003 175.562 279.966 175.688 279.93V280.922C175.547 280.99 175.339 281.044 175.062 281.086C174.792 281.133 174.547 281.156 174.328 281.156C172.672 281.156 171.844 280.284 171.844 278.539V273.445H170.617V272.82L171.844 272.281L172.391 270.453H173.141V272.438H175.625V273.445H173.141V278.484C173.141 279 173.263 279.396 173.508 279.672C173.753 279.948 174.089 280.086 174.516 280.086ZM184.797 276.711C184.797 278.107 184.445 279.198 183.742 279.984C183.039 280.766 182.068 281.156 180.828 281.156C180.062 281.156 179.383 280.977 178.789 280.617C178.195 280.258 177.737 279.742 177.414 279.07C177.091 278.398 176.93 277.612 176.93 276.711C176.93 275.315 177.279 274.229 177.977 273.453C178.674 272.672 179.643 272.281 180.883 272.281C182.081 272.281 183.031 272.68 183.734 273.477C184.443 274.273 184.797 275.352 184.797 276.711ZM178.273 276.711C178.273 277.805 178.492 278.638 178.93 279.211C179.367 279.784 180.01 280.07 180.859 280.07C181.708 280.07 182.352 279.786 182.789 279.219C183.232 278.646 183.453 277.81 183.453 276.711C183.453 275.622 183.232 274.797 182.789 274.234C182.352 273.667 181.703 273.383 180.844 273.383C179.995 273.383 179.354 273.661 178.922 274.219C178.49 274.776 178.273 275.607 178.273 276.711ZM198.242 272.438V273.258L196.656 273.445C196.802 273.628 196.932 273.867 197.047 274.164C197.161 274.456 197.219 274.786 197.219 275.156C197.219 275.995 196.932 276.664 196.359 277.164C195.786 277.664 195 277.914 194 277.914C193.745 277.914 193.505 277.893 193.281 277.852C192.729 278.143 192.453 278.51 192.453 278.953C192.453 279.188 192.549 279.362 192.742 279.477C192.935 279.586 193.266 279.641 193.734 279.641H195.25C196.177 279.641 196.888 279.836 197.383 280.227C197.883 280.617 198.133 281.185 198.133 281.93C198.133 282.878 197.753 283.599 196.992 284.094C196.232 284.594 195.122 284.844 193.664 284.844C192.544 284.844 191.68 284.635 191.07 284.219C190.466 283.802 190.164 283.214 190.164 282.453C190.164 281.932 190.331 281.482 190.664 281.102C190.997 280.721 191.466 280.464 192.07 280.328C191.852 280.229 191.667 280.076 191.516 279.867C191.37 279.659 191.297 279.417 191.297 279.141C191.297 278.828 191.38 278.555 191.547 278.32C191.714 278.086 191.977 277.859 192.336 277.641C191.893 277.458 191.531 277.148 191.25 276.711C190.974 276.273 190.836 275.773 190.836 275.211C190.836 274.273 191.117 273.552 191.68 273.047C192.242 272.536 193.039 272.281 194.07 272.281C194.518 272.281 194.922 272.333 195.281 272.438H198.242ZM191.414 282.438C191.414 282.901 191.609 283.253 192 283.492C192.391 283.732 192.951 283.852 193.68 283.852C194.768 283.852 195.573 283.688 196.094 283.359C196.62 283.036 196.883 282.596 196.883 282.039C196.883 281.576 196.74 281.253 196.453 281.07C196.167 280.893 195.628 280.805 194.836 280.805H193.281C192.693 280.805 192.234 280.945 191.906 281.227C191.578 281.508 191.414 281.911 191.414 282.438ZM192.117 275.18C192.117 275.779 192.286 276.232 192.625 276.539C192.964 276.846 193.435 277 194.039 277C195.305 277 195.938 276.385 195.938 275.156C195.938 273.87 195.297 273.227 194.016 273.227C193.406 273.227 192.938 273.391 192.609 273.719C192.281 274.047 192.117 274.534 192.117 275.18ZM203.617 281.156C202.352 281.156 201.352 280.771 200.617 280C199.888 279.229 199.523 278.159 199.523 276.789C199.523 275.409 199.862 274.312 200.539 273.5C201.221 272.688 202.135 272.281 203.281 272.281C204.354 272.281 205.203 272.635 205.828 273.344C206.453 274.047 206.766 274.977 206.766 276.133V276.953H200.867C200.893 277.958 201.146 278.721 201.625 279.242C202.109 279.763 202.789 280.023 203.664 280.023C204.586 280.023 205.497 279.831 206.398 279.445V280.602C205.94 280.799 205.505 280.94 205.094 281.023C204.688 281.112 204.195 281.156 203.617 281.156ZM203.266 273.367C202.578 273.367 202.029 273.591 201.617 274.039C201.211 274.487 200.971 275.107 200.898 275.898H205.375C205.375 275.081 205.193 274.456 204.828 274.023C204.464 273.586 203.943 273.367 203.266 273.367ZM211.75 280.086C211.979 280.086 212.201 280.07 212.414 280.039C212.628 280.003 212.797 279.966 212.922 279.93V280.922C212.781 280.99 212.573 281.044 212.297 281.086C212.026 281.133 211.781 281.156 211.562 281.156C209.906 281.156 209.078 280.284 209.078 278.539V273.445H207.852V272.82L209.078 272.281L209.625 270.453H210.375V272.438H212.859V273.445H210.375V278.484C210.375 279 210.497 279.396 210.742 279.672C210.987 279.948 211.323 280.086 211.75 280.086ZM221.562 280.086C221.792 280.086 222.013 280.07 222.227 280.039C222.44 280.003 222.609 279.966 222.734 279.93V280.922C222.594 280.99 222.385 281.044 222.109 281.086C221.839 281.133 221.594 281.156 221.375 281.156C219.719 281.156 218.891 280.284 218.891 278.539V273.445H217.664V272.82L218.891 272.281L219.438 270.453H220.188V272.438H222.672V273.445H220.188V278.484C220.188 279 220.31 279.396 220.555 279.672C220.799 279.948 221.135 280.086 221.562 280.086ZM230.312 281V275.461C230.312 274.763 230.154 274.242 229.836 273.898C229.518 273.555 229.021 273.383 228.344 273.383C227.443 273.383 226.784 273.628 226.367 274.117C225.956 274.607 225.75 275.409 225.75 276.523V281H224.453V268.844H225.75V272.523C225.75 272.966 225.729 273.333 225.688 273.625H225.766C226.021 273.214 226.383 272.891 226.852 272.656C227.326 272.417 227.865 272.297 228.469 272.297C229.516 272.297 230.299 272.547 230.82 273.047C231.346 273.542 231.609 274.331 231.609 275.414V281H230.312ZM237.898 281.156C236.633 281.156 235.633 280.771 234.898 280C234.169 279.229 233.805 278.159 233.805 276.789C233.805 275.409 234.143 274.312 234.82 273.5C235.503 272.688 236.417 272.281 237.562 272.281C238.635 272.281 239.484 272.635 240.109 273.344C240.734 274.047 241.047 274.977 241.047 276.133V276.953H235.148C235.174 277.958 235.427 278.721 235.906 279.242C236.391 279.763 237.07 280.023 237.945 280.023C238.867 280.023 239.779 279.831 240.68 279.445V280.602C240.221 280.799 239.786 280.94 239.375 281.023C238.969 281.112 238.477 281.156 237.898 281.156ZM237.547 273.367C236.859 273.367 236.31 273.591 235.898 274.039C235.492 274.487 235.253 275.107 235.18 275.898H239.656C239.656 275.081 239.474 274.456 239.109 274.023C238.745 273.586 238.224 273.367 237.547 273.367ZM31.2031 301.852H31.1328C30.5339 302.721 29.638 303.156 28.4453 303.156C27.3255 303.156 26.4531 302.773 25.8281 302.008C25.2083 301.242 24.8984 300.154 24.8984 298.742C24.8984 297.331 25.2109 296.234 25.8359 295.453C26.4609 294.672 27.3307 294.281 28.4453 294.281C29.6068 294.281 30.4974 294.703 31.1172 295.547H31.2188L31.1641 294.93L31.1328 294.328V290.844H32.4297V303H31.375L31.2031 301.852ZM28.6094 302.07C29.4948 302.07 30.1354 301.831 30.5312 301.352C30.9323 300.867 31.1328 300.089 31.1328 299.016V298.742C31.1328 297.529 30.9297 296.664 30.5234 296.148C30.1224 295.628 29.4792 295.367 28.5938 295.367C27.8333 295.367 27.25 295.664 26.8438 296.258C26.4427 296.846 26.2422 297.68 26.2422 298.758C26.2422 299.852 26.4427 300.677 26.8438 301.234C27.2448 301.792 27.8333 302.07 28.6094 302.07ZM36.4844 303H35.1875V294.438H36.4844V303ZM35.0781 292.117C35.0781 291.82 35.151 291.604 35.2969 291.469C35.4427 291.328 35.625 291.258 35.8438 291.258C36.0521 291.258 36.2318 291.328 36.3828 291.469C36.5339 291.609 36.6094 291.826 36.6094 292.117C36.6094 292.409 36.5339 292.628 36.3828 292.773C36.2318 292.914 36.0521 292.984 35.8438 292.984C35.625 292.984 35.4427 292.914 35.2969 292.773C35.151 292.628 35.0781 292.409 35.0781 292.117ZM44.7578 300.664C44.7578 301.461 44.4609 302.076 43.8672 302.508C43.2734 302.94 42.4401 303.156 41.3672 303.156C40.2318 303.156 39.3464 302.977 38.7109 302.617V301.414C39.1224 301.622 39.5625 301.786 40.0312 301.906C40.5052 302.026 40.9609 302.086 41.3984 302.086C42.0755 302.086 42.5964 301.979 42.9609 301.766C43.3255 301.547 43.5078 301.216 43.5078 300.773C43.5078 300.44 43.362 300.156 43.0703 299.922C42.7839 299.682 42.2214 299.401 41.3828 299.078C40.5859 298.781 40.0182 298.523 39.6797 298.305C39.3464 298.081 39.0964 297.828 38.9297 297.547C38.7682 297.266 38.6875 296.93 38.6875 296.539C38.6875 295.841 38.9714 295.292 39.5391 294.891C40.1068 294.484 40.8854 294.281 41.875 294.281C42.7969 294.281 43.6979 294.469 44.5781 294.844L44.1172 295.898C43.2578 295.544 42.4792 295.367 41.7812 295.367C41.1667 295.367 40.7031 295.464 40.3906 295.656C40.0781 295.849 39.9219 296.115 39.9219 296.453C39.9219 296.682 39.9792 296.878 40.0938 297.039C40.2135 297.201 40.4036 297.354 40.6641 297.5C40.9245 297.646 41.4245 297.857 42.1641 298.133C43.1797 298.503 43.8646 298.875 44.2188 299.25C44.5781 299.625 44.7578 300.096 44.7578 300.664ZM49.6406 302.086C49.8698 302.086 50.0911 302.07 50.3047 302.039C50.5182 302.003 50.6875 301.966 50.8125 301.93V302.922C50.6719 302.99 50.4635 303.044 50.1875 303.086C49.9167 303.133 49.6719 303.156 49.4531 303.156C47.7969 303.156 46.9688 302.284 46.9688 300.539V295.445H45.7422V294.82L46.9688 294.281L47.5156 292.453H48.2656V294.438H50.75V295.445H48.2656V300.484C48.2656 301 48.388 301.396 48.6328 301.672C48.8776 301.948 49.2135 302.086 49.6406 302.086ZM56.4375 294.281C56.8177 294.281 57.1589 294.312 57.4609 294.375L57.2812 295.578C56.9271 295.5 56.6146 295.461 56.3438 295.461C55.651 295.461 55.0573 295.742 54.5625 296.305C54.0729 296.867 53.8281 297.568 53.8281 298.406V303H52.5312V294.438H53.6016L53.75 296.023H53.8125C54.1302 295.466 54.513 295.036 54.9609 294.734C55.4089 294.432 55.901 294.281 56.4375 294.281ZM60.3594 303H59.0625V294.438H60.3594V303ZM58.9531 292.117C58.9531 291.82 59.026 291.604 59.1719 291.469C59.3177 291.328 59.5 291.258 59.7188 291.258C59.9271 291.258 60.1068 291.328 60.2578 291.469C60.4089 291.609 60.4844 291.826 60.4844 292.117C60.4844 292.409 60.4089 292.628 60.2578 292.773C60.1068 292.914 59.9271 292.984 59.7188 292.984C59.5 292.984 59.3177 292.914 59.1719 292.773C59.026 292.628 58.9531 292.409 58.9531 292.117ZM67.0938 294.297C68.2188 294.297 69.0911 294.682 69.7109 295.453C70.3359 296.219 70.6484 297.305 70.6484 298.711C70.6484 300.117 70.3333 301.211 69.7031 301.992C69.0781 302.768 68.2083 303.156 67.0938 303.156C66.5365 303.156 66.026 303.055 65.5625 302.852C65.1042 302.643 64.7188 302.326 64.4062 301.898H64.3125L64.0391 303H63.1094V290.844H64.4062V293.797C64.4062 294.458 64.3854 295.052 64.3438 295.578H64.4062C65.0104 294.724 65.9062 294.297 67.0938 294.297ZM66.9062 295.383C66.0208 295.383 65.3828 295.638 64.9922 296.148C64.6016 296.654 64.4062 297.508 64.4062 298.711C64.4062 299.914 64.6068 300.776 65.0078 301.297C65.4089 301.812 66.0521 302.07 66.9375 302.07C67.7344 302.07 68.3281 301.781 68.7188 301.203C69.1094 300.62 69.3047 299.784 69.3047 298.695C69.3047 297.581 69.1094 296.75 68.7188 296.203C68.3281 295.656 67.724 295.383 66.9062 295.383ZM74.1406 294.438V299.992C74.1406 300.69 74.2995 301.211 74.6172 301.555C74.9349 301.898 75.4323 302.07 76.1094 302.07C77.0052 302.07 77.6589 301.826 78.0703 301.336C78.487 300.846 78.6953 300.047 78.6953 298.938V294.438H79.9922V303H78.9219L78.7344 301.852H78.6641C78.3984 302.273 78.0286 302.596 77.5547 302.82C77.0859 303.044 76.5495 303.156 75.9453 303.156C74.9036 303.156 74.1224 302.909 73.6016 302.414C73.0859 301.919 72.8281 301.128 72.8281 300.039V294.438H74.1406ZM85.5156 302.086C85.7448 302.086 85.9661 302.07 86.1797 302.039C86.3932 302.003 86.5625 301.966 86.6875 301.93V302.922C86.5469 302.99 86.3385 303.044 86.0625 303.086C85.7917 303.133 85.5469 303.156 85.3281 303.156C83.6719 303.156 82.8438 302.284 82.8438 300.539V295.445H81.6172V294.82L82.8438 294.281L83.3906 292.453H84.1406V294.438H86.625V295.445H84.1406V300.484C84.1406 301 84.263 301.396 84.5078 301.672C84.7526 301.948 85.0885 302.086 85.5156 302.086ZM89.7031 303H88.4062V294.438H89.7031V303ZM88.2969 292.117C88.2969 291.82 88.3698 291.604 88.5156 291.469C88.6615 291.328 88.8438 291.258 89.0625 291.258C89.2708 291.258 89.4505 291.328 89.6016 291.469C89.7526 291.609 89.8281 291.826 89.8281 292.117C89.8281 292.409 89.7526 292.628 89.6016 292.773C89.4505 292.914 89.2708 292.984 89.0625 292.984C88.8438 292.984 88.6615 292.914 88.5156 292.773C88.3698 292.628 88.2969 292.409 88.2969 292.117ZM99.8438 298.711C99.8438 300.107 99.4922 301.198 98.7891 301.984C98.0859 302.766 97.1146 303.156 95.875 303.156C95.1094 303.156 94.4297 302.977 93.8359 302.617C93.2422 302.258 92.7839 301.742 92.4609 301.07C92.138 300.398 91.9766 299.612 91.9766 298.711C91.9766 297.315 92.3255 296.229 93.0234 295.453C93.7214 294.672 94.6901 294.281 95.9297 294.281C97.1276 294.281 98.0781 294.68 98.7812 295.477C99.4896 296.273 99.8438 297.352 99.8438 298.711ZM93.3203 298.711C93.3203 299.805 93.5391 300.638 93.9766 301.211C94.4141 301.784 95.0573 302.07 95.9062 302.07C96.7552 302.07 97.3984 301.786 97.8359 301.219C98.2786 300.646 98.5 299.81 98.5 298.711C98.5 297.622 98.2786 296.797 97.8359 296.234C97.3984 295.667 96.75 295.383 95.8906 295.383C95.0417 295.383 94.401 295.661 93.9688 296.219C93.5365 296.776 93.3203 297.607 93.3203 298.711ZM107.984 303V297.461C107.984 296.763 107.826 296.242 107.508 295.898C107.19 295.555 106.693 295.383 106.016 295.383C105.12 295.383 104.464 295.625 104.047 296.109C103.63 296.594 103.422 297.393 103.422 298.508V303H102.125V294.438H103.18L103.391 295.609H103.453C103.719 295.188 104.091 294.862 104.57 294.633C105.049 294.398 105.583 294.281 106.172 294.281C107.203 294.281 107.979 294.531 108.5 295.031C109.021 295.526 109.281 296.32 109.281 297.414V303H107.984ZM123.5 298.711C123.5 300.107 123.148 301.198 122.445 301.984C121.742 302.766 120.771 303.156 119.531 303.156C118.766 303.156 118.086 302.977 117.492 302.617C116.898 302.258 116.44 301.742 116.117 301.07C115.794 300.398 115.633 299.612 115.633 298.711C115.633 297.315 115.982 296.229 116.68 295.453C117.378 294.672 118.346 294.281 119.586 294.281C120.784 294.281 121.734 294.68 122.438 295.477C123.146 296.273 123.5 297.352 123.5 298.711ZM116.977 298.711C116.977 299.805 117.195 300.638 117.633 301.211C118.07 301.784 118.714 302.07 119.562 302.07C120.411 302.07 121.055 301.786 121.492 301.219C121.935 300.646 122.156 299.81 122.156 298.711C122.156 297.622 121.935 296.797 121.492 296.234C121.055 295.667 120.406 295.383 119.547 295.383C118.698 295.383 118.057 295.661 117.625 296.219C117.193 296.776 116.977 297.607 116.977 298.711ZM129.641 295.445H127.461V303H126.164V295.445H124.633V294.859L126.164 294.391V293.914C126.164 291.81 127.083 290.758 128.922 290.758C129.375 290.758 129.906 290.849 130.516 291.031L130.18 292.07C129.68 291.909 129.253 291.828 128.898 291.828C128.409 291.828 128.047 291.992 127.812 292.32C127.578 292.643 127.461 293.164 127.461 293.883V294.438H129.641V295.445ZM138.977 303.156C137.711 303.156 136.711 302.771 135.977 302C135.247 301.229 134.883 300.159 134.883 298.789C134.883 297.409 135.221 296.312 135.898 295.5C136.581 294.688 137.495 294.281 138.641 294.281C139.714 294.281 140.562 294.635 141.188 295.344C141.812 296.047 142.125 296.977 142.125 298.133V298.953H136.227C136.253 299.958 136.505 300.721 136.984 301.242C137.469 301.763 138.148 302.023 139.023 302.023C139.945 302.023 140.857 301.831 141.758 301.445V302.602C141.299 302.799 140.865 302.94 140.453 303.023C140.047 303.112 139.555 303.156 138.977 303.156ZM138.625 295.367C137.938 295.367 137.388 295.591 136.977 296.039C136.57 296.487 136.331 297.107 136.258 297.898H140.734C140.734 297.081 140.552 296.456 140.188 296.023C139.823 295.586 139.302 295.367 138.625 295.367ZM149.609 303L149.352 301.781H149.289C148.862 302.318 148.435 302.682 148.008 302.875C147.586 303.062 147.057 303.156 146.422 303.156C145.573 303.156 144.906 302.938 144.422 302.5C143.943 302.062 143.703 301.44 143.703 300.633C143.703 298.904 145.086 297.997 147.852 297.914L149.305 297.867V297.336C149.305 296.664 149.159 296.169 148.867 295.852C148.581 295.529 148.12 295.367 147.484 295.367C146.771 295.367 145.964 295.586 145.062 296.023L144.664 295.031C145.086 294.802 145.547 294.622 146.047 294.492C146.552 294.362 147.057 294.297 147.562 294.297C148.583 294.297 149.339 294.523 149.828 294.977C150.323 295.43 150.57 296.156 150.57 297.156V303H149.609ZM146.68 302.086C147.487 302.086 148.12 301.865 148.578 301.422C149.042 300.979 149.273 300.359 149.273 299.562V298.789L147.977 298.844C146.945 298.88 146.201 299.042 145.742 299.328C145.289 299.609 145.062 300.049 145.062 300.648C145.062 301.117 145.203 301.474 145.484 301.719C145.771 301.964 146.169 302.086 146.68 302.086ZM156.672 303.156C155.432 303.156 154.471 302.776 153.789 302.016C153.112 301.25 152.773 300.169 152.773 298.773C152.773 297.341 153.117 296.234 153.805 295.453C154.497 294.672 155.482 294.281 156.758 294.281C157.169 294.281 157.581 294.326 157.992 294.414C158.404 294.503 158.727 294.607 158.961 294.727L158.562 295.828C158.276 295.714 157.964 295.62 157.625 295.547C157.286 295.469 156.987 295.43 156.727 295.43C154.987 295.43 154.117 296.539 154.117 298.758C154.117 299.81 154.328 300.617 154.75 301.18C155.177 301.742 155.807 302.023 156.641 302.023C157.354 302.023 158.086 301.87 158.836 301.562V302.711C158.263 303.008 157.542 303.156 156.672 303.156ZM166.734 303V297.461C166.734 296.763 166.576 296.242 166.258 295.898C165.94 295.555 165.443 295.383 164.766 295.383C163.865 295.383 163.206 295.628 162.789 296.117C162.378 296.607 162.172 297.409 162.172 298.523V303H160.875V290.844H162.172V294.523C162.172 294.966 162.151 295.333 162.109 295.625H162.188C162.443 295.214 162.805 294.891 163.273 294.656C163.747 294.417 164.286 294.297 164.891 294.297C165.938 294.297 166.721 294.547 167.242 295.047C167.768 295.542 168.031 296.331 168.031 297.414V303H166.734ZM178.719 295.445H176.539V303H175.242V295.445H173.711V294.859L175.242 294.391V293.914C175.242 291.81 176.161 290.758 178 290.758C178.453 290.758 178.984 290.849 179.594 291.031L179.258 292.07C178.758 291.909 178.331 291.828 177.977 291.828C177.487 291.828 177.125 291.992 176.891 292.32C176.656 292.643 176.539 293.164 176.539 293.883V294.438H178.719V295.445ZM183.898 303.156C182.633 303.156 181.633 302.771 180.898 302C180.169 301.229 179.805 300.159 179.805 298.789C179.805 297.409 180.143 296.312 180.82 295.5C181.503 294.688 182.417 294.281 183.562 294.281C184.635 294.281 185.484 294.635 186.109 295.344C186.734 296.047 187.047 296.977 187.047 298.133V298.953H181.148C181.174 299.958 181.427 300.721 181.906 301.242C182.391 301.763 183.07 302.023 183.945 302.023C184.867 302.023 185.779 301.831 186.68 301.445V302.602C186.221 302.799 185.786 302.94 185.375 303.023C184.969 303.112 184.477 303.156 183.898 303.156ZM183.547 295.367C182.859 295.367 182.31 295.591 181.898 296.039C181.492 296.487 181.253 297.107 181.18 297.898H185.656C185.656 297.081 185.474 296.456 185.109 296.023C184.745 295.586 184.224 295.367 183.547 295.367ZM194.531 303L194.273 301.781H194.211C193.784 302.318 193.357 302.682 192.93 302.875C192.508 303.062 191.979 303.156 191.344 303.156C190.495 303.156 189.828 302.938 189.344 302.5C188.865 302.062 188.625 301.44 188.625 300.633C188.625 298.904 190.008 297.997 192.773 297.914L194.227 297.867V297.336C194.227 296.664 194.081 296.169 193.789 295.852C193.503 295.529 193.042 295.367 192.406 295.367C191.693 295.367 190.885 295.586 189.984 296.023L189.586 295.031C190.008 294.802 190.469 294.622 190.969 294.492C191.474 294.362 191.979 294.297 192.484 294.297C193.505 294.297 194.26 294.523 194.75 294.977C195.245 295.43 195.492 296.156 195.492 297.156V303H194.531ZM191.602 302.086C192.409 302.086 193.042 301.865 193.5 301.422C193.964 300.979 194.195 300.359 194.195 299.562V298.789L192.898 298.844C191.867 298.88 191.122 299.042 190.664 299.328C190.211 299.609 189.984 300.049 189.984 300.648C189.984 301.117 190.125 301.474 190.406 301.719C190.693 301.964 191.091 302.086 191.602 302.086ZM200.938 302.086C201.167 302.086 201.388 302.07 201.602 302.039C201.815 302.003 201.984 301.966 202.109 301.93V302.922C201.969 302.99 201.76 303.044 201.484 303.086C201.214 303.133 200.969 303.156 200.75 303.156C199.094 303.156 198.266 302.284 198.266 300.539V295.445H197.039V294.82L198.266 294.281L198.812 292.453H199.562V294.438H202.047V295.445H199.562V300.484C199.562 301 199.685 301.396 199.93 301.672C200.174 301.948 200.51 302.086 200.938 302.086ZM205.047 294.438V299.992C205.047 300.69 205.206 301.211 205.523 301.555C205.841 301.898 206.339 302.07 207.016 302.07C207.911 302.07 208.565 301.826 208.977 301.336C209.393 300.846 209.602 300.047 209.602 298.938V294.438H210.898V303H209.828L209.641 301.852H209.57C209.305 302.273 208.935 302.596 208.461 302.82C207.992 303.044 207.456 303.156 206.852 303.156C205.81 303.156 205.029 302.909 204.508 302.414C203.992 301.919 203.734 301.128 203.734 300.039V294.438H205.047ZM217.562 294.281C217.943 294.281 218.284 294.312 218.586 294.375L218.406 295.578C218.052 295.5 217.74 295.461 217.469 295.461C216.776 295.461 216.182 295.742 215.688 296.305C215.198 296.867 214.953 297.568 214.953 298.406V303H213.656V294.438H214.727L214.875 296.023H214.938C215.255 295.466 215.638 295.036 216.086 294.734C216.534 294.432 217.026 294.281 217.562 294.281ZM223.805 303.156C222.539 303.156 221.539 302.771 220.805 302C220.076 301.229 219.711 300.159 219.711 298.789C219.711 297.409 220.049 296.312 220.727 295.5C221.409 294.688 222.323 294.281 223.469 294.281C224.542 294.281 225.391 294.635 226.016 295.344C226.641 296.047 226.953 296.977 226.953 298.133V298.953H221.055C221.081 299.958 221.333 300.721 221.812 301.242C222.297 301.763 222.977 302.023 223.852 302.023C224.773 302.023 225.685 301.831 226.586 301.445V302.602C226.128 302.799 225.693 302.94 225.281 303.023C224.875 303.112 224.383 303.156 223.805 303.156ZM223.453 295.367C222.766 295.367 222.216 295.591 221.805 296.039C221.398 296.487 221.159 297.107 221.086 297.898H225.562C225.562 297.081 225.38 296.456 225.016 296.023C224.651 295.586 224.13 295.367 223.453 295.367ZM228.984 302.172C228.984 301.823 229.062 301.56 229.219 301.383C229.38 301.201 229.609 301.109 229.906 301.109C230.208 301.109 230.443 301.201 230.609 301.383C230.781 301.56 230.867 301.823 230.867 302.172C230.867 302.51 230.781 302.771 230.609 302.953C230.438 303.135 230.203 303.227 229.906 303.227C229.641 303.227 229.419 303.146 229.242 302.984C229.07 302.818 228.984 302.547 228.984 302.172Z" fill="#303030"/>
<circle cx="65" cy="65" r="65" fill="#24633D"/>
<path d="M68.9532 40C57.5772 40 48.3542 49.223 48.3542 60.599C48.3542 65.2221 49.8965 69.4762 52.4687 72.9136L40.4478 84.9344L45.5134 90L57.6829 77.8305C60.9232 79.9531 64.7904 81.198 68.9532 81.198C80.3292 81.198 89.5522 71.975 89.5522 60.599C89.5522 49.223 80.3292 40 68.9532 40ZM68.9532 75.8243C60.5578 75.8243 53.7279 68.9944 53.7279 60.599C53.7279 52.2036 60.5578 45.3736 68.9532 45.3736C77.3486 45.3736 84.1786 52.2036 84.1786 60.599C84.1786 68.9944 77.3486 75.8243 68.9532 75.8243Z" fill="#F5F5F5"/>
<path d="M64.4753 57.0165H59.1016V69.5551H64.4753V57.0165Z" fill="#F5F5F5"/>
<path d="M71.6402 49.8517H66.2665V69.5551H71.6402V49.8517Z" fill="#F5F5F5"/>
<path d="M78.805 53.4341H73.4314V69.5551H78.805V53.4341Z" fill="#F5F5F5"/>
<path d="M2.203 160.3H8.629C10.197 160.3 11.59 160.608 12.808 161.224C14.026 161.826 14.971 162.687 15.643 163.807C16.315 164.913 16.651 166.194 16.651 167.65C16.651 169.106 16.315 170.394 15.643 171.514C14.971 172.62 14.026 173.481 12.808 174.097C11.59 174.699 10.197 175 8.629 175H2.203V160.3ZM8.503 172.69C9.581 172.69 10.526 172.487 11.338 172.081C12.164 171.661 12.794 171.073 13.228 170.317C13.676 169.547 13.9 168.658 13.9 167.65C13.9 166.642 13.676 165.76 13.228 165.004C12.794 164.234 12.164 163.646 11.338 163.24C10.526 162.82 9.581 162.61 8.503 162.61H4.933V172.69H8.503ZM23.5846 163.66C25.2366 163.66 26.4966 164.059 27.3646 164.857C28.2466 165.641 28.6876 166.831 28.6876 168.427V175H26.2096V173.635C25.8876 174.125 25.4256 174.503 24.8236 174.769C24.2356 175.021 23.5216 175.147 22.6816 175.147C21.8416 175.147 21.1066 175.007 20.4766 174.727C19.8466 174.433 19.3566 174.034 19.0066 173.53C18.6706 173.012 18.5026 172.431 18.5026 171.787C18.5026 170.779 18.8736 169.974 19.6156 169.372C20.3716 168.756 21.5546 168.448 23.1646 168.448H26.0626V168.28C26.0626 167.496 25.8246 166.894 25.3486 166.474C24.8866 166.054 24.1936 165.844 23.2696 165.844C22.6396 165.844 22.0166 165.942 21.4006 166.138C20.7986 166.334 20.2876 166.607 19.8676 166.957L18.8386 165.046C19.4266 164.598 20.1336 164.255 20.9596 164.017C21.7856 163.779 22.6606 163.66 23.5846 163.66ZM23.2276 173.236C23.8856 173.236 24.4666 173.089 24.9706 172.795C25.4886 172.487 25.8526 172.053 26.0626 171.493V170.191H23.3536C21.8416 170.191 21.0856 170.688 21.0856 171.682C21.0856 172.158 21.2746 172.536 21.6526 172.816C22.0306 173.096 22.5556 173.236 23.2276 173.236ZM38.7975 174.391C38.4895 174.643 38.1115 174.832 37.6635 174.958C37.2295 175.084 36.7675 175.147 36.2775 175.147C35.0455 175.147 34.0935 174.825 33.4215 174.181C32.7495 173.537 32.4135 172.599 32.4135 171.367V165.97H30.5655V163.87H32.4135V161.308H35.0385V163.87H38.0415V165.97H35.0385V171.304C35.0385 171.85 35.1715 172.27 35.4375 172.564C35.7035 172.844 36.0885 172.984 36.5925 172.984C37.1805 172.984 37.6705 172.83 38.0625 172.522L38.7975 174.391ZM45.2409 163.66C46.8929 163.66 48.1529 164.059 49.0209 164.857C49.9029 165.641 50.3439 166.831 50.3439 168.427V175H47.8659V173.635C47.5439 174.125 47.0819 174.503 46.4799 174.769C45.8919 175.021 45.1779 175.147 44.3379 175.147C43.4979 175.147 42.7629 175.007 42.1329 174.727C41.5029 174.433 41.0129 174.034 40.6629 173.53C40.3269 173.012 40.1589 172.431 40.1589 171.787C40.1589 170.779 40.5299 169.974 41.2719 169.372C42.0279 168.756 43.2109 168.448 44.8209 168.448H47.7189V168.28C47.7189 167.496 47.4809 166.894 47.0049 166.474C46.5429 166.054 45.8499 165.844 44.9259 165.844C44.2959 165.844 43.6729 165.942 43.0569 166.138C42.4549 166.334 41.9439 166.607 41.5239 166.957L40.4949 165.046C41.0829 164.598 41.7899 164.255 42.6159 164.017C43.4419 163.779 44.3169 163.66 45.2409 163.66ZM44.8839 173.236C45.5419 173.236 46.1229 173.089 46.6269 172.795C47.1449 172.487 47.5089 172.053 47.7189 171.493V170.191H45.0099C43.4979 170.191 42.7419 170.688 42.7419 171.682C42.7419 172.158 42.9309 172.536 43.3089 172.816C43.6869 173.096 44.2119 173.236 44.8839 173.236ZM73.2084 160.3L66.8034 175H64.1154L57.6894 160.3H60.6504L65.5434 171.64L70.4784 160.3H73.2084ZM74.6102 163.786H77.2352V175H74.6102V163.786ZM75.9332 161.938C75.4572 161.938 75.0582 161.791 74.7362 161.497C74.4142 161.189 74.2532 160.811 74.2532 160.363C74.2532 159.915 74.4142 159.544 74.7362 159.25C75.0582 158.942 75.4572 158.788 75.9332 158.788C76.4092 158.788 76.8082 158.935 77.1302 159.229C77.4522 159.509 77.6132 159.866 77.6132 160.3C77.6132 160.762 77.4522 161.154 77.1302 161.476C76.8222 161.784 76.4232 161.938 75.9332 161.938ZM84.1455 175.147C83.2355 175.147 82.3465 175.028 81.4785 174.79C80.6105 174.552 79.9175 174.251 79.3995 173.887L80.4075 171.892C80.9115 172.228 81.5135 172.501 82.2135 172.711C82.9275 172.907 83.6275 173.005 84.3135 173.005C85.8815 173.005 86.6655 172.592 86.6655 171.766C86.6655 171.374 86.4625 171.101 86.0565 170.947C85.6645 170.793 85.0275 170.646 84.1455 170.506C83.2215 170.366 82.4655 170.205 81.8775 170.023C81.3035 169.841 80.7995 169.526 80.3655 169.078C79.9455 168.616 79.7355 167.979 79.7355 167.167C79.7355 166.103 80.1765 165.256 81.0585 164.626C81.9545 163.982 83.1585 163.66 84.6705 163.66C85.4405 163.66 86.2105 163.751 86.9805 163.933C87.7505 164.101 88.3805 164.332 88.8705 164.626L87.8625 166.621C86.9105 166.061 85.8395 165.781 84.6495 165.781C83.8795 165.781 83.2915 165.9 82.8855 166.138C82.4935 166.362 82.2975 166.663 82.2975 167.041C82.2975 167.461 82.5075 167.762 82.9275 167.944C83.3615 168.112 84.0265 168.273 84.9225 168.427C85.8185 168.567 86.5535 168.728 87.1275 168.91C87.7015 169.092 88.1915 169.4 88.5975 169.834C89.0175 170.268 89.2275 170.884 89.2275 171.682C89.2275 172.732 88.7725 173.572 87.8625 174.202C86.9525 174.832 85.7135 175.147 84.1455 175.147ZM102.345 163.786V175H99.8461V173.572C99.4261 174.076 98.9011 174.468 98.2711 174.748C97.6411 175.014 96.9621 175.147 96.2341 175.147C94.7361 175.147 93.5531 174.734 92.6851 173.908C91.8311 173.068 91.4041 171.829 91.4041 170.191V163.786H94.0291V169.834C94.0291 170.842 94.2531 171.598 94.7011 172.102C95.1631 172.592 95.8141 172.837 96.6541 172.837C97.5921 172.837 98.3341 172.55 98.8801 171.976C99.4401 171.388 99.7201 170.548 99.7201 169.456V163.786H102.345ZM110.066 163.66C111.718 163.66 112.978 164.059 113.846 164.857C114.728 165.641 115.169 166.831 115.169 168.427V175H112.691V173.635C112.369 174.125 111.907 174.503 111.305 174.769C110.717 175.021 110.003 175.147 109.163 175.147C108.323 175.147 107.588 175.007 106.958 174.727C106.328 174.433 105.838 174.034 105.488 173.53C105.152 173.012 104.984 172.431 104.984 171.787C104.984 170.779 105.355 169.974 106.097 169.372C106.853 168.756 108.036 168.448 109.646 168.448H112.544V168.28C112.544 167.496 112.306 166.894 111.83 166.474C111.368 166.054 110.675 165.844 109.751 165.844C109.121 165.844 108.498 165.942 107.882 166.138C107.28 166.334 106.769 166.607 106.349 166.957L105.32 165.046C105.908 164.598 106.615 164.255 107.441 164.017C108.267 163.779 109.142 163.66 110.066 163.66ZM109.709 173.236C110.367 173.236 110.948 173.089 111.452 172.795C111.97 172.487 112.334 172.053 112.544 171.493V170.191H109.835C108.323 170.191 107.567 170.688 107.567 171.682C107.567 172.158 107.756 172.536 108.134 172.816C108.512 173.096 109.037 173.236 109.709 173.236ZM118.538 159.418H121.163V175H118.538V159.418ZM124.608 163.786H127.233V175H124.608V163.786ZM125.931 161.938C125.455 161.938 125.056 161.791 124.734 161.497C124.412 161.189 124.251 160.811 124.251 160.363C124.251 159.915 124.412 159.544 124.734 159.25C125.056 158.942 125.455 158.788 125.931 158.788C126.407 158.788 126.806 158.935 127.128 159.229C127.45 159.509 127.611 159.866 127.611 160.3C127.611 160.762 127.45 161.154 127.128 161.476C126.82 161.784 126.421 161.938 125.931 161.938ZM139.436 172.9V175H129.755V173.341L135.908 165.886H129.881V163.786H139.268V165.445L133.094 172.9H139.436ZM146.139 163.66C147.791 163.66 149.051 164.059 149.919 164.857C150.801 165.641 151.242 166.831 151.242 168.427V175H148.764V173.635C148.442 174.125 147.98 174.503 147.378 174.769C146.79 175.021 146.076 175.147 145.236 175.147C144.396 175.147 143.661 175.007 143.031 174.727C142.401 174.433 141.911 174.034 141.561 173.53C141.225 173.012 141.057 172.431 141.057 171.787C141.057 170.779 141.428 169.974 142.17 169.372C142.926 168.756 144.109 168.448 145.719 168.448H148.617V168.28C148.617 167.496 148.379 166.894 147.903 166.474C147.441 166.054 146.748 165.844 145.824 165.844C145.194 165.844 144.571 165.942 143.955 166.138C143.353 166.334 142.842 166.607 142.422 166.957L141.393 165.046C141.981 164.598 142.688 164.255 143.514 164.017C144.34 163.779 145.215 163.66 146.139 163.66ZM145.782 173.236C146.44 173.236 147.021 173.089 147.525 172.795C148.043 172.487 148.407 172.053 148.617 171.493V170.191H145.908C144.396 170.191 143.64 170.688 143.64 171.682C143.64 172.158 143.829 172.536 144.207 172.816C144.585 173.096 145.11 173.236 145.782 173.236ZM161.352 174.391C161.044 174.643 160.666 174.832 160.218 174.958C159.784 175.084 159.322 175.147 158.832 175.147C157.6 175.147 156.648 174.825 155.976 174.181C155.304 173.537 154.968 172.599 154.968 171.367V165.97H153.12V163.87H154.968V161.308H157.593V163.87H160.596V165.97H157.593V171.304C157.593 171.85 157.726 172.27 157.992 172.564C158.258 172.844 158.643 172.984 159.147 172.984C159.735 172.984 160.225 172.83 160.617 172.522L161.352 174.391ZM163.512 163.786H166.137V175H163.512V163.786ZM164.835 161.938C164.359 161.938 163.96 161.791 163.638 161.497C163.316 161.189 163.155 160.811 163.155 160.363C163.155 159.915 163.316 159.544 163.638 159.25C163.96 158.942 164.359 158.788 164.835 158.788C165.311 158.788 165.71 158.935 166.032 159.229C166.354 159.509 166.515 159.866 166.515 160.3C166.515 160.762 166.354 161.154 166.032 161.476C165.724 161.784 165.325 161.938 164.835 161.938ZM174.622 175.147C173.488 175.147 172.466 174.902 171.556 174.412C170.646 173.922 169.932 173.243 169.414 172.375C168.91 171.493 168.658 170.499 168.658 169.393C168.658 168.287 168.91 167.3 169.414 166.432C169.932 165.564 170.646 164.885 171.556 164.395C172.466 163.905 173.488 163.66 174.622 163.66C175.77 163.66 176.799 163.905 177.709 164.395C178.619 164.885 179.326 165.564 179.83 166.432C180.348 167.3 180.607 168.287 180.607 169.393C180.607 170.499 180.348 171.493 179.83 172.375C179.326 173.243 178.619 173.922 177.709 174.412C176.799 174.902 175.77 175.147 174.622 175.147ZM174.622 172.9C175.588 172.9 176.386 172.578 177.016 171.934C177.646 171.29 177.961 170.443 177.961 169.393C177.961 168.343 177.646 167.496 177.016 166.852C176.386 166.208 175.588 165.886 174.622 165.886C173.656 165.886 172.858 166.208 172.228 166.852C171.612 167.496 171.304 168.343 171.304 169.393C171.304 170.443 171.612 171.29 172.228 171.934C172.858 172.578 173.656 172.9 174.622 172.9ZM189.48 163.66C190.894 163.66 192.028 164.073 192.882 164.899C193.736 165.725 194.163 166.95 194.163 168.574V175H191.538V168.91C191.538 167.93 191.307 167.195 190.845 166.705C190.383 166.201 189.725 165.949 188.871 165.949C187.905 165.949 187.142 166.243 186.582 166.831C186.022 167.405 185.742 168.238 185.742 169.33V175H183.117V163.786H185.616V165.235C186.05 164.717 186.596 164.325 187.254 164.059C187.912 163.793 188.654 163.66 189.48 163.66Z" fill="#303030"/>
</svg>
