<svg width="461" height="200" viewBox="0 0 561 248" fill="none" xmlns="http://www.w3.org/2000/svg">
<path d="M41.1529 213.701H556.689" stroke="black" stroke-width="0.943114"/>
<path d="M41.1529 221.141V213.701" stroke="black" stroke-width="0.943114"/>
<path d="M43.6893 227.709C43.6893 228.907 43.4849 229.796 43.0759 230.378C42.667 230.96 42.0278 231.251 41.1584 231.251C40.3 231.251 39.6645 230.968 39.2519 230.4C38.8393 229.829 38.6256 228.978 38.6109 227.847V226.482C38.6109 225.3 38.8153 224.421 39.2243 223.846C39.6332 223.272 40.2742 222.984 41.1473 222.984C42.0131 222.984 42.6504 223.263 43.0594 223.819C43.4683 224.371 43.6783 225.226 43.6893 226.383V227.709ZM42.667 226.311C42.667 225.445 42.5454 224.815 42.3023 224.421C42.0591 224.023 41.6742 223.824 41.1473 223.824C40.6242 223.824 40.2429 224.021 40.0034 224.416C39.764 224.81 39.6406 225.416 39.6332 226.234V227.869C39.6332 228.739 39.7585 229.382 40.009 229.798C40.2632 230.211 40.6463 230.417 41.1584 230.417C41.6631 230.417 42.037 230.222 42.2802 229.831C42.527 229.441 42.656 228.825 42.667 227.985V226.311Z" fill="#303030"/>
<path d="M98.4347 221.141V213.701" stroke="black" stroke-width="0.943114"/>
<path d="M99.2857 231.141H98.2579V224.327L96.1967 225.084V224.156L99.1255 223.056H99.2857V231.141Z" fill="#303030"/>
<path d="M155.717 221.141V213.701" stroke="black" stroke-width="0.943114"/>
<path d="M158.48 231.141H153.208V230.406L155.993 227.311C156.405 226.843 156.689 226.464 156.844 226.173C157.002 225.878 157.081 225.574 157.081 225.261C157.081 224.841 156.954 224.497 156.7 224.228C156.446 223.959 156.107 223.824 155.683 223.824C155.175 223.824 154.779 223.97 154.495 224.261C154.215 224.548 154.075 224.95 154.075 225.466H153.053C153.053 224.725 153.291 224.126 153.766 223.67C154.245 223.213 154.884 222.984 155.683 222.984C156.431 222.984 157.023 223.182 157.457 223.576C157.892 223.966 158.109 224.487 158.109 225.14C158.109 225.932 157.605 226.875 156.595 227.969L154.44 230.306H158.48V231.141Z" fill="#303030"/>
<path d="M212.998 221.141V213.701" stroke="black" stroke-width="0.943114"/>
<path d="M211.976 226.621H212.744C213.227 226.613 213.606 226.486 213.883 226.239C214.159 225.992 214.297 225.659 214.297 225.239C214.297 224.296 213.827 223.824 212.888 223.824C212.446 223.824 212.092 223.951 211.827 224.206C211.565 224.456 211.435 224.79 211.435 225.206H210.412C210.412 224.569 210.644 224.04 211.109 223.62C211.576 223.196 212.17 222.984 212.888 222.984C213.647 222.984 214.242 223.185 214.673 223.587C215.104 223.988 215.319 224.546 215.319 225.261C215.319 225.611 215.205 225.95 214.977 226.278C214.752 226.606 214.444 226.851 214.054 227.013C214.496 227.153 214.837 227.385 215.076 227.709C215.319 228.033 215.441 228.429 215.441 228.897C215.441 229.619 215.205 230.192 214.734 230.616C214.262 231.04 213.649 231.251 212.893 231.251C212.138 231.251 211.523 231.047 211.048 230.638C210.576 230.229 210.34 229.689 210.34 229.019H211.368C211.368 229.443 211.506 229.781 211.783 230.036C212.059 230.29 212.429 230.417 212.893 230.417C213.387 230.417 213.765 230.288 214.026 230.03C214.288 229.772 214.419 229.402 214.419 228.919C214.419 228.452 214.275 228.092 213.988 227.842C213.7 227.591 213.286 227.462 212.744 227.455H211.976V226.621Z" fill="#303030"/>
<path d="M270.28 221.141V213.701" stroke="black" stroke-width="0.943114"/>
<path d="M272.087 228.439H273.204V229.273H272.087V231.141H271.059V229.273H267.396V228.671L270.999 223.095H272.087V228.439ZM268.556 228.439H271.059V224.493L270.938 224.714L268.556 228.439Z" fill="#303030"/>
<path d="M327.562 221.141V213.701" stroke="black" stroke-width="0.943114"/>
<path d="M325.523 227.107L325.932 223.095H330.054V224.04H326.8L326.556 226.234C326.951 226.002 327.398 225.886 327.899 225.886C328.632 225.886 329.214 226.129 329.645 226.615C330.076 227.098 330.292 227.752 330.292 228.577C330.292 229.406 330.067 230.06 329.618 230.539C329.172 231.014 328.548 231.251 327.744 231.251C327.033 231.251 326.453 231.054 326.004 230.66C325.554 230.266 325.298 229.721 325.236 229.024H326.203C326.265 229.485 326.429 229.833 326.695 230.069C326.96 230.301 327.31 230.417 327.744 230.417C328.22 230.417 328.592 230.255 328.861 229.931C329.133 229.606 329.27 229.159 329.27 228.588C329.27 228.05 329.122 227.619 328.828 227.295C328.537 226.967 328.148 226.803 327.662 226.803C327.216 226.803 326.866 226.901 326.612 227.096L326.341 227.317L325.523 227.107Z" fill="#303030"/>
<path d="M384.844 221.141V213.701" stroke="black" stroke-width="0.943114"/>
<path d="M386.347 223.089V223.957H386.159C385.363 223.972 384.73 224.208 384.258 224.664C383.787 225.121 383.514 225.764 383.44 226.593C383.864 226.107 384.442 225.863 385.175 225.863C385.875 225.863 386.434 226.11 386.85 226.604C387.27 227.098 387.48 227.735 387.48 228.516C387.48 229.345 387.253 230.008 386.8 230.505C386.351 231.003 385.746 231.251 384.988 231.251C384.218 231.251 383.593 230.957 383.114 230.367C382.635 229.774 382.396 229.011 382.396 228.079V227.687C382.396 226.206 382.711 225.075 383.341 224.294C383.974 223.509 384.916 223.108 386.165 223.089H386.347ZM385.004 226.714C384.654 226.714 384.332 226.819 384.037 227.029C383.742 227.239 383.538 227.503 383.424 227.82V228.195C383.424 228.859 383.573 229.393 383.871 229.798C384.17 230.203 384.542 230.406 384.988 230.406C385.448 230.406 385.809 230.236 386.071 229.898C386.336 229.559 386.469 229.115 386.469 228.566C386.469 228.013 386.334 227.567 386.065 227.228C385.8 226.886 385.446 226.714 385.004 226.714Z" fill="#303030"/>
<path d="M442.126 221.141V213.701" stroke="black" stroke-width="0.943114"/>
<path d="M444.811 223.67L441.479 231.141H440.407L443.728 223.935H439.374V223.095H444.811V223.67Z" fill="#303030"/>
<path d="M499.408 221.141V213.701" stroke="black" stroke-width="0.943114"/>
<path d="M501.778 225.195C501.778 225.596 501.671 225.954 501.458 226.267C501.248 226.58 500.962 226.825 500.601 227.002C501.021 227.182 501.353 227.446 501.596 227.792C501.843 228.138 501.966 228.531 501.966 228.969C501.966 229.665 501.73 230.22 501.259 230.632C500.791 231.045 500.174 231.251 499.408 231.251C498.634 231.251 498.013 231.045 497.545 230.632C497.081 230.216 496.849 229.662 496.849 228.969C496.849 228.534 496.967 228.142 497.203 227.792C497.442 227.442 497.772 227.177 498.192 226.996C497.835 226.819 497.553 226.575 497.346 226.261C497.14 225.948 497.037 225.593 497.037 225.195C497.037 224.517 497.254 223.979 497.689 223.581C498.124 223.183 498.697 222.984 499.408 222.984C500.115 222.984 500.686 223.183 501.121 223.581C501.559 223.979 501.778 224.517 501.778 225.195ZM500.944 228.947C500.944 228.498 500.8 228.131 500.513 227.847C500.229 227.564 499.857 227.422 499.397 227.422C498.936 227.422 498.566 227.562 498.286 227.842C498.01 228.122 497.871 228.49 497.871 228.947C497.871 229.404 498.006 229.763 498.275 230.025C498.547 230.286 498.925 230.417 499.408 230.417C499.887 230.417 500.262 230.286 500.535 230.025C500.808 229.759 500.944 229.4 500.944 228.947ZM499.408 223.824C499.006 223.824 498.68 223.95 498.43 224.2C498.183 224.447 498.059 224.784 498.059 225.211C498.059 225.62 498.181 225.952 498.424 226.206C498.671 226.457 498.999 226.582 499.408 226.582C499.817 226.582 500.143 226.457 500.386 226.206C500.633 225.952 500.756 225.62 500.756 225.211C500.756 224.802 500.629 224.469 500.375 224.211C500.12 223.953 499.798 223.824 499.408 223.824Z" fill="#303030"/>
<path d="M556.69 221.141V213.701" stroke="black" stroke-width="0.943114"/>
<path d="M558.099 227.604C557.885 227.859 557.629 228.063 557.331 228.218C557.036 228.372 556.712 228.45 556.358 228.45C555.894 228.45 555.489 228.336 555.142 228.107C554.8 227.879 554.534 227.558 554.346 227.146C554.159 226.729 554.065 226.271 554.065 225.77C554.065 225.232 554.166 224.747 554.369 224.316C554.575 223.885 554.866 223.556 555.242 223.327C555.617 223.099 556.056 222.985 556.557 222.985C557.353 222.985 557.979 223.283 558.436 223.88C558.896 224.473 559.127 225.283 559.127 226.311V226.61C559.127 228.175 558.817 229.319 558.198 230.041C557.579 230.76 556.645 231.128 555.396 231.147H555.197V230.284H555.413C556.257 230.27 556.905 230.051 557.358 229.627C557.811 229.2 558.058 228.525 558.099 227.604ZM556.524 227.604C556.866 227.604 557.181 227.499 557.469 227.289C557.76 227.079 557.972 226.82 558.104 226.51V226.101C558.104 225.431 557.959 224.885 557.668 224.466C557.377 224.046 557.008 223.836 556.562 223.836C556.113 223.836 555.752 224.009 555.479 224.355C555.207 224.698 555.07 225.151 555.07 225.714C555.07 226.263 555.201 226.716 555.463 227.074C555.728 227.427 556.082 227.604 556.524 227.604Z" fill="#303030"/>
<path d="M41.1529 15.3009V213.701" stroke="black" stroke-width="0.943114"/>
<path d="M35.9803 213.701H41.1529" stroke="black" stroke-width="0.943114"/>
<path d="M29.1263 212.477C29.1263 213.674 28.9219 214.564 28.5129 215.146C28.104 215.728 27.4648 216.019 26.5954 216.019C25.737 216.019 25.1015 215.735 24.6889 215.168C24.2763 214.597 24.0626 213.746 24.0479 212.615V211.25C24.0479 210.067 24.2523 209.189 24.6613 208.614C25.0702 208.039 25.7112 207.752 26.5843 207.752C27.4501 207.752 28.0874 208.03 28.4964 208.586C28.9053 209.139 29.1153 209.994 29.1263 211.15V212.477ZM28.104 211.079C28.104 210.213 27.9824 209.583 27.7393 209.189C27.4961 208.791 27.1112 208.592 26.5843 208.592C26.0612 208.592 25.6799 208.789 25.4404 209.183C25.201 209.577 25.0776 210.183 25.0702 211.001V212.637C25.0702 213.506 25.1955 214.149 25.446 214.565C25.7002 214.978 26.0833 215.184 26.5954 215.184C27.1001 215.184 27.474 214.989 27.7172 214.599C27.964 214.208 28.093 213.593 28.104 212.753V211.079Z" fill="#303030"/>
<path d="M35.9803 164.101H41.1529" stroke="black" stroke-width="0.943114"/>
<path d="M16.643 166.991H11.3711V166.256L14.1562 163.161C14.5688 162.693 14.8525 162.314 15.0072 162.023C15.1657 161.728 15.2449 161.424 15.2449 161.111C15.2449 160.691 15.1178 160.347 14.8636 160.078C14.6094 159.809 14.2704 159.674 13.8468 159.674C13.3384 159.674 12.9423 159.82 12.6587 160.111C12.3787 160.398 12.2387 160.8 12.2387 161.316H11.2164C11.2164 160.575 11.454 159.976 11.9292 159.52C12.4082 159.063 13.0473 158.834 13.8468 158.834C14.5946 158.834 15.1859 159.031 15.6206 159.426C16.0554 159.816 16.2727 160.337 16.2727 160.99C16.2727 161.782 15.768 162.725 14.7586 163.819L12.6034 166.156H16.643V166.991ZM22.7714 163.559C22.7714 164.756 22.5669 165.646 22.158 166.228C21.749 166.81 21.1099 167.101 20.2404 167.101C19.382 167.101 18.7465 166.818 18.3339 166.25C17.9213 165.679 17.7076 164.828 17.6929 163.697V162.332C17.6929 161.15 17.8974 160.271 18.3063 159.696C18.7152 159.122 19.3563 158.834 20.2294 158.834C21.0951 158.834 21.7325 159.113 22.1414 159.669C22.5503 160.221 22.7603 161.076 22.7714 162.233V163.559ZM21.749 162.161C21.749 161.295 21.6275 160.665 21.3843 160.271C21.1412 159.873 20.7562 159.674 20.2294 159.674C19.7062 159.674 19.3249 159.871 19.0855 160.266C18.846 160.66 18.7226 161.266 18.7152 162.084V163.719C18.7152 164.589 18.8405 165.232 19.091 165.648C19.3452 166.061 19.7283 166.267 20.2404 166.267C20.7451 166.267 21.1191 166.072 21.3622 165.681C21.609 165.291 21.738 164.675 21.749 163.835V162.161ZM29.1263 163.559C29.1263 164.756 28.9219 165.646 28.5129 166.228C28.104 166.81 27.4648 167.101 26.5954 167.101C25.737 167.101 25.1015 166.818 24.6889 166.25C24.2763 165.679 24.0626 164.828 24.0479 163.697V162.332C24.0479 161.15 24.2523 160.271 24.6613 159.696C25.0702 159.122 25.7112 158.834 26.5843 158.834C27.4501 158.834 28.0874 159.113 28.4964 159.669C28.9053 160.221 29.1153 161.076 29.1263 162.233V163.559ZM28.104 162.161C28.104 161.295 27.9824 160.665 27.7393 160.271C27.4961 159.873 27.1112 159.674 26.5843 159.674C26.0612 159.674 25.6799 159.871 25.4404 160.266C25.201 160.66 25.0776 161.266 25.0702 162.084V163.719C25.0702 164.589 25.1955 165.232 25.446 165.648C25.7002 166.061 26.0833 166.267 26.5954 166.267C27.1001 166.267 27.474 166.072 27.7172 165.681C27.964 165.291 28.093 164.675 28.104 163.835V162.161Z" fill="#303030"/>
<path d="M36.6367 114.501H40.9303" stroke="black" stroke-width="0.943114"/>
<path d="M15.687 114.234H16.8032V115.068H15.687V116.936H14.6591V115.068H10.9953V114.466L14.5983 108.89H15.687V114.234ZM12.1558 114.234H14.6591V110.288L14.5375 110.509L12.1558 114.234ZM22.7714 113.504C22.7714 114.701 22.5669 115.591 22.158 116.173C21.749 116.755 21.1099 117.046 20.2404 117.046C19.382 117.046 18.7465 116.763 18.3339 116.195C17.9213 115.624 17.7076 114.773 17.6929 113.642V112.277C17.6929 111.095 17.8974 110.216 18.3063 109.641C18.7152 109.067 19.3563 108.779 20.2294 108.779C21.0951 108.779 21.7325 109.057 22.1414 109.614C22.5503 110.166 22.7603 111.021 22.7714 112.178V113.504ZM21.749 112.106C21.749 111.24 21.6275 110.61 21.3843 110.216C21.1412 109.818 20.7562 109.619 20.2294 109.619C19.7062 109.619 19.3249 109.816 19.0855 110.211C18.846 110.605 18.7226 111.211 18.7152 112.029V113.664C18.7152 114.534 18.8405 115.177 19.091 115.593C19.3452 116.006 19.7283 116.212 20.2404 116.212C20.7451 116.212 21.1191 116.017 21.3622 115.626C21.609 115.236 21.738 114.62 21.749 113.78V112.106ZM29.1263 113.504C29.1263 114.701 28.9219 115.591 28.5129 116.173C28.104 116.755 27.4648 117.046 26.5954 117.046C25.737 117.046 25.1015 116.763 24.6889 116.195C24.2763 115.624 24.0626 114.773 24.0479 113.642V112.277C24.0479 111.095 24.2523 110.216 24.6613 109.641C25.0702 109.067 25.7112 108.779 26.5843 108.779C27.4501 108.779 28.0874 109.057 28.4964 109.614C28.9053 110.166 29.1153 111.021 29.1263 112.178V113.504ZM28.104 112.106C28.104 111.24 27.9824 110.61 27.7393 110.216C27.4961 109.818 27.1112 109.619 26.5843 109.619C26.0612 109.619 25.6799 109.816 25.4404 110.211C25.201 110.605 25.0776 111.211 25.0702 112.029V113.664C25.0702 114.534 25.1955 115.177 25.446 115.593C25.7002 116.006 26.0833 116.212 26.5954 116.212C27.1001 116.212 27.474 116.017 27.7172 115.626C27.964 115.236 28.093 114.62 28.104 113.78V112.106Z" fill="#303030"/>
<path d="M35.9803 64.901H41.1529" stroke="black" stroke-width="0.943114"/>
<path d="M15.383 59.967V60.8346H15.1951C14.3994 60.8493 13.7657 61.0851 13.2942 61.5419C12.8226 61.9987 12.55 62.6416 12.4763 63.4705C12.9 62.9842 13.4784 62.741 14.2115 62.741C14.9115 62.741 15.4696 62.9879 15.8859 63.4815C16.3059 63.9752 16.5159 64.6125 16.5159 65.3936C16.5159 66.2225 16.2893 66.8856 15.8362 67.3829C15.3867 67.8803 14.7825 68.129 14.0236 68.129C13.2536 68.129 12.6292 67.8342 12.1503 67.2448C11.6714 66.6517 11.4319 65.8891 11.4319 64.957V64.5646C11.4319 63.0837 11.7469 61.9527 12.3768 61.1716C13.0105 60.3869 13.9518 59.9854 15.2007 59.967H15.383ZM14.0402 63.5921C13.6902 63.5921 13.3679 63.6971 13.0731 63.907C12.7784 64.117 12.5739 64.3804 12.4597 64.6973V65.073C12.4597 65.7362 12.6089 66.2704 12.9073 66.6756C13.2058 67.0808 13.5778 67.2835 14.0236 67.2835C14.4841 67.2835 14.8452 67.114 15.1067 66.7751C15.372 66.4361 15.5046 65.9922 15.5046 65.4433C15.5046 64.8907 15.3701 64.4449 15.1012 64.106C14.8359 63.7634 14.4823 63.5921 14.0402 63.5921ZM22.7714 64.5868C22.7714 65.7841 22.5669 66.6738 22.158 67.2558C21.749 67.8379 21.1099 68.129 20.2404 68.129C19.382 68.129 18.7465 67.8453 18.3339 67.2779C17.9213 66.7069 17.7076 65.8559 17.6929 64.7249V63.36C17.6929 62.1774 17.8974 61.2987 18.3063 60.724C18.7152 60.1493 19.3563 59.862 20.2294 59.862C21.0951 59.862 21.7325 60.1401 22.1414 60.6964C22.5503 61.249 22.7603 62.1037 22.7714 63.2605V64.5868ZM21.749 63.1887C21.749 62.3229 21.6275 61.6929 21.3843 61.2987C21.1412 60.9009 20.7562 60.7019 20.2294 60.7019C19.7062 60.7019 19.3249 60.899 19.0855 61.2932C18.846 61.6874 18.7226 62.2934 18.7152 63.1113V64.747C18.7152 65.6164 18.8405 66.2593 19.091 66.6756C19.3452 67.0882 19.7283 67.2945 20.2404 67.2945C20.7451 67.2945 21.1191 67.0993 21.3622 66.7088C21.609 66.3182 21.738 65.703 21.749 64.8631V63.1887ZM29.1263 64.5868C29.1263 65.7841 28.9219 66.6738 28.5129 67.2558C28.104 67.8379 27.4648 68.129 26.5954 68.129C25.737 68.129 25.1015 67.8453 24.6889 67.2779C24.2763 66.7069 24.0626 65.8559 24.0479 64.7249V63.36C24.0479 62.1774 24.2523 61.2987 24.6613 60.724C25.0702 60.1493 25.7112 59.862 26.5843 59.862C27.4501 59.862 28.0874 60.1401 28.4964 60.6964C28.9053 61.249 29.1153 62.1037 29.1263 63.2605V64.5868ZM28.104 63.1887C28.104 62.3229 27.9824 61.6929 27.7393 61.2987C27.4961 60.9009 27.1112 60.7019 26.5843 60.7019C26.0612 60.7019 25.6799 60.899 25.4404 61.2932C25.201 61.6874 25.0776 62.2934 25.0702 63.1113V64.747C25.0702 65.6164 25.1955 66.2593 25.446 66.6756C25.7002 67.0882 26.0833 67.2945 26.5954 67.2945C27.1001 67.2945 27.474 67.0993 27.7172 66.7088C27.964 66.3182 28.093 65.703 28.104 64.8631V63.1887Z" fill="#303030"/>
<path d="M35.4918 15.9266H40.6644" stroke="black" stroke-width="0.943114"/>
<path d="M16.2506 13.1549C16.2506 13.5565 16.1438 13.9138 15.9301 14.227C15.7201 14.5401 15.4346 14.7851 15.0736 14.9619C15.4935 15.1425 15.8251 15.4059 16.0683 15.7522C16.3151 16.0985 16.4385 16.4908 16.4385 16.9292C16.4385 17.6255 16.2027 18.1799 15.7312 18.5926C15.2633 19.0052 14.6462 19.2115 13.8799 19.2115C13.1063 19.2115 12.4855 19.0052 12.0177 18.5926C11.5535 18.1763 11.3214 17.6218 11.3214 16.9292C11.3214 16.4945 11.4393 16.1021 11.675 15.7522C11.9145 15.4022 12.2442 15.1369 12.6642 14.9564C12.3068 14.7796 12.025 14.5346 11.8187 14.2214C11.6124 13.9083 11.5093 13.5528 11.5093 13.1549C11.5093 12.4771 11.7266 11.9392 12.1613 11.5413C12.596 11.1434 13.1689 10.9445 13.8799 10.9445C14.5873 10.9445 15.1583 11.1434 15.593 11.5413C16.0314 11.9392 16.2506 12.4771 16.2506 13.1549ZM15.4162 16.9071C15.4162 16.4577 15.2725 16.0911 14.9851 15.8074C14.7015 15.5238 14.3294 15.3819 13.8689 15.3819C13.4084 15.3819 13.0381 15.5219 12.7581 15.8019C12.4818 16.0819 12.3437 16.4503 12.3437 16.9071C12.3437 17.3639 12.4782 17.7231 12.7471 17.9847C13.0197 18.2463 13.3973 18.377 13.8799 18.377C14.3589 18.377 14.7346 18.2463 15.0072 17.9847C15.2799 17.7194 15.4162 17.3602 15.4162 16.9071ZM13.8799 11.7845C13.4784 11.7845 13.1523 11.9097 12.9018 12.1602C12.655 12.4071 12.5316 12.7441 12.5316 13.1715C12.5316 13.5804 12.6531 13.912 12.8963 14.1662C13.1431 14.4167 13.471 14.542 13.8799 14.542C14.2889 14.542 14.6149 14.4167 14.858 14.1662C15.1049 13.912 15.2283 13.5804 15.2283 13.1715C15.2283 12.7626 15.1012 12.4292 14.847 12.1713C14.5928 11.9134 14.2704 11.7845 13.8799 11.7845ZM22.7714 15.6693C22.7714 16.8666 22.5669 17.7563 22.158 18.3384C21.749 18.9204 21.1099 19.2115 20.2404 19.2115C19.382 19.2115 18.7465 18.9278 18.3339 18.3605C17.9213 17.7894 17.7076 16.9384 17.6929 15.8074V14.4425C17.6929 13.2599 17.8974 12.3813 18.3063 11.8066C18.7152 11.2318 19.3563 10.9445 20.2294 10.9445C21.0951 10.9445 21.7325 11.2226 22.1414 11.7789C22.5503 12.3315 22.7603 13.1862 22.7714 14.343V15.6693ZM21.749 14.2712C21.749 13.4054 21.6275 12.7755 21.3843 12.3813C21.1412 11.9834 20.7562 11.7845 20.2294 11.7845C19.7062 11.7845 19.3249 11.9815 19.0855 12.3757C18.846 12.7699 18.7226 13.376 18.7152 14.1938V15.8295C18.7152 16.699 18.8405 17.3418 19.091 17.7581C19.3452 18.1707 19.7283 18.377 20.2404 18.377C20.7451 18.377 21.1191 18.1818 21.3622 17.7913C21.609 17.4008 21.738 16.7855 21.749 15.9456V14.2712ZM29.1263 15.6693C29.1263 16.8666 28.9219 17.7563 28.5129 18.3384C28.104 18.9204 27.4648 19.2115 26.5954 19.2115C25.737 19.2115 25.1015 18.9278 24.6889 18.3605C24.2763 17.7894 24.0626 16.9384 24.0479 15.8074V14.4425C24.0479 13.2599 24.2523 12.3813 24.6613 11.8066C25.0702 11.2318 25.7112 10.9445 26.5843 10.9445C27.4501 10.9445 28.0874 11.2226 28.4964 11.7789C28.9053 12.3315 29.1153 13.1862 29.1263 14.343V15.6693ZM28.104 14.2712C28.104 13.4054 27.9824 12.7755 27.7393 12.3813C27.4961 11.9834 27.1112 11.7845 26.5843 11.7845C26.0612 11.7845 25.6799 11.9815 25.4404 12.3757C25.201 12.7699 25.0776 13.376 25.0702 14.1938V15.8295C25.0702 16.699 25.1955 17.3418 25.446 17.7581C25.7002 18.1707 26.0833 18.377 26.5954 18.377C27.1001 18.377 27.474 18.1818 27.7172 17.7913C27.964 17.4008 28.093 16.7855 28.104 15.9456V14.2712Z" fill="#303030"/>
<path d="M41.1529 213.701H556.689" stroke="#CCCCCC" stroke-width="0.943114"/>
<path d="M41.1529 164.101H556.689" stroke="#CCCCCC" stroke-width="0.943114"/>
<path d="M41.1529 114.501H556.689" stroke="#CCCCCC" stroke-width="0.943114"/>
<path d="M41.1529 64.9009H556.689" stroke="#CCCCCC" stroke-width="0.943114"/>
<path d="M41.1529 15.3009H556.689" stroke="#CCCCCC" stroke-width="0.943114"/>
<path d="M41.1529 15.3009V213.701" stroke="#CCCCCC" stroke-width="0.943114"/>
<path d="M98.4347 15.3009V213.701" stroke="#CCCCCC" stroke-width="0.943114"/>
<path d="M155.717 15.3009V213.701" stroke="#CCCCCC" stroke-width="0.943114"/>
<path d="M212.998 15.3009V213.701" stroke="#CCCCCC" stroke-width="0.943114"/>
<path d="M270.28 15.3009V213.701" stroke="#CCCCCC" stroke-width="0.943114"/>
<path d="M327.562 15.3009V213.701" stroke="#CCCCCC" stroke-width="0.943114"/>
<path d="M384.844 15.3009V213.701" stroke="#CCCCCC" stroke-width="0.943114"/>
<path d="M442.126 15.3009V213.701" stroke="#CCCCCC" stroke-width="0.943114"/>
<path d="M499.408 15.3009V213.701" stroke="#CCCCCC" stroke-width="0.943114"/>
<path d="M556.689 15.3009V213.701" stroke="#CCCCCC" stroke-width="0.943114"/>
<path d="M41.1529 133.349L98.4347 15.5491L155.717 99.6211L212.998 22.7411L270.28 120.949L327.562 45.0611L384.844 85.4851L442.126 25.9651L499.408 86.7251L556.689 19.7651" stroke="#24633D" stroke-width="0.943114"/>
</svg>
